<?xml version="1.0" encoding="UTF-8" standalone="no"?>
<!DOCTYPE svg  PUBLIC '-//W3C//DTD SVG 1.1//EN'  'http://www.w3.org/Graphics/SVG/1.1/DTD/svg11.dtd'>
<svg xmlns="http://www.w3.org/2000/svg" xmlns:xlink="http://www.w3.org/1999/xlink" version="1.1">
<defs>
<font id="Brown-Bold" horiz-adv-x="615">
<font-face underline-position="-180" font-weight="700" descent="-200" panose-1="2 0 0 0 0 0 0 0 0 0" units-per-em="1000" unicode-range="U+0020-FB04" bbox="-83 -250 1175 960" x-height="485" underline-thickness="80" font-family="Brown" ascent="800" cap-height="700"/>
<missing-glyph d="M195 115h180v470h-180v-470zM75 700h420v-700h-420v700z" horiz-adv-x="570"/>
<glyph glyph-name=".notdef" d="M195 115h180v470h-180v-470zM75 700h420v-700h-420v700z" horiz-adv-x="570"/>
<glyph glyph-name=".null" horiz-adv-x="0"/>
<glyph glyph-name="nonmarkingreturn" horiz-adv-x="270"/>
<glyph glyph-name="space" horiz-adv-x="270" unicode=" "/>
<glyph glyph-name="exclam" horiz-adv-x="375" unicode="!" d="M100 77q0 37 25 62.5t62 25.5t62.5 -25.5t25.5 -62.5t-25.5 -62t-62.5 -25t-62 25t-25 62zM232 230h-90l-20 255v215h130v-215z"/>
<glyph glyph-name="quotedbl" horiz-adv-x="480" unicode='&quot;' d="M390 445h-90l-20 255h130zM180 445h-90l-20 255h130z"/>
<glyph glyph-name="numbersign" horiz-adv-x="733" unicode="#" d="M234 515l49 185h114l-49 -185h126l49 185h114l-49 -185h110v-110h-139l-31 -110h110l4 -110h-143l-49 -185h-114l49 185h-126l-49 -185h-114l49 185h-110v110h139l30 110h-110v110h140zM288 295h126l30 110h-126z"/>
<glyph glyph-name="dollar" horiz-adv-x="535" unicode="$" d="M98 187q30 -33 73.5 -55t91.5 -22q45 0 73.5 25t28.5 63q0 34 -22 54.5t-55 36.5t-72.5 30t-74.5 35q-41 24 -70 62t-29 97q0 36 12.5 66.5t33.5 54.5t49.5 40.5t60.5 25.5v115h120v-108q41 -5 80 -19.5t78 -43.5l-70 -100q-21 20 -53.5 33t-67.5 13q-19 0 -38.5 -4.5 t-35 -13.5t-25 -23.5t-9.5 -34.5q0 -28 24 -46t60 -33t77.5 -31.5t77.5 -42t60 -64t24 -97.5q0 -40 -14 -74t-39 -60.5t-58 -44.5t-71 -25v-111h-120v112q-52 10 -99 35t-89 63z"/>
<glyph glyph-name="percent" horiz-adv-x="965" unicode="%" d="M224 0l409 700h111l-409 -700h-111zM535 175q0 38 14.5 72t40 59t60 39.5t75.5 14.5q40 0 75 -14.5t60.5 -39.5t40 -59t14.5 -72t-14.5 -72t-40 -59t-60.5 -39.5t-75 -14.5q-41 0 -75.5 14.5t-60 39.5t-40 59t-14.5 72zM795 175q0 31 -19 53t-51 22t-51 -22t-19 -53 t19 -53t51 -22t51 22t19 53zM50 525q0 38 14.5 72t40 59t60 39.5t75.5 14.5q40 0 75 -14.5t60.5 -39.5t40 -59t14.5 -72t-14.5 -72t-40 -59t-60.5 -39.5t-75 -14.5q-41 0 -75.5 14.5t-60 39.5t-40 59t-14.5 72zM310 525q0 31 -19 53t-51 22t-51 -22t-19 -53t19 -53t51 -22 t51 22t19 53z"/>
<glyph glyph-name="ampersand" horiz-adv-x="660" unicode="&amp;" d="M301 547q0 17 -10.5 30t-27.5 13t-27.5 -13t-10.5 -30t10 -34t24 -32q18 16 30 32t12 34zM155 219q0 -22 9.5 -41.5t27.5 -34.5t43.5 -24t57.5 -9q61 0 105 27l-167 193q-30 -17 -53 -43t-23 -68zM587 451q3 -9 6.5 -24.5t6.5 -34t5.5 -39.5t2.5 -42q0 -51 -10.5 -96.5 t-32.5 -82.5l115 -132h-162l-37 42q-38 -26 -87.5 -39t-106.5 -13q-50 0 -97 16t-84 46t-59 72t-22 95q0 35 10 65t27.5 55.5t40 46.5t47.5 38q-26 34 -40.5 66.5t-14.5 67.5q0 32 13.5 60t37 48.5t54 32t63.5 11.5q36 0 67 -12.5t53.5 -34.5t35 -52t12.5 -65 q0 -52 -27.5 -89t-64.5 -66l134 -154q5 17 7.5 36t2.5 39q0 32 -5 59.5t-12 50.5z"/>
<glyph glyph-name="quotesingle" horiz-adv-x="270" unicode="&apos;" d="M180 445h-90l-20 255h130z"/>
<glyph glyph-name="parenleft" horiz-adv-x="455" unicode="(" d="M260 250q0 -108 31 -209t88 -183l-97 -68q-69 98 -105.5 215t-36.5 245t36.5 245t105.5 215l97 -68q-57 -82 -88 -183t-31 -209z"/>
<glyph glyph-name="parenright" horiz-adv-x="455" unicode=")" d="M195 250q0 108 -31 209t-88 183l97 68q69 -98 105.5 -215t36.5 -245t-36.5 -245t-105.5 -215l-97 68q57 82 88 183t31 209z"/>
<glyph glyph-name="asterisk" horiz-adv-x="516" unicode="*" d="M85 334l85 117l-138 45l34 103l137 -44v145h110v-145l137 45l34 -104l-138 -45l85 -117l-88 -64l-85 117l-85 -117z"/>
<glyph glyph-name="plus" horiz-adv-x="550" unicode="+" d="M220 335v175h110v-175h175v-110h-175v-175h-110v175h-175v110h175z"/>
<glyph glyph-name="comma" horiz-adv-x="375" unicode="," d="M265 155l-120 -295h-95l75 295h140z"/>
<glyph glyph-name="hyphen" horiz-adv-x="470" unicode="-" d="M400 315v-110h-330v110h330z"/>
<glyph glyph-name="period" horiz-adv-x="375" unicode="." d="M110 77q0 37 25 62.5t62 25.5t62.5 -25.5t25.5 -62.5t-25.5 -62t-62.5 -25t-62 25t-25 62z"/>
<glyph glyph-name="slash" horiz-adv-x="455" unicode="/" d="M5 0l325 700h120l-325 -700h-120z"/>
<glyph glyph-name="zero" horiz-adv-x="600" unicode="0" d="M55 350q0 75 13 140.5t42.5 114t76 77t113.5 28.5t113.5 -28.5t76 -77t42.5 -114t13 -140.5t-13 -140.5t-42.5 -114t-76 -77t-113.5 -28.5t-113.5 28.5t-76 77t-42.5 114t-13 140.5zM410 350q0 49 -6 93t-19 76.5t-34 51.5t-51 19t-51 -19t-34 -51.5t-19 -76.5t-6 -93 q0 -50 6 -93.5t19 -76t34 -51.5t51 -19t51 19t34 51.5t19 76t6 93.5z"/>
<glyph glyph-name="one" horiz-adv-x="425" unicode="1" d="M55 600l170 100h95v-700h-135v544l-130 -72v128z"/>
<glyph glyph-name="two" horiz-adv-x="545" unicode="2" d="M45 548q11 36 32.5 66t50.5 51t64 33t74 12q45 0 85.5 -16t71.5 -44.5t49 -68.5t18 -87q0 -64 -27.5 -112.5t-62.5 -88.5l-149 -173h244v-120h-455v80l246 279q41 46 55 78t14 59q0 18 -7 35t-19 30t-28.5 21t-36.5 8q-35 0 -59.5 -22t-35.5 -57z"/>
<glyph glyph-name="three" horiz-adv-x="573" unicode="3" d="M122 180q22 -31 56 -50.5t74 -19.5q25 0 48.5 9.5t42 26t29.5 40t11 51.5q0 27 -10.5 50.5t-29 41t-44 27t-54.5 9.5q-44 0 -84 -20v80l131 155h-234v120h425v-80l-127 -156q72 -28 117 -87.5t45 -139.5q0 -56 -20.5 -101.5t-55.5 -77.5t-83 -50t-102 -18 q-66 0 -125.5 28t-106.5 81z"/>
<glyph glyph-name="four" d="M345 280v164l-131 -164h131zM480 700v-420h115v-120h-115v-160h-135v160h-325v80l365 460h95z" unicode="4"/>
<glyph glyph-name="five" horiz-adv-x="565" unicode="5" d="M132 166q23 -24 54 -40t66 -16q49 0 84 32q18 17 28.5 40t10.5 50q0 29 -11.5 53.5t-31.5 41.5q-17 14 -38.5 21t-46.5 7q-26 0 -53 -9.5t-50 -28.5l-84 12l45 371h370v-120h-260l-11 -110q23 5 54 5q41 0 83.5 -11.5t79.5 -41.5q42 -33 65.5 -83t23.5 -107 q0 -52 -20.5 -96t-55.5 -76.5t-82 -51t-100 -18.5q-122 0 -212 90z"/>
<glyph glyph-name="six" horiz-adv-x="590" unicode="6" d="M217 340q-14 -20 -28 -48t-14 -63q0 -25 10 -46.5t26.5 -37.5t39 -25.5t48.5 -9.5t47.5 9.5t37.5 26t24.5 39t8.5 47.5t-9 47.5t-25.5 40t-39.5 27.5t-51 10q-38 0 -75 -17zM428 700l-132 -223h9q50 0 94.5 -18t78 -50t53 -76.5t19.5 -96.5q0 -51 -20 -96t-53.5 -78 t-79 -52.5t-96.5 -19.5q-49 0 -95 17t-82 48t-57.5 75t-21.5 99q0 52 20.5 99t48.5 94l165 278h149z"/>
<glyph glyph-name="seven" horiz-adv-x="535" unicode="7" d="M45 700h460v-80l-301 -620h-143l283 580h-299v120z"/>
<glyph glyph-name="eight" horiz-adv-x="600" unicode="8" d="M300 -10q-53 0 -98.5 17.5t-79 48.5t-53 72t-19.5 89q0 62 28.5 105t72.5 72q-23 20 -39.5 50t-16.5 73q0 40 15.5 75t43 61.5t65 41.5t81.5 15t81.5 -15t65 -41.5t43 -61.5t15.5 -75q0 -43 -16.5 -73t-39.5 -50q44 -29 72.5 -72t28.5 -105q0 -48 -19.5 -89t-53 -72 t-79.5 -48.5t-98 -17.5zM300 110q25 0 46 8.5t36.5 22.5t24 33.5t8.5 42.5q0 22 -8.5 42t-24 34.5t-36.5 23t-46 8.5t-46 -8.5t-36.5 -23t-24 -34.5t-8.5 -42q0 -23 8.5 -42.5t24 -33.5t36.5 -22.5t46 -8.5zM300 445q32 0 51 21t19 51t-19 51.5t-51 21.5t-51 -21.5 t-19 -51.5t19 -51t51 -21z"/>
<glyph glyph-name="nine" horiz-adv-x="590" unicode="9" d="M373 360q14 20 28 48t14 63q0 25 -10 46.5t-26.5 37.5t-39.5 25.5t-48 9.5q-26 0 -47.5 -9.5t-37.5 -26t-24.5 -39t-8.5 -47.5t9 -47.5t25.5 -40t39.5 -27.5t51 -10q38 0 75 17zM162 0l132 223h-9q-50 0 -94.5 18t-78 50t-53 76t-19.5 97q0 51 20 96t53.5 78t79 52.5 t96.5 19.5q49 0 95 -17t82 -48t57.5 -75t21.5 -99q0 -52 -20.5 -99t-48.5 -94l-165 -278h-149z"/>
<glyph glyph-name="colon" horiz-adv-x="375" unicode=":" d="M110 75q0 37 25 61.5t62 24.5t62.5 -24.5t25.5 -61.5t-25.5 -61t-62.5 -24t-62 24t-25 61zM110 409q0 37 25 61.5t62 24.5t62.5 -24.5t25.5 -61.5t-25.5 -61t-62.5 -24t-62 24t-25 61z"/>
<glyph glyph-name="semicolon" horiz-adv-x="375" unicode=";" d="M105 409q0 37 25 61.5t62 24.5t62.5 -24.5t25.5 -61.5t-25.5 -61t-62.5 -24t-62 24t-25 61zM265 155l-120 -295h-95l75 295h140z"/>
<glyph glyph-name="less" horiz-adv-x="550" unicode="&lt;" d="M505 164v-119l-460 200v70l460 200v-119l-266 -116z"/>
<glyph glyph-name="equal" horiz-adv-x="550" unicode="=" d="M505 440v-110h-460v110h460zM505 230v-110h-460v110h460z"/>
<glyph glyph-name="greater" horiz-adv-x="550" unicode="&gt;" d="M311 280l-266 116v119l460 -200v-70l-460 -200v119z"/>
<glyph glyph-name="question" horiz-adv-x="500" unicode="?" d="M60 562q7 30 23.5 56.5t41.5 47t58.5 32.5t74.5 12q42 0 79 -13.5t64.5 -37.5t43 -57t15.5 -72q0 -55 -25 -90.5t-55 -60t-55 -44t-25 -41.5q0 -13 5 -21t12 -15l-101 -70q-4 5 -12 14.5t-15.5 23.5t-13 32t-5.5 39q0 32 12 56.5t29.5 43.5t38.5 34.5t38.5 30.5 t29.5 30.5t12 35.5q0 28 -20 45t-52 17q-33 0 -51.5 -19.5t-20.5 -41.5zM161 75q0 37 25 61.5t62 24.5t62.5 -24.5t25.5 -61.5t-25.5 -61t-62.5 -24t-62 24t-25 61z"/>
<glyph glyph-name="at" horiz-adv-x="1000" unicode="@" d="M745 35q-35 0 -65.5 14.5t-52.5 38.5q-18 -17 -52 -35t-85 -18q-35 0 -73.5 13.5t-70.5 40.5t-53 67.5t-21 93.5q0 51 19.5 91t50.5 67.5t67.5 42t71.5 14.5q27 0 55 -7t54 -24v21h106v-241q0 -23 2.5 -35t7.5 -21q6 -10 16 -16.5t26 -6.5q22 0 36.5 14t22 35t10.5 45.5 t3 45.5q0 67 -26 123t-69.5 96.5t-101 63t-119.5 22.5q-67 0 -126 -25.5t-103 -70.5t-69.5 -105t-25.5 -129q0 -68 25 -128t68.5 -105t102 -71t124.5 -26q56 0 106.5 16.5t91.5 48.5l62 -91q-51 -38 -115 -61t-138 -23q-92 0 -171.5 34.5t-138.5 94t-93 139.5t-34 172 q0 91 33.5 171t91.5 140t137 94.5t171 34.5q85 0 162 -31t136 -86.5t94 -131.5t35 -166q0 -48 -11 -91.5t-33.5 -76.5t-57.5 -52.5t-83 -19.5zM382 250q0 -24 8.5 -44.5t23.5 -36.5t36 -25t47 -9q29 0 53.5 11t37.5 27q-1 10 -1.5 20.5t-0.5 23.5v112q-14 15 -37.5 25.5 t-51.5 10.5q-26 0 -47 -9t-36 -25t-23.5 -36.5t-8.5 -44.5z"/>
<glyph glyph-name="A" horiz-adv-x="695" unicode="A" d="M258 275h178l-89 207zM0 0l300 700h95l300 -700h-141l-66 155h-281l-66 -155h-141z"/>
<glyph glyph-name="B" horiz-adv-x="625" unicode="B" d="M350 120q35 0 56 8.5t34 22.5q25 27 25 64t-25 64q-13 14 -34 22.5t-56 8.5h-135v-190h135zM215 430h95q32 0 48 7t27 18q9 10 14.5 23t5.5 27t-5.5 27t-14.5 23q-11 11 -27 18t-48 7h-95v-150zM318 700q60 0 95.5 -13t61.5 -36q29 -26 47 -62t18 -79q0 -35 -14 -67 t-31 -50q47 -23 76 -71.5t29 -107.5q0 -45 -17.5 -83.5t-46.5 -67.5t-72 -46t-111 -17h-273v700h238z"/>
<glyph glyph-name="C" horiz-adv-x="715" unicode="C" d="M398 590q-50 0 -92.5 -19t-74 -51.5t-49 -76t-17.5 -93.5q0 -51 18.5 -95t50.5 -76t75.5 -50.5t94.5 -18.5q69 0 118 28.5t80 68.5l93 -83q-47 -60 -122 -97t-172 -37q-82 0 -150 28t-117 76.5t-76.5 114.5t-27.5 141t27 141t75.5 114.5t116.5 76.5t150 28q78 0 143 -27 t113 -73l-87 -92q-32 32 -75 52t-95 20z"/>
<glyph glyph-name="D" horiz-adv-x="710" unicode="D" d="M300 700q84 0 141 -17t100 -49q65 -48 102 -122t37 -162t-37 -162t-102 -122q-43 -32 -100 -49t-141 -17h-220v700h220zM545 350q0 44 -13.5 83t-37.5 69q-29 37 -72.5 57.5t-106.5 20.5h-100v-460h100q63 0 106.5 20.5t72.5 57.5q24 30 37.5 69t13.5 83z"/>
<glyph glyph-name="E" horiz-adv-x="550" unicode="E" d="M215 580v-145h215v-120h-215v-195h295v-120h-430v700h420v-120h-285z"/>
<glyph glyph-name="F" horiz-adv-x="520" unicode="F" d="M215 580v-145h215v-120h-215v-315h-135v700h420v-120h-285z"/>
<glyph glyph-name="G" horiz-adv-x="755" unicode="G" d="M398 590q-50 0 -92.5 -19t-74 -51.5t-49 -76t-17.5 -93.5q0 -51 18.5 -95t50.5 -76t75.5 -50.5t94.5 -18.5q48 0 87 15t69 39v151h-180v120h315v-311q-47 -60 -122 -97t-172 -37q-82 0 -150 28t-117 76.5t-76.5 114.5t-27.5 141t27 141t75.5 114.5t116.5 76.5t150 28 q78 0 143 -27t113 -73l-87 -92q-32 32 -75 52t-95 20z"/>
<glyph glyph-name="H" horiz-adv-x="780" unicode="H" d="M565 315h-350v-315h-135v700h135v-265h350v265h135v-700h-135v315z"/>
<glyph glyph-name="I" horiz-adv-x="295" unicode="I" d="M80 700h135v-700h-135v700z"/>
<glyph glyph-name="J" horiz-adv-x="500" unicode="J" d="M425 220q0 -42 -5 -71.5t-17 -52.5q-27 -51 -78.5 -78.5t-112.5 -27.5q-69 0 -121 33t-76 90l116 58q8 -21 27.5 -41t54.5 -20q39 0 61 28q8 10 12 24.5t4 42.5v495h135v-480z"/>
<glyph glyph-name="K" horiz-adv-x="695" unicode="K" d="M215 344v-344h-135v700h135v-280l265 280h178l-308 -320l345 -380h-173z"/>
<glyph glyph-name="L" horiz-adv-x="535" unicode="L" d="M80 700h135v-580h295v-120h-430v700z"/>
<glyph glyph-name="M" horiz-adv-x="860" unicode="M" d="M430 281l255 419h95v-700h-135v390l-168 -275h-94l-168 275v-390h-135v700h95z"/>
<glyph glyph-name="N" horiz-adv-x="780" unicode="N" d="M80 700h95l390 -456v456h135v-700h-95l-390 456v-456h-135v700z"/>
<glyph glyph-name="O" horiz-adv-x="790" unicode="O" d="M30 350q0 75 26.5 140.5t75 114t115.5 77t148 28.5t148 -28.5t115.5 -77t75 -114t26.5 -140.5t-26.5 -140.5t-75 -114t-115.5 -77t-148 -28.5t-148 28.5t-115.5 77t-75 114t-26.5 140.5zM165 350q0 -50 17.5 -93.5t48 -76t72.5 -51.5t92 -19q49 0 91.5 19t73 51.5t48 76 t17.5 93.5q0 49 -17.5 93t-48 76.5t-73 51.5t-91.5 19q-50 0 -92 -19t-72.5 -51.5t-48 -76.5t-17.5 -93z"/>
<glyph glyph-name="P" horiz-adv-x="600" unicode="P" d="M337 405q35 0 54 7.5t31 20.5q23 25 23 59q0 35 -23 60q-12 13 -31 20.5t-54 7.5h-122v-175h122zM215 285v-285h-135v700h263q68 0 110.5 -16t71.5 -47q26 -27 40.5 -65t14.5 -80t-14.5 -80t-40.5 -65q-29 -30 -71.5 -46t-110.5 -16h-128z"/>
<glyph glyph-name="Q" horiz-adv-x="800" unicode="Q" d="M165 350q0 -50 17.5 -93.5t48 -76t72.5 -51.5t92 -19q35 0 66 9.5t57 26.5l-152 172l85 74l144 -162q14 26 22 56.5t8 63.5q0 49 -17.5 93t-48 76.5t-73 51.5t-91.5 19q-50 0 -92 -19t-72.5 -51.5t-48 -76.5t-17.5 -93zM30 350q0 75 26.5 140.5t75 114t115.5 77t148 28.5 t148 -28.5t115.5 -77t75 -114t26.5 -140.5q0 -63 -19.5 -120t-54.5 -103l114 -127h-153l-44 50q-44 -29 -96 -44.5t-112 -15.5q-81 0 -148 28.5t-115.5 77t-75 114t-26.5 140.5z"/>
<glyph glyph-name="R" horiz-adv-x="670" unicode="R" d="M327 430q29 0 44 5.5t24 15.5t14.5 24t5.5 29q0 16 -5.5 30t-14.5 24t-24 16t-44 6h-112v-150h112zM215 310v-310h-135v700h255q54 0 90.5 -14t62.5 -38q29 -27 45.5 -64t16.5 -79t-16.5 -79t-45.5 -64q-30 -28 -70 -41l262 -321h-167l-249 310h-49z"/>
<glyph glyph-name="S" horiz-adv-x="535" unicode="S" d="M98 187q30 -33 73.5 -55t91.5 -22q45 0 73.5 25t28.5 63q0 34 -22 54.5t-55 36.5t-72.5 30t-74.5 35q-41 24 -70 62t-29 97q0 47 20 83.5t52 62t73.5 38.5t85.5 13q54 0 103.5 -14.5t99.5 -51.5l-70 -100q-21 20 -53.5 33t-67.5 13q-19 0 -38.5 -4.5t-35 -13.5t-25 -23.5 t-9.5 -34.5q0 -28 24 -46t60 -33t77.5 -31.5t77.5 -42t60 -64t24 -97.5q0 -47 -19.5 -85.5t-52 -66t-75.5 -43t-90 -15.5q-71 0 -135 27.5t-118 77.5z"/>
<glyph glyph-name="T" horiz-adv-x="555" unicode="T" d="M530 700v-120h-185v-580h-135v580h-185v120h505z"/>
<glyph glyph-name="U" horiz-adv-x="750" unicode="U" d="M375 -10q-60 0 -114.5 18t-95.5 54q-44 39 -67 95.5t-23 137.5v405h135v-415q0 -48 12 -79t34 -51q47 -45 119 -45t119 45q22 20 34 51t12 79v415h135v-405q0 -81 -23 -137.5t-67 -95.5q-41 -36 -95.5 -54t-114.5 -18z"/>
<glyph glyph-name="V" horiz-adv-x="681" unicode="V" d="M10 700h139l191 -478l192 478h139l-283 -700h-95z"/>
<glyph glyph-name="W" horiz-adv-x="985" unicode="W" d="M10 700h136l145 -437l154 437h95l154 -437l145 437h136l-232 -700h-95l-156 443l-155 -443h-95z"/>
<glyph glyph-name="X" horiz-adv-x="680" unicode="X" d="M422 373l243 -373h-155l-170 266l-170 -266h-155l242 373l-212 327h155l140 -221l140 221h155z"/>
<glyph glyph-name="Y" horiz-adv-x="625" unicode="Y" d="M380 317v-317h-135v317l-240 383h154l154 -246l153 246h154z"/>
<glyph glyph-name="Z" d="M40 80l340 500h-310v120h490v-80l-341 -500h361v-120h-540v80z" unicode="Z"/>
<glyph glyph-name="bracketleft" horiz-adv-x="455" unicode="[" d="M140 700h275v-115h-155v-670h155v-115h-275v900z"/>
<glyph glyph-name="backslash" horiz-adv-x="455" unicode="\" d="M125 700l325 -700h-120l-325 700h120z"/>
<glyph glyph-name="bracketright" horiz-adv-x="455" unicode="]" d="M315 -200h-275v115h155v670h-155v115h275v-900z"/>
<glyph glyph-name="asciicircum" horiz-adv-x="520" unicode="^" d="M215 700h90l185 -350h-124l-106 201l-106 -201h-124z"/>
<glyph glyph-name="underscore" horiz-adv-x="520" unicode="_" d="M505 0v-110h-490v110h490z"/>
<glyph glyph-name="grave" horiz-adv-x="350" unicode="`" d="M210 720l70 -160h-90l-120 160h140z"/>
<glyph glyph-name="a" d="M540 0h-125v39q-30 -26 -64 -37.5t-71 -11.5q-54 0 -102.5 22t-80.5 60q-29 33 -45.5 76.5t-16.5 93.5q0 54 18.5 100t51 80t75.5 53.5t93 19.5q42 0 77.5 -13t64.5 -36v39h125v-485zM410 315q-20 27 -51 43.5t-69 16.5q-29 0 -52 -11t-39 -29.5t-25 -42.5t-9 -50 q0 -29 9.5 -53t27 -41.5t41 -27.5t50.5 -10q37 0 67.5 16.5t49.5 43.5v145z" unicode="a"/>
<glyph glyph-name="b" d="M75 0v710h130v-260q57 45 137 45q49 0 92.5 -19.5t76 -53.5t51 -80t18.5 -100q0 -50 -16.5 -93.5t-45.5 -76.5q-32 -38 -80.5 -60t-102.5 -22q-37 0 -71 11.5t-64 37.5v-39h-125zM205 170q19 -27 49.5 -43.5t67.5 -16.5q27 0 50.5 10t41 27.5t27 41.5t9.5 53q0 26 -9 50 t-25 42.5t-39.5 29.5t-51.5 11q-38 0 -69 -16.5t-51 -43.5v-145z" unicode="b"/>
<glyph glyph-name="c" horiz-adv-x="540" unicode="c" d="M515 99q-43 -57 -97 -83t-123 -26q-56 0 -104 19.5t-82.5 54t-54 80t-19.5 98.5t20 99t55 80.5t82.5 54t103.5 19.5q63 0 116.5 -26.5t87.5 -70.5l-92 -81q-20 26 -48.5 42t-63.5 16q-28 0 -52 -10.5t-41.5 -28.5t-27.5 -42t-10 -52q0 -29 10 -53t27.5 -41.5t42 -27.5 t54.5 -10q40 0 70 20t46 44z"/>
<glyph glyph-name="d" d="M415 0v39q-30 -26 -64 -37.5t-71 -11.5q-54 0 -102.5 22t-80.5 60q-29 33 -45.5 76.5t-16.5 93.5q0 54 18.5 100t51 80t75.5 53.5t93 19.5q80 0 137 -45v260h130v-710h-125zM410 315q-20 27 -51 43.5t-69 16.5q-29 0 -52 -11t-39 -29.5t-25 -42.5t-9 -50q0 -29 9.5 -53 t27 -41.5t41 -27.5t50.5 -10q37 0 67.5 16.5t49.5 43.5v145z" unicode="d"/>
<glyph glyph-name="e" horiz-adv-x="535" unicode="e" d="M367 305q-2 16 -9.5 31.5t-20 27.5t-29.5 19t-37 7q-41 0 -70 -26t-34 -59h200zM488 77q-35 -42 -88.5 -64.5t-110.5 -22.5q-54 0 -100.5 18t-80.5 51t-53.5 79.5t-19.5 103.5q0 51 16.5 96.5t47.5 80.5t74.5 55.5t97.5 20.5q50 0 92 -20t72.5 -53.5t47.5 -78.5t17 -96 q0 -21 -3 -37h-336q3 -26 14 -47t28.5 -36t40 -23.5t48.5 -8.5q42 0 73.5 18.5t48.5 37.5z"/>
<glyph glyph-name="f" horiz-adv-x="460" unicode="f" d="M405 600q-8 2 -19 3.5t-20 1.5q-49 0 -73 -28q-8 -11 -13 -27t-5 -50v-15h150v-110h-150v-375h-130v375h-125v110h125v20q0 59 13 96t39 62t63.5 41t87.5 16q20 0 38.5 -2t38.5 -7z"/>
<glyph glyph-name="g" d="M410 315q-20 27 -51 43.5t-69 16.5q-29 0 -52 -11t-39 -29.5t-25 -42.5t-9 -50q0 -29 9.5 -53t27 -41.5t41 -27.5t50.5 -10q37 0 67.5 16.5t49.5 43.5v145zM540 27q0 -66 -11 -107.5t-33 -72.5q-33 -46 -89 -71.5t-126 -25.5q-36 0 -70 7.5t-64 21t-55.5 32t-43.5 39.5 l82 85q10 -11 23.5 -23t32 -22.5t42 -17.5t53.5 -7q32 0 57 9.5t42 29.5q15 17 22.5 42t7.5 72v16q-57 -44 -130 -44q-54 0 -103 22t-81 60q-29 33 -45 76.5t-16 93.5q0 54 18.5 100t51 80t75.5 53.5t93 19.5q42 0 77.5 -13t64.5 -36v39h125v-458z" unicode="g"/>
<glyph glyph-name="h" horiz-adv-x="620" unicode="h" d="M205 0h-130v710h130v-260q27 21 60.5 33t71.5 12q51 0 94.5 -21t73.5 -57q24 -29 37 -68t13 -102v-247h-130v257q0 36 -7.5 56.5t-21.5 34.5q-27 27 -73 27q-21 0 -39.5 -6t-33.5 -15t-26.5 -19.5t-18.5 -19.5v-315z"/>
<glyph glyph-name="i" horiz-adv-x="280" unicode="i" d="M55 657q0 35 25 59t60 24t60 -24t25 -59t-25 -59t-60 -24t-60 24t-25 59zM205 0h-130v485h130v-485z"/>
<glyph glyph-name="j" horiz-adv-x="320" unicode="j" d="M95 657q0 35 25 59t60 24t60 -24t25 -59t-25 -59t-60 -24t-60 24t-25 59zM0 -125q7 -2 18 -3.5t16 -1.5q41 0 62 22q10 11 14.5 29t4.5 54v510h130v-510q0 -55 -8 -90.5t-27 -62.5q-23 -32 -62.5 -52t-102.5 -20q-20 0 -37 2.5t-28 4.5z"/>
<glyph glyph-name="k" horiz-adv-x="595" unicode="k" d="M318 267l267 -267h-175l-205 210v-210h-130v710h130v-382l167 157h183z"/>
<glyph glyph-name="l" horiz-adv-x="280" unicode="l" d="M205 0h-130v710h130v-710z"/>
<glyph glyph-name="m" horiz-adv-x="950" unicode="m" d="M75 0v485h125v-39q29 26 62.5 37.5t68.5 11.5q50 0 92 -20.5t71 -55.5q29 31 73.5 53.5t98.5 22.5q51 0 96 -21t74 -57q23 -29 36 -67.5t13 -92.5v-257h-130v262q0 33 -6.5 51.5t-17.5 31.5q-15 17 -34.5 23.5t-38.5 6.5q-21 0 -39.5 -6.5t-33.5 -16t-26.5 -21 t-17.5 -20.5q2 -12 3 -25.5t1 -28.5v-257h-130v262q0 33 -6.5 51.5t-17.5 31.5q-15 17 -34.5 23.5t-38.5 6.5q-21 0 -38.5 -6t-32 -15t-25 -19.5t-17.5 -19.5v-315h-130z"/>
<glyph glyph-name="n" horiz-adv-x="620" unicode="n" d="M75 0v485h125v-39q28 23 62 36t75 13q51 0 94.5 -21t73.5 -57q24 -29 37 -68t13 -102v-247h-130v257q0 36 -7.5 56.5t-21.5 34.5q-27 27 -73 27q-21 0 -39.5 -6t-33.5 -15t-26.5 -19.5t-18.5 -19.5v-315h-130z"/>
<glyph glyph-name="o" horiz-adv-x="586" unicode="o" d="M165 242q0 -27 9.5 -51t26 -42t40 -28.5t52.5 -10.5q28 0 52 10.5t40.5 28.5t26 42t9.5 51t-9.5 51.5t-26 42.5t-40.5 28.5t-52 10.5q-29 0 -52.5 -10.5t-40 -28.5t-26 -42.5t-9.5 -51.5zM35 242q0 52 19.5 98.5t54 80.5t82 54t102.5 20t102.5 -20t82 -54t54 -80.5 t19.5 -98.5q0 -53 -19.5 -98.5t-54 -80t-82 -54t-102.5 -19.5t-102.5 19.5t-82 54t-54 80t-19.5 98.5z"/>
<glyph glyph-name="p" d="M205 170q19 -27 49.5 -43.5t67.5 -16.5q27 0 50.5 10t41 27.5t27 41.5t9.5 53q0 26 -9 50t-25 42.5t-39.5 29.5t-51.5 11q-38 0 -69 -16.5t-51 -43.5v-145zM75 485h125v-39q29 23 64.5 36t77.5 13q49 0 92.5 -19.5t76 -53.5t51 -80t18.5 -100q0 -50 -16 -93.5t-45 -76.5 q-32 -38 -81 -60t-103 -22q-73 0 -130 44v-274h-130v725z" unicode="p"/>
<glyph glyph-name="q" d="M410 315q-20 27 -51 43.5t-69 16.5q-29 0 -52 -11t-39 -29.5t-25 -42.5t-9 -50q0 -29 9.5 -53t27 -41.5t41 -27.5t50.5 -10q37 0 67.5 16.5t49.5 43.5v145zM540 -240h-130v274q-57 -44 -130 -44q-54 0 -103 22t-81 60q-29 33 -45 76.5t-16 93.5q0 54 18.5 100t51 80 t75.5 53.5t93 19.5q42 0 77.5 -13t64.5 -36v39h125v-725z" unicode="q"/>
<glyph glyph-name="r" horiz-adv-x="410" unicode="r" d="M370 370q-7 2 -20 3.5t-27 1.5q-21 0 -40 -7t-34.5 -17.5t-26.5 -22.5t-17 -23v-305h-130v485h125v-49q22 27 59 43t82 16q14 0 23.5 -1t20.5 -3z"/>
<glyph glyph-name="s" horiz-adv-x="460" unicode="s" d="M90 148q25 -23 60.5 -35.5t72.5 -12.5q26 0 44 11.5t18 29.5t-17.5 29.5t-43.5 21t-56.5 20t-56.5 27t-43.5 41.5t-17.5 64q0 35 15.5 63t41.5 47.5t59.5 30t69.5 10.5q24 0 48 -4t45.5 -11t40 -16t30.5 -18l-61 -94q-19 14 -43 23.5t-50 9.5q-27 0 -46.5 -10t-19.5 -29 q0 -16 17.5 -25.5t43.5 -18.5t56.5 -19.5t56.5 -28.5t43.5 -45t17.5 -69q0 -35 -16 -62.5t-42.5 -47t-61.5 -30t-73 -10.5q-51 0 -101.5 16.5t-93.5 48.5z"/>
<glyph glyph-name="t" horiz-adv-x="495" unicode="t" d="M440 0q-13 -5 -37.5 -7.5t-43.5 -2.5q-59 0 -101 18.5t-67 51.5q-19 25 -27.5 59t-8.5 86v170h-135v110h135v135h130v-135h160v-110h-160v-185q0 -23 4 -37t12 -24q10 -11 26 -17.5t40 -6.5q14 0 30 1.5t23 3.5z"/>
<glyph glyph-name="u" horiz-adv-x="610" unicode="u" d="M535 485v-485h-125v39q-29 -26 -62.5 -37.5t-68.5 -11.5q-51 0 -93.5 21.5t-71.5 56.5q-23 29 -36 67.5t-13 92.5v257h130v-262q0 -33 6.5 -51.5t17.5 -31.5q15 -17 34.5 -23.5t38.5 -6.5q21 0 38.5 6t32 15t25 19.5t17.5 19.5v315h130z"/>
<glyph glyph-name="v" horiz-adv-x="556" unicode="v" d="M278 189l133 296h135l-223 -485h-90l-223 485h135z"/>
<glyph glyph-name="w" horiz-adv-x="852" unicode="w" d="M304 0h-90l-204 485h131l118 -283l122 283h90l121 -283l119 283h131l-204 -485h-90l-122 282z"/>
<glyph glyph-name="x" horiz-adv-x="546" unicode="x" d="M273 347l96 138h149l-163 -226l186 -259h-154l-114 164l-114 -164h-154l186 259l-163 226h149z"/>
<glyph glyph-name="y" horiz-adv-x="573" unicode="y" d="M93 -240l134 289l-217 436h143l142 -291l131 291h137l-334 -725h-136z"/>
<glyph glyph-name="z" horiz-adv-x="530" unicode="z" d="M460 405l-235 -295h255v-110h-430v80l232 295h-212v110h390v-80z"/>
<glyph glyph-name="braceleft" horiz-adv-x="455" unicode="{" d="M187 250q13 -5 26.5 -12t23.5 -19.5t16.5 -33t6.5 -52.5q0 -40 -5 -76.5t-5 -73.5q0 -40 22 -54t54 -14h39v-115h-30q-97 0 -151 44.5t-54 134.5q0 44 5 83.5t5 79.5q0 38 -24 53t-66 15v80q42 0 66 15t24 53q0 40 -5 79.5t-5 83.5q0 90 54 134.5t151 44.5h30v-115h-39 q-32 0 -54 -14t-22 -54q0 -37 5 -73.5t5 -76.5q0 -32 -6.5 -52.5t-16.5 -33t-23.5 -19.5t-26.5 -12z"/>
<glyph glyph-name="bar" horiz-adv-x="240" unicode="|" d="M180 -200h-120v900h120v-900z"/>
<glyph glyph-name="braceright" horiz-adv-x="455" unicode="}" d="M268 250q-14 5 -27 12t-23 19.5t-16.5 33t-6.5 52.5q0 40 5 76.5t5 73.5q0 40 -22 54t-54 14h-39v115h30q97 0 151 -44.5t54 -134.5q0 -44 -5 -83.5t-5 -79.5q0 -38 24 -53t66 -15v-80q-42 0 -66 -15t-24 -53q0 -40 5 -79.5t5 -83.5q0 -90 -54 -134.5t-151 -44.5h-30v115 h39q32 0 54 14t22 54q0 37 -5 73.5t-5 76.5q0 32 6.5 52.5t16.5 33t23 19.5t27 12z"/>
<glyph glyph-name="asciitilde" horiz-adv-x="570" unicode="~" d="M20 215q6 31 19.5 60.5t34.5 52t49.5 36t64.5 13.5t63.5 -13t49.5 -29t40.5 -29t36.5 -13q26 0 42.5 23t22.5 56l107 -27q-6 -31 -19.5 -60.5t-34.5 -52t-49.5 -36t-64.5 -13.5t-63.5 13t-49.5 29t-40.5 29t-36.5 13q-26 0 -42.5 -23t-22.5 -56z"/>
<glyph glyph-name="uni00A0" horiz-adv-x="270" unicode=" "/>
<glyph glyph-name="exclamdown" horiz-adv-x="375" unicode="¡" d="M100 410q0 37 25 61t62 24t62.5 -24t25.5 -61t-25.5 -61.5t-62.5 -24.5t-62 24.5t-25 61.5zM252 -25v-215h-130v215l20 255h90z"/>
<glyph glyph-name="cent" horiz-adv-x="540" unicode="¢" d="M165 242q0 -29 10 -53t27.5 -41.5t42 -27.5t54.5 -10q40 0 70 20t46 44l100 -75q-35 -46 -76 -71.5t-92 -33.5v-109h-120v114q-43 10 -78 32.5t-60.5 54.5t-39.5 72t-14 84t14 83.5t39.5 71.5t61 55t77.5 34v114h120v-110q48 -9 87 -33t66 -59l-92 -81q-20 26 -48.5 42 t-63.5 16q-28 0 -52 -10.5t-41.5 -28.5t-27.5 -42t-10 -52z"/>
<glyph glyph-name="sterling" horiz-adv-x="530" unicode="£" d="M379 405v-110h-97q2 -11 3 -22t1 -25q0 -43 -13 -75t-27 -53h274v-120h-495v80q62 20 96.5 64t34.5 103q0 11 -1 22.5t-4 25.5h-111v110h66q-9 22 -14.5 47t-5.5 56q0 42 17 79t46 64t67.5 43t81.5 16q76 0 125.5 -38t72.5 -98l-113 -44q-9 24 -30 42t-51 18 q-36 0 -61 -23.5t-25 -58.5q0 -26 8.5 -51.5t19.5 -51.5h135z"/>
<glyph glyph-name="currency" horiz-adv-x="610" unicode="¤" d="M224 351q0 -34 23.5 -57.5t57.5 -23.5t57.5 23.5t23.5 57.5t-23.5 57.5t-57.5 23.5t-57.5 -23.5t-23.5 -57.5zM94 351q0 54 26 100l-80 80l85 85l80 -80q46 26 100 26q55 0 101 -26l79 80l85 -85l-79 -80q25 -47 25 -100q0 -54 -25 -101l79 -79l-85 -85l-79 79 q-47 -25 -101 -25q-53 0 -100 25l-80 -79l-85 85l80 79q-26 46 -26 101z"/>
<glyph glyph-name="yen" horiz-adv-x="625" unicode="¥" d="M52 325h188l-32 50h-156v110h87l-134 215h154l154 -246l153 246h154l-135 -215h88v-110h-157l-31 -50h188v-110h-193v-215h-135v215h-193v110z"/>
<glyph glyph-name="brokenbar" horiz-adv-x="280" unicode="¦" d="M200 310h-120v390h120v-390zM200 -200h-120v390h120v-390z"/>
<glyph glyph-name="section" horiz-adv-x="573" unicode="§" d="M403 213q0 29 -18 46.5t-46.5 30t-63.5 22.5t-68 25q-37 -25 -37 -70q0 -29 18 -46.5t46.5 -30t63 -23t68.5 -25.5q17 12 27 30t10 41zM538 215q0 -46 -19 -84t-51 -66q14 -20 22 -44t8 -54q0 -47 -20 -83.5t-52 -62t-74 -38.5t-85 -13q-54 0 -103.5 14.5t-99.5 51.5 l70 100q21 -20 53.5 -33t67.5 -13q19 0 38.5 4.5t35 13.5t25 23.5t9.5 34.5q0 28 -24.5 45.5t-60.5 32t-79 29.5t-79 39t-60.5 60.5t-24.5 92.5q0 46 19 83.5t51 65.5q-14 20 -22 44t-8 55q0 47 20 83.5t52 62t73.5 38.5t85.5 13q54 0 103.5 -14.5t99.5 -51.5l-70 -100 q-21 20 -53.5 33t-67.5 13q-19 0 -38.5 -4.5t-35 -13.5t-25 -23.5t-9.5 -34.5q0 -28 24.5 -45.5t60.5 -32t79 -29.5t79 -39t60.5 -60.5t24.5 -92.5z"/>
<glyph glyph-name="dieresis" horiz-adv-x="510" unicode="¨" d="M280 642q0 33 23.5 55.5t56.5 22.5t56.5 -22.5t23.5 -55.5t-23.5 -55.5t-56.5 -22.5t-56.5 22.5t-23.5 55.5zM70 642q0 33 23.5 55.5t56.5 22.5t56.5 -22.5t23.5 -55.5t-23.5 -55.5t-56.5 -22.5t-56.5 22.5t-23.5 55.5z"/>
<glyph glyph-name="copyright" horiz-adv-x="840" unicode="©" d="M570 205q-21 -22 -57.5 -38.5t-78.5 -16.5q-44 0 -82 15t-66 42t-44 63.5t-16 79.5t15.5 80t43 64t64.5 42t80 15q78 0 126 -46l-49 -59q-16 11 -35 18t-41 7q-24 0 -45.5 -9.5t-37.5 -26t-25 -38.5t-9 -47t9.5 -47t25.5 -38t38 -25.5t47 -9.5q26 0 47.5 9.5t38.5 26.5z M140 350q0 -58 22 -109t60 -89t89 -60t109 -22t109 22t89 60t60 89t22 109t-22 109t-60 89t-89 60t-109 22t-109 -22t-89 -60t-60 -89t-22 -109zM70 350q0 72 27.5 136t75 111.5t111.5 75t136 27.5t136 -27.5t111.5 -75t75 -111.5t27.5 -136t-27.5 -136t-75 -111.5 t-111.5 -75t-136 -27.5t-136 27.5t-111.5 75t-75 111.5t-27.5 136z"/>
<glyph glyph-name="ordfeminine" horiz-adv-x="416" unicode="ª" d="M281 593q-12 17 -29.5 27t-40.5 10q-35 0 -55.5 -24t-20.5 -56q0 -34 22 -57t55 -23q23 0 40.5 9.5t28.5 26.5v87zM371 396h-89v22q-34 -28 -85 -28q-33 0 -63 14.5t-50 37.5q-18 21 -28.5 48.5t-10.5 59.5q0 34 12 63t32 50.5t47.5 34t59.5 12.5q51 0 86 -28v22h89v-308 z"/>
<glyph glyph-name="guillemotleft" horiz-adv-x="659" unicode="«" d="M619 437l-156 -190l156 -190h-143l-126 155v70l126 155h143zM339 437l-156 -190l156 -190h-143l-126 155v70l126 155h143z"/>
<glyph glyph-name="logicalnot" horiz-adv-x="550" unicode="¬" d="M505 120h-110v210h-350v110h460v-320z"/>
<glyph glyph-name="uni00AD" horiz-adv-x="470" unicode="­" d="M400 315v-110h-330v110h330z"/>
<glyph glyph-name="registered" horiz-adv-x="840" unicode="®" d="M140 350q0 -58 22 -109t60 -89t89 -60t109 -22t109 22t89 60t60 89t22 109t-22 109t-60 89t-89 60t-109 22t-109 -22t-89 -60t-60 -89t-22 -109zM424 392q15 0 23.5 3t13.5 10q7 9 7 21q0 13 -7 22q-5 6 -13.5 10t-23.5 4h-52v-70h52zM372 321v-162h-87v383h136 q36 0 58 -8t38 -22q38 -33 38 -86q0 -29 -13 -51.5t-36 -36.5q-5 -4 -11 -6.5t-13 -4.5l115 -168h-95l-107 162h-23zM70 350q0 72 27.5 136t75 111.5t111.5 75t136 27.5t136 -27.5t111.5 -75t75 -111.5t27.5 -136t-27.5 -136t-75 -111.5t-111.5 -75t-136 -27.5t-136 27.5 t-111.5 75t-75 111.5t-27.5 136z"/>
<glyph glyph-name="macron" horiz-adv-x="460" unicode="¯" d="M390 690v-100h-320v100h320z"/>
<glyph glyph-name="degree" horiz-adv-x="430" unicode="°" d="M145 540q0 -29 20.5 -49.5t49.5 -20.5t49.5 20.5t20.5 49.5t-20.5 49.5t-49.5 20.5t-49.5 -20.5t-20.5 -49.5zM45 540q0 35 13.5 66t36.5 54t54 36.5t66 13.5t66 -13.5t54 -36.5t36.5 -54t13.5 -66t-13.5 -66t-36.5 -54t-54 -36.5t-66 -13.5t-66 13.5t-54 36.5t-36.5 54 t-13.5 66z"/>
<glyph glyph-name="plusminus" horiz-adv-x="550" unicode="±" d="M505 140v-110h-460v110h460zM45 294v110h175v126h110v-126h175v-110h-175v-126h-110v126h-175z"/>
<glyph glyph-name="twosuperior" horiz-adv-x="317" unicode="²" d="M35 620q11 42 45.5 66t79.5 24q24 0 46 -8t38.5 -23t26 -36t9.5 -46q0 -27 -11.5 -51.5t-30.5 -47.5l-59 -73h108v-85h-257v50l131 159q21 27 21 43q0 11 -6.5 19.5t-19.5 8.5q-11 0 -19 -7.5t-12 -18.5z"/>
<glyph glyph-name="threesuperior" horiz-adv-x="296" unicode="³" d="M78 546l58 74h-114v80h230v-50l-60 -85q35 -14 54.5 -43.5t19.5 -64.5q0 -29 -12 -52t-31.5 -40t-46 -26t-54.5 -9q-35 0 -66 12t-56 37l59 60q6 -8 20.5 -17.5t39.5 -9.5q19 0 34 12t15 33q0 20 -15 33.5t-36 13.5q-11 0 -21 -2.5t-18 -5.5v50z"/>
<glyph glyph-name="acute" horiz-adv-x="350" unicode="´" d="M280 720l-120 -160h-90l70 160h140z"/>
<glyph glyph-name="mu" horiz-adv-x="620" unicode="µ" d="M545 485v-485h-125v39q-29 -26 -62.5 -37.5t-68.5 -11.5q-23 0 -45 5.5t-39 16.5v-252h-130v725h130v-262q0 -33 6.5 -51.5t17.5 -31.5q15 -17 34.5 -23.5t38.5 -6.5q21 0 38.5 6t32 15t25 19.5t17.5 19.5v315h130z"/>
<glyph glyph-name="paragraph" horiz-adv-x="725" unicode="¶" d="M680 700v-110h-100v-790h-120v790h-100v-790h-120v470q-45 0 -84 17t-68 46t-46 68t-17 84q0 60 30.5 109t78.5 77q24 14 55 21.5t84 7.5h407zM240 590q-41 -4 -68 -33.5t-27 -71.5t27 -71.5t68 -33.5v210z"/>
<glyph glyph-name="periodcentered" horiz-adv-x="375" unicode="·" d="M100 242q0 37 25 62.5t62 25.5t62.5 -25.5t25.5 -62.5t-25.5 -62t-62.5 -25t-62 25t-25 62z"/>
<glyph glyph-name="cedilla" horiz-adv-x="310" unicode="¸" d="M145 10h95l-30 -160h-130z"/>
<glyph glyph-name="onesuperior" horiz-adv-x="260" unicode="¹" d="M30 638l120 62h60v-360h-100v242l-80 -41v97z"/>
<glyph glyph-name="ordmasculine" horiz-adv-x="416" unicode="º" d="M45 550q0 33 11.5 62t33 51t51.5 34.5t67 12.5t67 -12.5t51.5 -34.5t33 -51t11.5 -62t-11.5 -62t-33 -51t-51.5 -34.5t-67 -12.5t-67 12.5t-51.5 34.5t-33 51t-11.5 62zM281 550q0 34 -19 57t-54 23t-54 -23t-19 -57t19 -57t54 -23t54 23t19 57z"/>
<glyph glyph-name="guillemotright" horiz-adv-x="659" unicode="»" d="M183 437l126 -155v-70l-126 -155h-143l156 190l-156 190h143zM463 437l126 -155v-70l-126 -155h-143l156 190l-156 190h143z"/>
<glyph glyph-name="onequarter" horiz-adv-x="725" unicode="¼" d="M514 145v58l-45 -58h45zM599 145h66v-75h-66v-70h-85v70h-159v50l184 240h60v-215zM100 0l409 700h111l-409 -700h-111zM65 638l120 62h60v-360h-100v242l-80 -41v97z"/>
<glyph glyph-name="onehalf" horiz-adv-x="727" unicode="½" d="M445 280q11 42 45 66t80 24q24 0 46 -8t38 -23t26 -36t10 -46q0 -27 -12 -51t-30 -48l-59 -73h108v-85h-257v50l131 159q21 27 21 43q0 12 -6 20t-20 8q-11 0 -19 -8t-12 -18zM100 0l409 700h111l-409 -700h-111zM65 638l120 62h60v-360h-100v242l-80 -41v97z"/>
<glyph glyph-name="threequarters" horiz-adv-x="738" unicode="¾" d="M500 145v58l-45 -58h45zM585 145h66v-75h-66v-70h-85v70h-159v50l184 240h60v-215zM86 0l409 700h111l-409 -700h-111zM78 546l58 74h-114v80h230v-50l-60 -85q34 -13 54 -43t20 -65q0 -29 -12 -52t-32 -40t-46 -26t-54 -9q-35 0 -66 12t-56 37l59 60q7 -7 21 -17t39 -10 q19 0 34 12t15 33q0 19 -15 33t-36 14q-11 0 -21 -2t-18 -6v50z"/>
<glyph glyph-name="questiondown" horiz-adv-x="500" unicode="¿" d="M440 -102q-7 -30 -23.5 -56.5t-41.5 -47t-58.5 -32.5t-74.5 -12q-42 0 -79 13.5t-64.5 37.5t-43 57t-15.5 72q0 37 12 64.5t29.5 48.5t38.5 37.5t38.5 30.5t29.5 27t12 28q0 13 -5 21t-12 15l101 70q4 -5 12 -14.5t15.5 -23.5t13 -32t5.5 -39q0 -32 -12 -56.5 t-29.5 -43.5t-38.5 -34.5t-38.5 -30.5t-29.5 -30.5t-12 -35.5q0 -28 20 -45t52 -17q33 0 51.5 19.5t20.5 41.5zM339 410q0 -37 -25 -61.5t-62 -24.5t-62.5 24.5t-25.5 61.5t25.5 61t62.5 24t62 -24t25 -61z"/>
<glyph glyph-name="Agrave" horiz-adv-x="695" unicode="À" d="M258 275h178l-89 207zM0 0l300 700h95l300 -700h-141l-66 155h-281l-66 -155h-141zM322 920l70 -160h-90l-120 160h140z"/>
<glyph glyph-name="Aacute" horiz-adv-x="695" unicode="Á" d="M258 275h178l-89 207zM0 0l300 700h95l300 -700h-141l-66 155h-281l-66 -155h-141zM512 920l-120 -160h-90l70 160h140z"/>
<glyph glyph-name="Acircumflex" horiz-adv-x="695" unicode="Â" d="M258 275h178l-89 207zM0 0l300 700h95l300 -700h-141l-66 155h-281l-66 -155h-141zM417 920l100 -160h-90l-80 90l-80 -90h-90l100 160h140z"/>
<glyph glyph-name="Atilde" horiz-adv-x="695" unicode="Ã" d="M258 275h178l-89 207zM0 0l300 700h95l300 -700h-141l-66 155h-281l-66 -155h-141zM537 904q0 -27 -7 -51.5t-21.5 -42.5t-35 -29t-47.5 -11q-23 0 -43 8t-38 17t-35 17t-33 8q-18 0 -28 -14.5t-12 -35.5l-80 16q0 27 7 51.5t21.5 42.5t35 29t47.5 11q22 0 42.5 -8 t38.5 -17t35 -17t33 -8q18 0 28 14.5t12 35.5z"/>
<glyph glyph-name="Adieresis" horiz-adv-x="695" unicode="Ä" d="M258 275h178l-89 207zM0 0l300 700h95l300 -700h-141l-66 155h-281l-66 -155h-141zM373 842q0 33 23.5 55.5t56.5 22.5t56.5 -22.5t23.5 -55.5t-23.5 -55.5t-56.5 -22.5t-56.5 22.5t-23.5 55.5zM163 842q0 33 23.5 55.5t56.5 22.5t56.5 -22.5t23.5 -55.5t-23.5 -55.5 t-56.5 -22.5t-56.5 22.5t-23.5 55.5z"/>
<glyph glyph-name="Aring" horiz-adv-x="695" unicode="Å" d="M258 275h178l-89 207zM0 0l300 700h95l300 -700h-141l-66 155h-281l-66 -155h-141zM317 850q0 -13 8.5 -21.5t21.5 -8.5t21.5 8.5t8.5 21.5t-8.5 21.5t-21.5 8.5t-21.5 -8.5t-8.5 -21.5zM237 850q0 23 8.5 43t23.5 35t35 23.5t43 8.5t43 -8.5t35 -23.5t23.5 -35t8.5 -43 t-8.5 -43t-23.5 -35t-35 -23.5t-43 -8.5t-43 8.5t-35 23.5t-23.5 35t-8.5 43z"/>
<glyph glyph-name="AE" horiz-adv-x="960" unicode="Æ" d="M490 275v306l-184 -306h184zM625 580v-145h225v-120h-225v-195h295v-120h-430v155h-256l-93 -155h-151l421 700h499v-120h-285z"/>
<glyph glyph-name="Ccedilla" horiz-adv-x="715" unicode="Ç" d="M337 -5q-69 10 -125.5 41.5t-97 78.5t-62.5 107t-22 128q0 75 27 141t75.5 114.5t116.5 76.5t150 28q78 0 143 -27t113 -73l-87 -92q-32 32 -75 52t-95 20q-50 0 -92.5 -19t-74 -51.5t-49 -76t-17.5 -93.5q0 -51 18.5 -95t50.5 -76t75.5 -50.5t94.5 -18.5q69 0 118 28.5 t80 68.5l93 -83q-43 -54 -109.5 -90t-151.5 -42l-26 -142h-130z"/>
<glyph glyph-name="Egrave" horiz-adv-x="550" unicode="È" d="M215 580v-145h215v-120h-215v-195h295v-120h-430v700h420v-120h-285zM277 920l70 -160h-90l-120 160h140z"/>
<glyph glyph-name="Eacute" horiz-adv-x="550" unicode="É" d="M215 580v-145h215v-120h-215v-195h295v-120h-430v700h420v-120h-285zM450 920l-120 -160h-90l70 160h140z"/>
<glyph glyph-name="Ecircumflex" horiz-adv-x="550" unicode="Ê" d="M215 580v-145h215v-120h-215v-195h295v-120h-430v700h420v-120h-285zM365 920l100 -160h-90l-80 90l-80 -90h-90l100 160h140z"/>
<glyph glyph-name="Edieresis" horiz-adv-x="550" unicode="Ë" d="M215 580v-145h215v-120h-215v-195h295v-120h-430v700h420v-120h-285zM316 842q0 33 23.5 55.5t56.5 22.5t56.5 -22.5t23.5 -55.5t-23.5 -55.5t-56.5 -22.5t-56.5 22.5t-23.5 55.5zM106 842q0 33 23.5 55.5t56.5 22.5t56.5 -22.5t23.5 -55.5t-23.5 -55.5t-56.5 -22.5 t-56.5 22.5t-23.5 55.5z"/>
<glyph glyph-name="Igrave" horiz-adv-x="295" unicode="Ì" d="M80 700h135v-700h-135v700zM126 920l70 -160h-90l-120 160h140z"/>
<glyph glyph-name="Iacute" horiz-adv-x="295" unicode="Í" d="M80 700h135v-700h-135v700zM310 920l-120 -160h-90l70 160h140z"/>
<glyph glyph-name="Icircumflex" horiz-adv-x="295" unicode="Î" d="M80 700h135v-700h-135v700zM218 920l100 -160h-90l-80 90l-80 -90h-90l100 160h140z"/>
<glyph glyph-name="Idieresis" horiz-adv-x="295" unicode="Ï" d="M80 700h135v-700h-135v700zM173 842q0 33 23.5 55.5t56.5 22.5t56.5 -22.5t23.5 -55.5t-23.5 -55.5t-56.5 -22.5t-56.5 22.5t-23.5 55.5zM-37 842q0 33 23.5 55.5t56.5 22.5t56.5 -22.5t23.5 -55.5t-23.5 -55.5t-56.5 -22.5t-56.5 22.5t-23.5 55.5z"/>
<glyph glyph-name="Eth" horiz-adv-x="730" unicode="Ð" d="M565 350q0 44 -13.5 83t-37.5 69q-29 37 -72.5 57.5t-106.5 20.5h-100v-145h200v-120h-200v-195h100q63 0 106.5 20.5t72.5 57.5q24 30 37.5 69t13.5 83zM0 435h100v265h220q84 0 141 -17t100 -49q65 -48 102 -122t37 -162t-37 -162t-102 -122q-43 -32 -100 -49t-141 -17 h-220v315h-100v120z"/>
<glyph glyph-name="Ntilde" horiz-adv-x="780" unicode="Ñ" d="M80 700h95l390 -456v456h135v-700h-95l-390 456v-456h-135v700zM575 904q0 -27 -7 -51.5t-21.5 -42.5t-35 -29t-47.5 -11q-23 0 -43 8t-38 17t-35 17t-33 8q-18 0 -28 -14.5t-12 -35.5l-80 16q0 27 7 51.5t21.5 42.5t35 29t47.5 11q22 0 42.5 -8t38.5 -17t35 -17t33 -8 q18 0 28 14.5t12 35.5z"/>
<glyph glyph-name="Ograve" horiz-adv-x="790" unicode="Ò" d="M30 350q0 75 26.5 140.5t75 114t115.5 77t148 28.5t148 -28.5t115.5 -77t75 -114t26.5 -140.5t-26.5 -140.5t-75 -114t-115.5 -77t-148 -28.5t-148 28.5t-115.5 77t-75 114t-26.5 140.5zM165 350q0 -50 17.5 -93.5t48 -76t72.5 -51.5t92 -19q49 0 91.5 19t73 51.5t48 76 t17.5 93.5q0 49 -17.5 93t-48 76.5t-73 51.5t-91.5 19q-50 0 -92 -19t-72.5 -51.5t-48 -76.5t-17.5 -93zM370 920l70 -160h-90l-120 160h140z"/>
<glyph glyph-name="Oacute" horiz-adv-x="790" unicode="Ó" d="M30 350q0 75 26.5 140.5t75 114t115.5 77t148 28.5t148 -28.5t115.5 -77t75 -114t26.5 -140.5t-26.5 -140.5t-75 -114t-115.5 -77t-148 -28.5t-148 28.5t-115.5 77t-75 114t-26.5 140.5zM165 350q0 -50 17.5 -93.5t48 -76t72.5 -51.5t92 -19q49 0 91.5 19t73 51.5t48 76 t17.5 93.5q0 49 -17.5 93t-48 76.5t-73 51.5t-91.5 19q-50 0 -92 -19t-72.5 -51.5t-48 -76.5t-17.5 -93zM560 920l-120 -160h-90l70 160h140z"/>
<glyph glyph-name="Ocircumflex" horiz-adv-x="790" unicode="Ô" d="M30 350q0 75 26.5 140.5t75 114t115.5 77t148 28.5t148 -28.5t115.5 -77t75 -114t26.5 -140.5t-26.5 -140.5t-75 -114t-115.5 -77t-148 -28.5t-148 28.5t-115.5 77t-75 114t-26.5 140.5zM165 350q0 -50 17.5 -93.5t48 -76t72.5 -51.5t92 -19q49 0 91.5 19t73 51.5t48 76 t17.5 93.5q0 49 -17.5 93t-48 76.5t-73 51.5t-91.5 19q-50 0 -92 -19t-72.5 -51.5t-48 -76.5t-17.5 -93zM465 920l100 -160h-90l-80 90l-80 -90h-90l100 160h140z"/>
<glyph glyph-name="Otilde" horiz-adv-x="790" unicode="Õ" d="M30 350q0 75 26.5 140.5t75 114t115.5 77t148 28.5t148 -28.5t115.5 -77t75 -114t26.5 -140.5t-26.5 -140.5t-75 -114t-115.5 -77t-148 -28.5t-148 28.5t-115.5 77t-75 114t-26.5 140.5zM165 350q0 -50 17.5 -93.5t48 -76t72.5 -51.5t92 -19q49 0 91.5 19t73 51.5t48 76 t17.5 93.5q0 49 -17.5 93t-48 76.5t-73 51.5t-91.5 19q-50 0 -92 -19t-72.5 -51.5t-48 -76.5t-17.5 -93zM585 904q0 -27 -7 -51.5t-21.5 -42.5t-35 -29t-47.5 -11q-23 0 -43 8t-38 17t-35 17t-33 8q-18 0 -28 -14.5t-12 -35.5l-80 16q0 27 7 51.5t21.5 42.5t35 29t47.5 11 q22 0 42.5 -8t38.5 -17t35 -17t33 -8q18 0 28 14.5t12 35.5z"/>
<glyph glyph-name="Odieresis" horiz-adv-x="790" unicode="Ö" d="M30 350q0 75 26.5 140.5t75 114t115.5 77t148 28.5t148 -28.5t115.5 -77t75 -114t26.5 -140.5t-26.5 -140.5t-75 -114t-115.5 -77t-148 -28.5t-148 28.5t-115.5 77t-75 114t-26.5 140.5zM165 350q0 -50 17.5 -93.5t48 -76t72.5 -51.5t92 -19q49 0 91.5 19t73 51.5t48 76 t17.5 93.5q0 49 -17.5 93t-48 76.5t-73 51.5t-91.5 19q-50 0 -92 -19t-72.5 -51.5t-48 -76.5t-17.5 -93zM420 842q0 33 23.5 55.5t56.5 22.5t56.5 -22.5t23.5 -55.5t-23.5 -55.5t-56.5 -22.5t-56.5 22.5t-23.5 55.5zM210 842q0 33 23.5 55.5t56.5 22.5t56.5 -22.5 t23.5 -55.5t-23.5 -55.5t-56.5 -22.5t-56.5 22.5t-23.5 55.5z"/>
<glyph glyph-name="multiply" horiz-adv-x="530" unicode="×" d="M265 358l145 145l78 -78l-145 -145l145 -145l-78 -78l-145 145l-145 -145l-78 78l145 145l-145 145l78 78z"/>
<glyph glyph-name="Oslash" horiz-adv-x="790" unicode="Ø" d="M165 350q0 -73 36 -132l295 348q-23 11 -48.5 17.5t-52.5 6.5q-50 0 -92 -19t-72.5 -51.5t-48 -76.5t-17.5 -93zM625 350q0 36 -10 69.5t-27 62.5l-295 -348q23 -11 48.5 -17.5t53.5 -6.5q49 0 91.5 19t73 51.5t48 76t17.5 93.5zM30 350q0 75 26.5 140.5t75 114t115.5 77 t148 28.5q52 0 98 -12t86 -34l37 46h164l-104 -125q40 -48 62 -107.5t22 -127.5q0 -75 -26.5 -140.5t-75 -114t-115.5 -77t-148 -28.5q-53 0 -99 12t-86 34l-38 -46h-163l105 124q-41 48 -62.5 108t-21.5 128z"/>
<glyph glyph-name="Ugrave" horiz-adv-x="750" unicode="Ù" d="M375 -10q-60 0 -114.5 18t-95.5 54q-44 39 -67 95.5t-23 137.5v405h135v-415q0 -48 12 -79t34 -51q47 -45 119 -45t119 45q22 20 34 51t12 79v415h135v-405q0 -81 -23 -137.5t-67 -95.5q-41 -36 -95.5 -54t-114.5 -18zM351 920l70 -160h-90l-120 160h140z"/>
<glyph glyph-name="Uacute" horiz-adv-x="750" unicode="Ú" d="M375 -10q-60 0 -114.5 18t-95.5 54q-44 39 -67 95.5t-23 137.5v405h135v-415q0 -48 12 -79t34 -51q47 -45 119 -45t119 45q22 20 34 51t12 79v415h135v-405q0 -81 -23 -137.5t-67 -95.5q-41 -36 -95.5 -54t-114.5 -18zM540 920l-120 -160h-90l70 160h140z"/>
<glyph glyph-name="Ucircumflex" horiz-adv-x="750" unicode="Û" d="M375 -10q-60 0 -114.5 18t-95.5 54q-44 39 -67 95.5t-23 137.5v405h135v-415q0 -48 12 -79t34 -51q47 -45 119 -45t119 45q22 20 34 51t12 79v415h135v-405q0 -81 -23 -137.5t-67 -95.5q-41 -36 -95.5 -54t-114.5 -18zM445 920l100 -160h-90l-80 90l-80 -90h-90l100 160 h140z"/>
<glyph glyph-name="Udieresis" horiz-adv-x="750" unicode="Ü" d="M375 -10q-60 0 -114.5 18t-95.5 54q-44 39 -67 95.5t-23 137.5v405h135v-415q0 -48 12 -79t34 -51q47 -45 119 -45t119 45q22 20 34 51t12 79v415h135v-405q0 -81 -23 -137.5t-67 -95.5q-41 -36 -95.5 -54t-114.5 -18zM400 842q0 33 23.5 55.5t56.5 22.5t56.5 -22.5 t23.5 -55.5t-23.5 -55.5t-56.5 -22.5t-56.5 22.5t-23.5 55.5zM190 842q0 33 23.5 55.5t56.5 22.5t56.5 -22.5t23.5 -55.5t-23.5 -55.5t-56.5 -22.5t-56.5 22.5t-23.5 55.5z"/>
<glyph glyph-name="Yacute" horiz-adv-x="625" unicode="Ý" d="M380 317v-317h-135v317l-240 383h154l154 -246l153 246h154zM477 920l-120 -160h-90l70 160h140z"/>
<glyph glyph-name="Thorn" horiz-adv-x="600" unicode="Þ" d="M337 265q35 0 54 7.5t31 20.5q23 25 23 59q0 35 -23 60q-12 13 -31 20.5t-54 7.5h-122v-175h122zM80 700h135v-140h128q68 0 110.5 -17t71.5 -48q26 -27 40.5 -64t14.5 -79t-14.5 -79t-40.5 -64q-29 -30 -71.5 -47t-110.5 -17h-128v-145h-135v700z"/>
<glyph glyph-name="germandbls" horiz-adv-x="605" unicode="ß" d="M281 442q41 0 65 22q12 11 19.5 27.5t7.5 34.5q0 35 -24 59.5t-60 24.5q-40 0 -64 -29q-10 -11 -15 -28t-5 -47v-506h-130v505q0 26 3 47q5 31 14.5 54t24.5 43q29 37 73 59t98 22q46 0 85 -16t68 -44t45.5 -65.5t16.5 -79.5q0 -33 -11.5 -63.5t-31.5 -53.5 q50 -28 80 -79.5t30 -111.5q0 -47 -17.5 -88.5t-48 -72.5t-71.5 -48.5t-89 -17.5q-62 0 -111 27l56 103q11 -5 22.5 -7.5t24.5 -2.5q47 0 75.5 30.5t28.5 73.5q0 26 -10.5 48t-28.5 36q-14 11 -33.5 17.5t-53.5 6.5h-33v120z"/>
<glyph glyph-name="agrave" d="M540 0h-125v39q-30 -26 -64 -37.5t-71 -11.5q-54 0 -102.5 22t-80.5 60q-29 33 -45.5 76.5t-16.5 93.5q0 54 18.5 100t51 80t75.5 53.5t93 19.5q42 0 77.5 -13t64.5 -36v39h125v-485zM410 315q-20 27 -51 43.5t-69 16.5q-29 0 -52 -11t-39 -29.5t-25 -42.5t-9 -50 q0 -29 9.5 -53t27 -41.5t41 -27.5t50.5 -10q37 0 67.5 16.5t49.5 43.5v145zM330 720l70 -160h-90l-120 160h140z" unicode="à"/>
<glyph glyph-name="aacute" d="M540 0h-125v39q-30 -26 -64 -37.5t-71 -11.5q-54 0 -102.5 22t-80.5 60q-29 33 -45.5 76.5t-16.5 93.5q0 54 18.5 100t51 80t75.5 53.5t93 19.5q42 0 77.5 -13t64.5 -36v39h125v-485zM410 315q-20 27 -51 43.5t-69 16.5q-29 0 -52 -11t-39 -29.5t-25 -42.5t-9 -50 q0 -29 9.5 -53t27 -41.5t41 -27.5t50.5 -10q37 0 67.5 16.5t49.5 43.5v145zM470 720l-120 -160h-90l70 160h140z" unicode="á"/>
<glyph glyph-name="acircumflex" d="M540 0h-125v39q-30 -26 -64 -37.5t-71 -11.5q-54 0 -102.5 22t-80.5 60q-29 33 -45.5 76.5t-16.5 93.5q0 54 18.5 100t51 80t75.5 53.5t93 19.5q42 0 77.5 -13t64.5 -36v39h125v-485zM410 315q-20 27 -51 43.5t-69 16.5q-29 0 -52 -11t-39 -29.5t-25 -42.5t-9 -50 q0 -29 9.5 -53t27 -41.5t41 -27.5t50.5 -10q37 0 67.5 16.5t49.5 43.5v145zM385 720l100 -160h-90l-80 90l-80 -90h-90l100 160h140z" unicode="â"/>
<glyph glyph-name="atilde" d="M540 0h-125v39q-30 -26 -64 -37.5t-71 -11.5q-54 0 -102.5 22t-80.5 60q-29 33 -45.5 76.5t-16.5 93.5q0 54 18.5 100t51 80t75.5 53.5t93 19.5q42 0 77.5 -13t64.5 -36v39h125v-485zM410 315q-20 27 -51 43.5t-69 16.5q-29 0 -52 -11t-39 -29.5t-25 -42.5t-9 -50 q0 -29 9.5 -53t27 -41.5t41 -27.5t50.5 -10q37 0 67.5 16.5t49.5 43.5v145zM510 704q0 -27 -7 -51.5t-21.5 -42.5t-35 -29t-47.5 -11q-23 0 -43 8t-38 17t-35 17t-33 8q-18 0 -28 -14.5t-12 -35.5l-80 16q0 27 7 51.5t21.5 42.5t35 29t47.5 11q22 0 42.5 -8t38.5 -17t35 -17 t33 -8q18 0 28 14.5t12 35.5z" unicode="ã"/>
<glyph glyph-name="adieresis" d="M540 0h-125v39q-30 -26 -64 -37.5t-71 -11.5q-54 0 -102.5 22t-80.5 60q-29 33 -45.5 76.5t-16.5 93.5q0 54 18.5 100t51 80t75.5 53.5t93 19.5q42 0 77.5 -13t64.5 -36v39h125v-485zM410 315q-20 27 -51 43.5t-69 16.5q-29 0 -52 -11t-39 -29.5t-25 -42.5t-9 -50 q0 -29 9.5 -53t27 -41.5t41 -27.5t50.5 -10q37 0 67.5 16.5t49.5 43.5v145zM340 642q0 33 23.5 55.5t56.5 22.5t56.5 -22.5t23.5 -55.5t-23.5 -55.5t-56.5 -22.5t-56.5 22.5t-23.5 55.5zM130 642q0 33 23.5 55.5t56.5 22.5t56.5 -22.5t23.5 -55.5t-23.5 -55.5t-56.5 -22.5 t-56.5 22.5t-23.5 55.5z" unicode="ä"/>
<glyph glyph-name="aring" d="M540 0h-125v39q-30 -26 -64 -37.5t-71 -11.5q-54 0 -102.5 22t-80.5 60q-29 33 -45.5 76.5t-16.5 93.5q0 54 18.5 100t51 80t75.5 53.5t93 19.5q42 0 77.5 -13t64.5 -36v39h125v-485zM410 315q-20 27 -51 43.5t-69 16.5q-29 0 -52 -11t-39 -29.5t-25 -42.5t-9 -50 q0 -29 9.5 -53t27 -41.5t41 -27.5t50.5 -10q37 0 67.5 16.5t49.5 43.5v145zM295 650q0 -13 8.5 -21.5t21.5 -8.5t21.5 8.5t8.5 21.5t-8.5 21.5t-21.5 8.5t-21.5 -8.5t-8.5 -21.5zM215 650q0 23 8.5 43t23.5 35t35 23.5t43 8.5t43 -8.5t35 -23.5t23.5 -35t8.5 -43t-8.5 -43 t-23.5 -35t-35 -23.5t-43 -8.5t-43 8.5t-35 23.5t-23.5 35t-8.5 43z" unicode="å"/>
<glyph glyph-name="ae" horiz-adv-x="921" unicode="æ" d="M753 305q-3 18 -12 33.5t-23 27t-31.5 18t-36.5 6.5q-38 0 -68.5 -23t-38.5 -62h210zM410 315q-20 27 -51 43.5t-69 16.5q-29 0 -52 -11t-39 -29.5t-25 -42.5t-9 -50q0 -29 9.5 -53t27 -41.5t41 -27.5t50.5 -10q37 0 67.5 16.5t49.5 43.5v145zM874 77 q-35 -42 -88.5 -64.5t-110.5 -22.5q-38 0 -78 13.5t-67 35.5v-39h-115v39q-30 -26 -64 -37.5t-71 -11.5q-54 0 -102.5 22t-80.5 60q-29 33 -45.5 76.5t-16.5 93.5q0 54 18.5 100t51 80t75.5 53.5t93 19.5q42 0 77.5 -13t64.5 -36v39h115v-39q21 20 53.5 34.5t70.5 14.5 q48 0 90 -19.5t73.5 -53t50 -79t18.5 -96.5q0 -21 -3 -37h-346q3 -26 14.5 -47t30 -36t42 -23.5t49.5 -8.5q42 0 76 18.5t51 37.5z"/>
<glyph glyph-name="ccedilla" horiz-adv-x="540" unicode="ç" d="M165 242q0 -29 10 -53t27.5 -41.5t42 -27.5t54.5 -10q40 0 70 20t46 44l100 -75q-69 -92 -172 -105l-27 -144h-130l58 145q-46 8 -84.5 30t-66 55t-43 74t-15.5 88q0 53 20 99t55 80.5t82.5 54t103.5 19.5q63 0 116.5 -26.5t87.5 -70.5l-92 -81q-20 26 -48.5 42t-63.5 16 q-28 0 -52 -10.5t-41.5 -28.5t-27.5 -42t-10 -52z"/>
<glyph glyph-name="egrave" horiz-adv-x="535" unicode="è" d="M367 305q-2 16 -9.5 31.5t-20 27.5t-29.5 19t-37 7q-41 0 -70 -26t-34 -59h200zM488 77q-35 -42 -88.5 -64.5t-110.5 -22.5q-54 0 -100.5 18t-80.5 51t-53.5 79.5t-19.5 103.5q0 51 16.5 96.5t47.5 80.5t74.5 55.5t97.5 20.5q50 0 92 -20t72.5 -53.5t47.5 -78.5t17 -96 q0 -21 -3 -37h-336q3 -26 14 -47t28.5 -36t40 -23.5t48.5 -8.5q42 0 73.5 18.5t48.5 37.5zM257 720l70 -160h-90l-120 160h140z"/>
<glyph glyph-name="eacute" horiz-adv-x="535" unicode="é" d="M367 305q-2 16 -9.5 31.5t-20 27.5t-29.5 19t-37 7q-41 0 -70 -26t-34 -59h200zM488 77q-35 -42 -88.5 -64.5t-110.5 -22.5q-54 0 -100.5 18t-80.5 51t-53.5 79.5t-19.5 103.5q0 51 16.5 96.5t47.5 80.5t74.5 55.5t97.5 20.5q50 0 92 -20t72.5 -53.5t47.5 -78.5t17 -96 q0 -21 -3 -37h-336q3 -26 14 -47t28.5 -36t40 -23.5t48.5 -8.5q42 0 73.5 18.5t48.5 37.5zM437 720l-120 -160h-90l70 160h140z"/>
<glyph glyph-name="ecircumflex" horiz-adv-x="535" unicode="ê" d="M367 305q-2 16 -9.5 31.5t-20 27.5t-29.5 19t-37 7q-41 0 -70 -26t-34 -59h200zM488 77q-35 -42 -88.5 -64.5t-110.5 -22.5q-54 0 -100.5 18t-80.5 51t-53.5 79.5t-19.5 103.5q0 51 16.5 96.5t47.5 80.5t74.5 55.5t97.5 20.5q50 0 92 -20t72.5 -53.5t47.5 -78.5t17 -96 q0 -21 -3 -37h-336q3 -26 14 -47t28.5 -36t40 -23.5t48.5 -8.5q42 0 73.5 18.5t48.5 37.5zM347 720l100 -160h-90l-80 90l-80 -90h-90l100 160h140z"/>
<glyph glyph-name="edieresis" horiz-adv-x="535" unicode="ë" d="M367 305q-2 16 -9.5 31.5t-20 27.5t-29.5 19t-37 7q-41 0 -70 -26t-34 -59h200zM488 77q-35 -42 -88.5 -64.5t-110.5 -22.5q-54 0 -100.5 18t-80.5 51t-53.5 79.5t-19.5 103.5q0 51 16.5 96.5t47.5 80.5t74.5 55.5t97.5 20.5q50 0 92 -20t72.5 -53.5t47.5 -78.5t17 -96 q0 -21 -3 -37h-336q3 -26 14 -47t28.5 -36t40 -23.5t48.5 -8.5q42 0 73.5 18.5t48.5 37.5zM302 642q0 33 23.5 55.5t56.5 22.5t56.5 -22.5t23.5 -55.5t-23.5 -55.5t-56.5 -22.5t-56.5 22.5t-23.5 55.5zM92 642q0 33 23.5 55.5t56.5 22.5t56.5 -22.5t23.5 -55.5t-23.5 -55.5 t-56.5 -22.5t-56.5 22.5t-23.5 55.5z"/>
<glyph glyph-name="igrave" horiz-adv-x="280" unicode="ì" d="M205 0h-130v485h130v-485zM126 720l70 -160h-90l-120 160h140z"/>
<glyph glyph-name="iacute" horiz-adv-x="280" unicode="í" d="M205 0h-130v485h130v-485zM295 720l-120 -160h-90l70 160h140z"/>
<glyph glyph-name="icircumflex" horiz-adv-x="280" unicode="î" d="M205 0h-130v485h130v-485zM211 720l100 -160h-90l-80 90l-80 -90h-90l100 160h140z"/>
<glyph glyph-name="idieresis" horiz-adv-x="280" unicode="ï" d="M205 0h-130v485h130v-485zM167 642q0 33 23.5 55.5t56.5 22.5t56.5 -22.5t23.5 -55.5t-23.5 -55.5t-56.5 -22.5t-56.5 22.5t-23.5 55.5zM-43 642q0 33 23.5 55.5t56.5 22.5t56.5 -22.5t23.5 -55.5t-23.5 -55.5t-56.5 -22.5t-56.5 22.5t-23.5 55.5z"/>
<glyph glyph-name="eth" horiz-adv-x="586" unicode="ð" d="M423 242q0 34 -12 60.5t-25 42.5l-9 11q-29 19 -74 19q-62 0 -100 -37t-38 -96q0 -28 9.5 -52t27 -42t41 -28t52.5 -10q28 0 51.5 10.5t40.5 28.5t26.5 42t9.5 51zM184 627l-58 83h151l15 -21l90 51l49 -88l-80 -46l111 -153q16 -22 32 -47t28.5 -52t20.5 -55t8 -57 q0 -52 -19.5 -98t-54 -80t-81 -54t-101.5 -20q-56 0 -103.5 19.5t-82 53.5t-54.5 80t-20 99q0 51 18 96t50.5 79t77.5 54.5t99 22.5l-37 51l-99 -56l-50 87z"/>
<glyph glyph-name="ntilde" horiz-adv-x="620" unicode="ñ" d="M75 0v485h125v-39q28 23 62 36t75 13q51 0 94.5 -21t73.5 -57q24 -29 37 -68t13 -102v-247h-130v257q0 36 -7.5 56.5t-21.5 34.5q-27 27 -73 27q-21 0 -39.5 -6t-33.5 -15t-26.5 -19.5t-18.5 -19.5v-315h-130zM500 704q0 -27 -7 -51.5t-21.5 -42.5t-35 -29t-47.5 -11 q-23 0 -43 8t-38 17t-35 17t-33 8q-18 0 -28 -14.5t-12 -35.5l-80 16q0 27 7 51.5t21.5 42.5t35 29t47.5 11q22 0 42.5 -8t38.5 -17t35 -17t33 -8q18 0 28 14.5t12 35.5z"/>
<glyph glyph-name="ograve" horiz-adv-x="586" unicode="ò" d="M165 242q0 -27 9.5 -51t26 -42t40 -28.5t52.5 -10.5q28 0 52 10.5t40.5 28.5t26 42t9.5 51t-9.5 51.5t-26 42.5t-40.5 28.5t-52 10.5q-29 0 -52.5 -10.5t-40 -28.5t-26 -42.5t-9.5 -51.5zM35 242q0 52 19.5 98.5t54 80.5t82 54t102.5 20t102.5 -20t82 -54t54 -80.5 t19.5 -98.5q0 -53 -19.5 -98.5t-54 -80t-82 -54t-102.5 -19.5t-102.5 19.5t-82 54t-54 80t-19.5 98.5zM268 720l70 -160h-90l-120 160h140z"/>
<glyph glyph-name="oacute" horiz-adv-x="586" unicode="ó" d="M165 242q0 -27 9.5 -51t26 -42t40 -28.5t52.5 -10.5q28 0 52 10.5t40.5 28.5t26 42t9.5 51t-9.5 51.5t-26 42.5t-40.5 28.5t-52 10.5q-29 0 -52.5 -10.5t-40 -28.5t-26 -42.5t-9.5 -51.5zM35 242q0 52 19.5 98.5t54 80.5t82 54t102.5 20t102.5 -20t82 -54t54 -80.5 t19.5 -98.5q0 -53 -19.5 -98.5t-54 -80t-82 -54t-102.5 -19.5t-102.5 19.5t-82 54t-54 80t-19.5 98.5zM458 720l-120 -160h-90l70 160h140z"/>
<glyph glyph-name="ocircumflex" horiz-adv-x="586" unicode="ô" d="M165 242q0 -27 9.5 -51t26 -42t40 -28.5t52.5 -10.5q28 0 52 10.5t40.5 28.5t26 42t9.5 51t-9.5 51.5t-26 42.5t-40.5 28.5t-52 10.5q-29 0 -52.5 -10.5t-40 -28.5t-26 -42.5t-9.5 -51.5zM35 242q0 52 19.5 98.5t54 80.5t82 54t102.5 20t102.5 -20t82 -54t54 -80.5 t19.5 -98.5q0 -53 -19.5 -98.5t-54 -80t-82 -54t-102.5 -19.5t-102.5 19.5t-82 54t-54 80t-19.5 98.5zM363 720l100 -160h-90l-80 90l-80 -90h-90l100 160h140z"/>
<glyph glyph-name="otilde" horiz-adv-x="586" unicode="õ" d="M165 242q0 -27 9.5 -51t26 -42t40 -28.5t52.5 -10.5q28 0 52 10.5t40.5 28.5t26 42t9.5 51t-9.5 51.5t-26 42.5t-40.5 28.5t-52 10.5q-29 0 -52.5 -10.5t-40 -28.5t-26 -42.5t-9.5 -51.5zM35 242q0 52 19.5 98.5t54 80.5t82 54t102.5 20t102.5 -20t82 -54t54 -80.5 t19.5 -98.5q0 -53 -19.5 -98.5t-54 -80t-82 -54t-102.5 -19.5t-102.5 19.5t-82 54t-54 80t-19.5 98.5zM483 704q0 -27 -7 -51.5t-21.5 -42.5t-35 -29t-47.5 -11q-23 0 -43 8t-38 17t-35 17t-33 8q-18 0 -28 -14.5t-12 -35.5l-80 16q0 27 7 51.5t21.5 42.5t35 29t47.5 11 q22 0 42.5 -8t38.5 -17t35 -17t33 -8q18 0 28 14.5t12 35.5z"/>
<glyph glyph-name="odieresis" horiz-adv-x="586" unicode="ö" d="M165 242q0 -27 9.5 -51t26 -42t40 -28.5t52.5 -10.5q28 0 52 10.5t40.5 28.5t26 42t9.5 51t-9.5 51.5t-26 42.5t-40.5 28.5t-52 10.5q-29 0 -52.5 -10.5t-40 -28.5t-26 -42.5t-9.5 -51.5zM35 242q0 52 19.5 98.5t54 80.5t82 54t102.5 20t102.5 -20t82 -54t54 -80.5 t19.5 -98.5q0 -53 -19.5 -98.5t-54 -80t-82 -54t-102.5 -19.5t-102.5 19.5t-82 54t-54 80t-19.5 98.5zM318 642q0 33 23.5 55.5t56.5 22.5t56.5 -22.5t23.5 -55.5t-23.5 -55.5t-56.5 -22.5t-56.5 22.5t-23.5 55.5zM108 642q0 33 23.5 55.5t56.5 22.5t56.5 -22.5t23.5 -55.5 t-23.5 -55.5t-56.5 -22.5t-56.5 22.5t-23.5 55.5z"/>
<glyph glyph-name="divide" horiz-adv-x="550" unicode="÷" d="M200 103q0 31 22 52t53 21t53 -21t22 -52t-22 -52t-53 -21t-53 21t-22 52zM200 457q0 31 22 52t53 21t53 -21t22 -52t-22 -52t-53 -21t-53 21t-22 52zM505 335v-110h-460v110h460z"/>
<glyph glyph-name="oslash" horiz-adv-x="586" unicode="ø" d="M165 242q0 -28 9 -50l150 179q-13 4 -31 4q-29 0 -52.5 -10.5t-40 -28.5t-26 -42.5t-9.5 -51.5zM421 242q0 27 -9 51l-151 -180q15 -3 32 -3q28 0 52 10.5t40.5 28.5t26 42t9.5 51zM580 495l-82 -98q25 -32 39 -71.5t14 -83.5q0 -53 -19.5 -98.5t-54 -80t-82 -54 t-102.5 -19.5q-67 0 -121 28l-23 -28h-143l81 98q-25 32 -38.5 71t-13.5 83q0 52 19.5 98.5t54 80.5t82 54t102.5 20q65 0 121 -28l23 28h143z"/>
<glyph glyph-name="ugrave" horiz-adv-x="610" unicode="ù" d="M535 485v-485h-125v39q-29 -26 -62.5 -37.5t-68.5 -11.5q-51 0 -93.5 21.5t-71.5 56.5q-23 29 -36 67.5t-13 92.5v257h130v-262q0 -33 6.5 -51.5t17.5 -31.5q15 -17 34.5 -23.5t38.5 -6.5q21 0 38.5 6t32 15t25 19.5t17.5 19.5v315h130zM280 720l70 -160h-90l-120 160 h140z"/>
<glyph glyph-name="uacute" horiz-adv-x="610" unicode="ú" d="M535 485v-485h-125v39q-29 -26 -62.5 -37.5t-68.5 -11.5q-51 0 -93.5 21.5t-71.5 56.5q-23 29 -36 67.5t-13 92.5v257h130v-262q0 -33 6.5 -51.5t17.5 -31.5q15 -17 34.5 -23.5t38.5 -6.5q21 0 38.5 6t32 15t25 19.5t17.5 19.5v315h130zM470 720l-120 -160h-90l70 160 h140z"/>
<glyph glyph-name="ucircumflex" horiz-adv-x="610" unicode="û" d="M535 485v-485h-125v39q-29 -26 -62.5 -37.5t-68.5 -11.5q-51 0 -93.5 21.5t-71.5 56.5q-23 29 -36 67.5t-13 92.5v257h130v-262q0 -33 6.5 -51.5t17.5 -31.5q15 -17 34.5 -23.5t38.5 -6.5q21 0 38.5 6t32 15t25 19.5t17.5 19.5v315h130zM370 720l100 -160h-90l-80 90 l-80 -90h-90l100 160h140z"/>
<glyph glyph-name="udieresis" horiz-adv-x="610" unicode="ü" d="M535 485v-485h-125v39q-29 -26 -62.5 -37.5t-68.5 -11.5q-51 0 -93.5 21.5t-71.5 56.5q-23 29 -36 67.5t-13 92.5v257h130v-262q0 -33 6.5 -51.5t17.5 -31.5q15 -17 34.5 -23.5t38.5 -6.5q21 0 38.5 6t32 15t25 19.5t17.5 19.5v315h130zM325 642q0 33 23.5 55.5 t56.5 22.5t56.5 -22.5t23.5 -55.5t-23.5 -55.5t-56.5 -22.5t-56.5 22.5t-23.5 55.5zM115 642q0 33 23.5 55.5t56.5 22.5t56.5 -22.5t23.5 -55.5t-23.5 -55.5t-56.5 -22.5t-56.5 22.5t-23.5 55.5z"/>
<glyph glyph-name="yacute" horiz-adv-x="573" unicode="ý" d="M93 -240l134 289l-217 436h143l142 -291l131 291h137l-334 -725h-136zM460 720l-120 -160h-90l70 160h140z"/>
<glyph glyph-name="thorn" d="M205 170q19 -27 49.5 -43.5t67.5 -16.5q27 0 50.5 10t41 27.5t27 41.5t9.5 53q0 26 -9 50t-25 42.5t-39.5 29.5t-51.5 11q-38 0 -69 -16.5t-51 -43.5v-145zM205 710v-260q57 45 137 45q49 0 92.5 -19.5t76 -53.5t51 -80t18.5 -100q0 -50 -16 -93.5t-45 -76.5 q-32 -38 -81 -60t-103 -22q-73 0 -130 44v-274h-130v950h130z" unicode="þ"/>
<glyph glyph-name="ydieresis" horiz-adv-x="573" unicode="ÿ" d="M93 -240l134 289l-217 436h143l142 -291l131 291h137l-334 -725h-136zM315 642q0 33 23.5 55.5t56.5 22.5t56.5 -22.5t23.5 -55.5t-23.5 -55.5t-56.5 -22.5t-56.5 22.5t-23.5 55.5zM105 642q0 33 23.5 55.5t56.5 22.5t56.5 -22.5t23.5 -55.5t-23.5 -55.5t-56.5 -22.5 t-56.5 22.5t-23.5 55.5z"/>
<glyph glyph-name="dotlessi" horiz-adv-x="280" unicode="ı" d="M205 0h-130v485h130v-485z"/>
<glyph glyph-name="OE" horiz-adv-x="1095" unicode="Œ" d="M165 350q0 -50 17.5 -93.5t48 -76t72.5 -51.5t92 -19q49 0 91.5 19t73 51.5t48 76t17.5 93.5q0 49 -17.5 93t-48 76.5t-73 51.5t-91.5 19q-50 0 -92 -19t-72.5 -51.5t-48 -76.5t-17.5 -93zM760 580v-145h225v-120h-225v-195h295v-120h-430v69q-46 -38 -104 -58.5 t-126 -20.5q-79 0 -146 28.5t-115.5 77t-76 114t-27.5 140.5t27.5 140.5t76 114t115.5 77t146 28.5q68 0 126 -21t104 -58v69h420v-120h-285z"/>
<glyph glyph-name="oe" horiz-adv-x="921" unicode="œ" d="M753 305q-2 16 -9.5 31.5t-20 27.5t-29.5 19t-37 7q-41 0 -70 -26t-34 -59h200zM165 242q0 -27 9.5 -51t26 -42t40 -28.5t52.5 -10.5q28 0 52 10.5t40.5 28.5t26 42t9.5 51t-9.5 51.5t-26 42.5t-40.5 28.5t-52 10.5q-29 0 -52.5 -10.5t-40 -28.5t-26 -42.5t-9.5 -51.5z M874 77q-35 -42 -88.5 -64.5t-110.5 -22.5q-62 0 -111 22t-81 64q-33 -38 -81.5 -62t-108.5 -24q-55 0 -102.5 19.5t-82 54t-54 80t-19.5 98.5q0 52 19.5 98.5t54 80.5t82 54t102.5 20q60 0 108 -23.5t81 -62.5q29 39 73 62.5t102 23.5q50 0 92 -20t72.5 -53.5t47.5 -78.5 t17 -96q0 -21 -3 -37h-336q3 -26 14 -47t28.5 -36t40 -23.5t48.5 -8.5q42 0 73.5 18.5t48.5 37.5z"/>
<glyph glyph-name="Scaron" horiz-adv-x="535" unicode="Š" d="M98 187q30 -33 73.5 -55t91.5 -22q45 0 73.5 25t28.5 63q0 34 -22 54.5t-55 36.5t-72.5 30t-74.5 35q-41 24 -70 62t-29 97q0 47 20 83.5t52 62t73.5 38.5t85.5 13q54 0 103.5 -14.5t99.5 -51.5l-70 -100q-21 20 -53.5 33t-67.5 13q-19 0 -38.5 -4.5t-35 -13.5t-25 -23.5 t-9.5 -34.5q0 -28 24 -46t60 -33t77.5 -31.5t77.5 -42t60 -64t24 -97.5q0 -47 -19.5 -85.5t-52 -66t-75.5 -43t-90 -15.5q-71 0 -135 27.5t-118 77.5zM195 760l-100 160h90l80 -90l80 90h90l-100 -160h-140z"/>
<glyph glyph-name="scaron" horiz-adv-x="460" unicode="š" d="M90 148q25 -23 60.5 -35.5t72.5 -12.5q26 0 44 11.5t18 29.5t-17.5 29.5t-43.5 21t-56.5 20t-56.5 27t-43.5 41.5t-17.5 64q0 35 15.5 63t41.5 47.5t59.5 30t69.5 10.5q24 0 48 -4t45.5 -11t40 -16t30.5 -18l-61 -94q-19 14 -43 23.5t-50 9.5q-27 0 -46.5 -10t-19.5 -29 q0 -16 17.5 -25.5t43.5 -18.5t56.5 -19.5t56.5 -28.5t43.5 -45t17.5 -69q0 -35 -16 -62.5t-42.5 -47t-61.5 -30t-73 -10.5q-51 0 -101.5 16.5t-93.5 48.5zM161 560l-100 160h90l80 -90l80 90h90l-100 -160h-140z"/>
<glyph glyph-name="Ydieresis" horiz-adv-x="625" unicode="Ÿ" d="M380 317v-317h-135v317l-240 383h154l154 -246l153 246h154zM338 842q0 33 23.5 55.5t56.5 22.5t56.5 -22.5t23.5 -55.5t-23.5 -55.5t-56.5 -22.5t-56.5 22.5t-23.5 55.5zM128 842q0 33 23.5 55.5t56.5 22.5t56.5 -22.5t23.5 -55.5t-23.5 -55.5t-56.5 -22.5t-56.5 22.5 t-23.5 55.5z"/>
<glyph glyph-name="Zcaron" d="M40 80l340 500h-310v120h490v-80l-341 -500h361v-120h-540v80zM240 760l-100 160h90l80 -90l80 90h90l-100 -160h-140z" unicode="Ž"/>
<glyph glyph-name="zcaron" horiz-adv-x="530" unicode="ž" d="M460 405l-235 -295h255v-110h-430v80l232 295h-212v110h390v-80zM195 560l-100 160h90l80 -90l80 90h90l-100 -160h-140z"/>
<glyph glyph-name="florin" horiz-adv-x="536" unicode="ƒ" d="M-50 -121q10 -4 27.5 -9t38.5 -5q45 0 75.5 24t44.5 69q9 30 16.5 69t13.5 83t11.5 91t11.5 94h-160v110h174q6 41 12.5 76.5t14.5 61.5q15 48 39 82t55.5 55t69 30.5t79.5 9.5q21 0 49 -5.5t50 -15.5l-33 -108q-10 4 -27.5 9t-38.5 5q-45 0 -75.5 -24t-44.5 -69 q-8 -23 -13.5 -49.5t-10.5 -57.5h170v-110h-186q-6 -51 -12 -104t-12.5 -101.5t-13.5 -90.5t-16 -72q-15 -48 -39 -82t-55.5 -55t-69 -30.5t-79.5 -9.5q-21 0 -49 5.5t-50 15.5z"/>
<glyph glyph-name="uni0237" horiz-adv-x="320" unicode="ȷ" d="M0 -125q7 -2 18 -3.5t16 -1.5q41 0 62 22q10 11 14.5 29t4.5 54v510h130v-510q0 -55 -8 -90.5t-27 -62.5q-23 -32 -62.5 -52t-102.5 -20q-20 0 -37 2.5t-28 4.5z"/>
<glyph glyph-name="circumflex" horiz-adv-x="480" unicode="ˆ" d="M310 720l100 -160h-90l-80 90l-80 -90h-90l100 160h140z"/>
<glyph glyph-name="caron" horiz-adv-x="480" unicode="ˇ" d="M170 560l-100 160h90l80 -90l80 90h90l-100 -160h-140z"/>
<glyph glyph-name="uni02C9" horiz-adv-x="500" unicode="ˉ" d="M390 690v-100h-320v100h320z"/>
<glyph glyph-name="breve" horiz-adv-x="440" unicode="˘" d="M370 720q0 -31 -12 -58.5t-32 -47.5t-47.5 -32t-58.5 -12t-58.5 12t-47.5 32t-32 47.5t-12 58.5h105q0 -19 13 -32t32 -13t32 13t13 32h105z"/>
<glyph glyph-name="dotaccent" horiz-adv-x="310" unicode="˙" d="M70 657q0 35 25 59t60 24t60 -24t25 -59t-25 -59t-60 -24t-60 24t-25 59z"/>
<glyph glyph-name="ring" horiz-adv-x="360" unicode="˚" d="M150 650q0 -13 8.5 -21.5t21.5 -8.5t21.5 8.5t8.5 21.5t-8.5 21.5t-21.5 8.5t-21.5 -8.5t-8.5 -21.5zM70 650q0 23 8.5 43t23.5 35t35 23.5t43 8.5t43 -8.5t35 -23.5t23.5 -35t8.5 -43t-8.5 -43t-23.5 -35t-35 -23.5t-43 -8.5t-43 8.5t-35 23.5t-23.5 35t-8.5 43z"/>
<glyph glyph-name="ogonek" horiz-adv-x="340" unicode="˛" d="M223 10q-4 -5 -9.5 -13t-11 -18t-9 -21t-3.5 -21q0 -18 11 -30t29 -12q10 0 16.5 1.5t8.5 2.5l15 -109q-6 -3 -23 -6.5t-42 -3.5q-63 0 -99 34.5t-36 85.5q0 22 4.5 40t10.5 31.5t12.5 23.5t10.5 15h115z"/>
<glyph glyph-name="tilde" horiz-adv-x="520" unicode="˜" d="M450 704q0 -27 -7 -51.5t-21.5 -42.5t-35 -29t-47.5 -11q-23 0 -43 8t-38 17t-35 17t-33 8q-18 0 -28 -14.5t-12 -35.5l-80 16q0 27 7 51.5t21.5 42.5t35 29t47.5 11q22 0 42.5 -8t38.5 -17t35 -17t33 -8q18 0 28 14.5t12 35.5z"/>
<glyph glyph-name="hungarumlaut" horiz-adv-x="570" unicode="˝" d="M500 720l-120 -160h-90l70 160h140zM280 720l-120 -160h-90l70 160h140z"/>
<glyph glyph-name="uni0312" horiz-adv-x="350" unicode="̒" d="M70 560l120 160h90l-70 -160h-140z"/>
<glyph glyph-name="endash" horiz-adv-x="520" unicode="–" d="M505 315v-110h-490v110h490z"/>
<glyph glyph-name="emdash" horiz-adv-x="820" unicode="—" d="M805 315v-110h-790v110h790z"/>
<glyph glyph-name="quoteleft" horiz-adv-x="325" unicode="‘" d="M50 405l120 295h95l-75 -295h-140z"/>
<glyph glyph-name="quoteright" horiz-adv-x="325" unicode="’" d="M275 700l-120 -295h-95l75 295h140z"/>
<glyph glyph-name="quotesinglbase" horiz-adv-x="325" unicode="‚" d="M275 155l-120 -295h-95l75 295h140z"/>
<glyph glyph-name="quotedblleft" horiz-adv-x="565" unicode="“" d="M50 405l120 295h95l-75 -295h-140zM290 405l120 295h95l-75 -295h-140z"/>
<glyph glyph-name="quotedblright" horiz-adv-x="565" unicode="”" d="M515 700l-120 -295h-95l75 295h140zM275 700l-120 -295h-95l75 295h140z"/>
<glyph glyph-name="quotedblbase" horiz-adv-x="565" unicode="„" d="M515 155l-120 -295h-95l75 295h140zM275 155l-120 -295h-95l75 295h140z"/>
<glyph glyph-name="dagger" horiz-adv-x="550" unicode="†" d="M335 -200h-120v565h-170v110h170v225h120v-225h170v-110h-170v-565z"/>
<glyph glyph-name="daggerdbl" horiz-adv-x="550" unicode="‡" d="M505 206v-110h-170v-296h-120v296h-170v110h170v159h-170v110h170v225h120v-225h170v-110h-170v-159h170z"/>
<glyph glyph-name="bullet" horiz-adv-x="600" unicode="•" d="M80 242q0 45 17.5 85t47.5 70t70 47.5t85 17.5t85 -17.5t70 -47.5t47.5 -70t17.5 -85t-17.5 -85t-47.5 -70t-70 -47.5t-85 -17.5t-85 17.5t-70 47.5t-47.5 70t-17.5 85z"/>
<glyph glyph-name="ellipsis" horiz-adv-x="995" unicode="…" d="M730 75q0 37 25 61.5t62 24.5t62.5 -24.5t25.5 -61.5t-25.5 -61t-62.5 -24t-62 24t-25 61zM420 75q0 37 25 61.5t62 24.5t62.5 -24.5t25.5 -61.5t-25.5 -61t-62.5 -24t-62 24t-25 61zM110 75q0 37 25 61.5t62 24.5t62.5 -24.5t25.5 -61.5t-25.5 -61t-62.5 -24t-62 24 t-25 61z"/>
<glyph glyph-name="perthousand" horiz-adv-x="1225" unicode="‰" d="M224 0l409 700h111l-409 -700h-111zM1055 175q0 31 -19 53t-51 22t-51 -22t-19 -53t19 -53t51 -22t51 22t19 53zM795 175q0 31 -19 53t-51 22t-51 -22t-19 -53t19 -53t51 -22t51 22t19 53zM310 525q0 31 -19 53t-51 22t-51 -22t-19 -53t19 -53t51 -22t51 22t19 53z M50 525q0 38 14.5 72t40 59t60 39.5t75.5 14.5q40 0 75 -14.5t60.5 -39.5t40 -59t14.5 -72t-14.5 -72t-40 -59t-60.5 -39.5t-75 -14.5q-41 0 -75.5 14.5t-60 39.5t-40 59t-14.5 72zM535 175q0 38 14.5 72t40 59t60 39.5t75.5 14.5q38 0 71 -13t59 -36q25 23 58.5 36t71.5 13 q40 0 75 -14.5t60.5 -39.5t40 -59t14.5 -72t-14.5 -72t-40 -59t-60.5 -39.5t-75 -14.5q-38 0 -71.5 13t-58.5 36q-26 -23 -59 -36t-71 -13q-41 0 -75.5 14.5t-60 39.5t-40 59t-14.5 72z"/>
<glyph glyph-name="guilsinglleft" horiz-adv-x="379" unicode="‹" d="M339 437l-156 -190l156 -190h-143l-126 155v70l126 155h143z"/>
<glyph glyph-name="guilsinglright" horiz-adv-x="379" unicode="›" d="M183 437l126 -155v-70l-126 -155h-143l156 190l-156 190h143z"/>
<glyph glyph-name="Euro" horiz-adv-x="650" unicode="€" d="M-5 485h91q17 49 45.5 90.5t67 71.5t85.5 46.5t101 16.5q74 0 132 -31.5t100 -85.5l-97 -79q-24 35 -57.5 55.5t-75.5 20.5q-51 0 -92 -27.5t-64 -77.5h235v-110h-265q-1 -6 -1 -12.5v-12.5v-13t1 -12h265v-110h-237q21 -50 63 -77.5t95 -27.5q51 0 89.5 24.5t63.5 66.5 l100 -75q-45 -61 -105.5 -98.5t-147.5 -37.5q-55 0 -102.5 16t-86.5 45.5t-67.5 71t-45.5 92.5h-90v110h70v50h-70v110z"/>
<glyph glyph-name="trademark" horiz-adv-x="880" unicode="™" d="M609 483l148 217h53v-383h-89v183l-91 -131h-44l-91 131v-183h-89v383h54zM357 700v-80h-100v-303h-87v303h-100v80h287z"/>
<glyph glyph-name="fi" horiz-adv-x="720" unicode="ﬁ" d="M495 657q0 35 25 59t60 24t60 -24t25 -59t-25 -59t-60 -24t-60 24t-25 59zM405 600q-8 2 -19 3.5t-20 1.5q-49 0 -73 -28q-8 -11 -13 -27t-5 -50v-15h370v-485h-130v375h-240v-375h-130v375h-125v110h125v20q0 59 13 96t39 62t63.5 41t87.5 16q20 0 38.5 -2t38.5 -7z"/>
<glyph glyph-name="fl" horiz-adv-x="720" unicode="ﬂ" d="M405 600q-8 2 -19 3.5t-20 1.5q-49 0 -73 -28q-8 -11 -13 -27t-5 -50v-15h240v225h130v-710h-130v375h-240v-375h-130v375h-125v110h125v20q0 59 13 96t39 62t63.5 41t87.5 16q20 0 38.5 -2t38.5 -7z"/>
<glyph glyph-name="uniFB03" horiz-adv-x="1090" unicode="ﬃ" d="M865 657q0 35 25 59t60 24t60 -24t25 -59t-25 -59t-60 -24t-60 24t-25 59zM775 600q-8 2 -19 3.5t-20 1.5q-49 0 -73 -28q-8 -11 -13 -27t-5 -50v-15h370v-485h-130v375h-240v-375h-130v375h-240v-375h-130v375h-125v110h125v20q0 59 13 96t39 62t63.5 41t87.5 16 q20 0 38.5 -2t38.5 -7l-20 -111q-8 2 -19 3.5t-20 1.5q-49 0 -73 -28q-8 -11 -13 -27t-5 -50v-15h240v20q0 59 13 96t39 62t63.5 41t87.5 16q20 0 38.5 -2t38.5 -7z"/>
<glyph glyph-name="uniFB04" horiz-adv-x="1090" unicode="ﬄ" d="M775 600q-8 2 -19 3.5t-20 1.5q-49 0 -73 -28q-8 -11 -13 -27t-5 -50v-15h240v225h130v-710h-130v375h-240v-375h-130v375h-240v-375h-130v375h-125v110h125v20q0 59 13 96t39 62t63.5 41t87.5 16q20 0 38.5 -2t38.5 -7l-20 -111q-8 2 -19 3.5t-20 1.5q-49 0 -73 -28 q-8 -11 -13 -27t-5 -50v-15h240v20q0 59 13 96t39 62t63.5 41t87.5 16q20 0 38.5 -2t38.5 -7z"/>
</font>
</defs>
</svg>
