<?xml version="1.0" encoding="UTF-8" standalone="no"?>
<!DOCTYPE svg  PUBLIC '-//W3C//DTD SVG 1.1//EN'  'http://www.w3.org/Graphics/SVG/1.1/DTD/svg11.dtd'>
<svg xmlns="http://www.w3.org/2000/svg" xmlns:xlink="http://www.w3.org/1999/xlink" version="1.1">
<defs>
<font id="Brown-Regular" horiz-adv-x="596">
<font-face slope="10" underline-position="-180" font-weight="400" descent="-200" panose-1="2 0 0 0 0 0 0 0 0 0" units-per-em="1000" unicode-range="U+0020-FB04" bbox="-118 -250 1115 930" x-height="460" underline-thickness="80" font-family="Brown" ascent="800" font-style="italic" cap-height="700"/>
<missing-glyph d="M170 90h199v520h-199v-520zM75 700h389v-700h-389v700z" horiz-adv-x="539"/>
<glyph glyph-name=".notdef" d="M170 90h199v520h-199v-520zM75 700h389v-700h-389v700z" horiz-adv-x="539"/>
<glyph glyph-name=".null" horiz-adv-x="0"/>
<glyph glyph-name="nonmarkingreturn" horiz-adv-x="260"/>
<glyph glyph-name="space" horiz-adv-x="260" unicode=" "/>
<glyph glyph-name="exclam" horiz-adv-x="345" unicode="!" d="M273 60q0 -29 -20.5 -49.5t-49.5 -20.5t-49.5 20.5t-20.5 49.5t20.5 49.5t49.5 20.5t49.5 -20.5t20.5 -49.5zM207 220h-66l-58 240l-42 240h96l42 -240z"/>
<glyph glyph-name="quotedbl" horiz-adv-x="462" unicode='&quot;' d="M127 455h-66l-56 245h96zM327 455h-66l-56 245h96z"/>
<glyph glyph-name="numbersign" horiz-adv-x="664" unicode="#" d="M228 285h137l34 130h-137zM434 195l-53 -195h-93l53 195h-137l-53 -195h-93l53 195h-87l-14 90h125l34 130h-88l-15 90h127l53 195h93l-53 -195h137l53 195h93l-53 -195h87l15 -90h-126l-34 -130h87l15 -90h-126z"/>
<glyph glyph-name="dollar" horiz-adv-x="536" unicode="$" d="M118 165q30 -33 69 -56.5t91 -23.5q20 0 40.5 6.5t36.5 19.5t26 31t10 42q0 47 -28 74t-70.5 45t-92 33t-92 37.5t-70.5 58.5t-28 97q0 62 38.5 106t96.5 63l-21 117h95l19 -106q54 -3 95 -23t64 -43l-61 -76q-26 25 -54.5 36.5t-59.5 11.5q-18 0 -38 -5t-36.5 -15.5 t-27 -27t-10.5 -38.5q0 -36 28 -57.5t70.5 -38t92 -33.5t92 -43t70.5 -67t28 -106q0 -63 -36 -110.5t-93 -68.5l21 -120h-95l-19 105q-63 2 -118.5 29.5t-102.5 77.5z"/>
<glyph glyph-name="percent" horiz-adv-x="863" unicode="%" d="M228 0l288 700h79l-288 -700h-79zM657 -10q-41 0 -76.5 15t-61.5 41t-40.5 62.5t-14.5 79.5q0 36 13.5 67.5t37.5 54.5t56 36.5t69 13.5q41 0 76.5 -15t61.5 -41t40.5 -62.5t14.5 -79.5q0 -36 -13.5 -67.5t-37.5 -54.5t-56 -36.5t-69 -13.5zM743 167q0 24 -8 43.5t-22 34 t-32.5 22.5t-39.5 8q-39 0 -63 -26t-24 -66q0 -24 8 -43.5t22 -34t32.5 -22.5t39.5 -8q39 0 63 26t24 66zM183 340q-41 0 -76.5 15t-61.5 41t-40.5 62.5t-14.5 79.5q0 36 13.5 67.5t37.5 54.5t56 36.5t69 13.5q41 0 76.5 -15t61.5 -41t40.5 -62.5t14.5 -79.5 q0 -36 -13.5 -67.5t-37.5 -54.5t-56 -36.5t-69 -13.5zM269 517q0 24 -8 43.5t-22 34t-32.5 22.5t-39.5 8q-39 0 -63 -26t-24 -66q0 -24 8 -43.5t22 -34t32.5 -22.5t39.5 -8q39 0 63 26t24 66z"/>
<glyph glyph-name="ampersand" horiz-adv-x="698" unicode="&amp;" d="M276 552q0 29 -19 48.5t-48 19.5t-46.5 -18t-17.5 -43q0 -14 6.5 -28t17 -27.5t24 -26.5t26.5 -24q26 23 41.5 46.5t15.5 52.5zM160 215q0 -30 12.5 -54.5t35 -42.5t52.5 -28t65 -10q42 0 76 14t58 37l-238 203q-25 -23 -43 -53.5t-18 -65.5zM753 0h-140l-83 71 q-36 -36 -87.5 -58.5t-117.5 -22.5q-48 0 -95 15t-83.5 43.5t-59 70.5t-22.5 96q0 55 25 100t60 80q-42 38 -71 77t-29 88q0 32 12 59.5t33.5 47.5t50.5 31.5t63 11.5q31 0 60 -11.5t51.5 -32t36.5 -49.5t14 -64q0 -52 -24.5 -90t-56.5 -70l216 -183q5 22 5 41q0 44 -15 88 t-32 73l89 30q5 -9 14 -26.5t17.5 -42.5t15 -56.5t6.5 -66.5q0 -27 -6.5 -53.5t-17.5 -51.5z"/>
<glyph glyph-name="quotesingle" horiz-adv-x="262" unicode="&apos;" d="M127 455h-66l-56 245h96z"/>
<glyph glyph-name="parenleft" horiz-adv-x="450" unicode="(" d="M387 -210q-51 59 -93.5 123.5t-73 135t-47 146.5t-16.5 158q0 98 22.5 188.5t64.5 168.5l80 -48q-35 -72 -53.5 -150t-18.5 -159q0 -71 15 -139t42 -131.5t65 -122t85 -110.5z"/>
<glyph glyph-name="parenright" horiz-adv-x="450" unicode=")" d="M58 710q51 -59 93.5 -123.5t73 -135t47 -146.5t16.5 -158q0 -98 -22.5 -188.5t-64.5 -168.5l-80 48q35 72 53.5 150t18.5 159q0 70 -15 138t-42 132t-65.5 122.5t-84.5 110.5z"/>
<glyph glyph-name="asterisk" horiz-adv-x="500" unicode="*" d="M132 700h81l27 -156l149 51l26 -75l-136 -48l105 -115l-59 -54l-105 116l-68 -116l-69 39l72 124l-163 53l24 76l142 -46z"/>
<glyph glyph-name="plus" horiz-adv-x="550" unicode="+" d="M69 210l-16 90h170l-30 170h90l30 -170h170l16 -90h-170l29 -170h-90l-29 170h-170z"/>
<glyph glyph-name="comma" horiz-adv-x="340" unicode="," d="M255 120l-95 -260h-65l53 260h107z"/>
<glyph glyph-name="hyphen" horiz-adv-x="453" unicode="-" d="M361 295l14 -80h-290l-14 80h290z"/>
<glyph glyph-name="period" horiz-adv-x="340" unicode="." d="M125 60q0 29 20.5 49.5t49.5 20.5t49.5 -20.5t20.5 -49.5t-20.5 -49.5t-49.5 -20.5t-49.5 20.5t-20.5 49.5z"/>
<glyph glyph-name="slash" horiz-adv-x="308" unicode="/" d="M5 0l205 700h93l-205 -700h-93z"/>
<glyph glyph-name="zero" horiz-adv-x="612" unicode="0" d="M332 -10q-52 0 -94.5 20t-75 54.5t-56.5 80.5t-39 98t-22.5 107t-7.5 107q0 56 13 102.5t39 80t65 52t91 18.5t94.5 -20t75 -54.5t56.5 -80.5t39 -98t22.5 -107t7.5 -107q0 -56 -12.5 -102.5t-38.5 -80t-65 -52t-92 -18.5zM245 615q-32 0 -52.5 -12t-33 -33t-17.5 -50 t-5 -63q0 -36 5 -78t15 -83t25.5 -79.5t37.5 -67.5t49.5 -46.5t62.5 -17.5q31 0 52 12t33.5 33t17.5 50t5 63q0 36 -5 78t-15 83t-25.5 79.5t-37.5 67.5t-49.5 46.5t-62.5 17.5z"/>
<glyph glyph-name="one" horiz-adv-x="406" unicode="1" d="M234 0l-102 581l-123 -68l-16 93l148 94h69l123 -700h-99z"/>
<glyph glyph-name="two" horiz-adv-x="534" unicode="2" d="M-5 561q15 42 39 70.5t52.5 46t58 25t54.5 7.5q54 0 96 -19t71 -50.5t44 -71.5t15 -82q0 -26 -6.5 -52t-17.5 -51t-24.5 -48t-27.5 -42l-140 -199h278l17 -95h-421l-11 65l197 281q31 45 43.5 79.5t12.5 61.5q0 25 -8.5 48t-24 41t-38 28.5t-49.5 10.5q-21 0 -40.5 -7.5 t-35 -20t-26.5 -29.5t-17 -36z"/>
<glyph glyph-name="three" horiz-adv-x="566" unicode="3" d="M269 465q48 -2 91 -21.5t75.5 -52t51.5 -76.5t19 -96q0 -50 -17 -91.5t-48 -72.5t-73.5 -48t-93.5 -17q-71 0 -126.5 29.5t-93.5 84.5l79 54q20 -29 55.5 -51t81.5 -22q60 0 98 37t38 97q0 37 -13.5 66t-36.5 49t-55 30.5t-69 10.5q-30 0 -52 -3t-39 -8l-11 65l126 176 h-249l-17 95h389l12 -65z"/>
<glyph glyph-name="four" horiz-adv-x="597" unicode="4" d="M346 265l-45 251l-156 -251h201zM369 700l77 -435h109l16 -95h-109l30 -170h-99l-30 170h-342l-11 65l290 465h69z"/>
<glyph glyph-name="five" horiz-adv-x="559" unicode="5" d="M401 700l17 -95h-262v-151q17 6 41.5 11t48.5 5q54 0 99.5 -19.5t79 -53.5t52 -80t18.5 -98q0 -48 -17 -90t-47.5 -73t-73 -48.5t-92.5 -17.5q-63 0 -115 23.5t-90 67.5l73 63q23 -25 54.5 -42t74.5 -17q58 0 95.5 35.5t37.5 98.5q0 30 -10.5 58.5t-30 50.5t-46.5 35.5 t-60 13.5q-38 0 -69 -13t-53 -29h-70v365h345z"/>
<glyph glyph-name="six" horiz-adv-x="598" unicode="6" d="M281 375q-26 0 -50.5 -9t-44.5 -23q-14 -30 -21 -55t-7 -54q0 -32 11.5 -59t31.5 -47t46.5 -31.5t56.5 -11.5q28 0 52.5 10.5t42.5 28.5t28.5 43t10.5 54q0 33 -11.5 61t-32 49t-49.5 32.5t-64 11.5zM332 700l-98 -241q32 8 62 8q50 0 94 -18.5t77 -51.5t52 -78t19 -98 q0 -49 -18 -91t-49 -73t-73.5 -49t-91.5 -18q-57 0 -102.5 20.5t-77.5 54t-49 77t-17 89.5q0 35 10 71.5t21 64.5l138 333h103z"/>
<glyph glyph-name="seven" horiz-adv-x="481" unicode="7" d="M104 0l193 605h-325l-17 95h439l12 -65l-202 -635h-100z"/>
<glyph glyph-name="eight" horiz-adv-x="594" unicode="8" d="M154 532q0 -20 8 -37.5t22 -31t32.5 -21t39.5 -7.5q38 0 62 23.5t24 59.5q0 20 -8 37.5t-22 31t-32.5 21t-39.5 7.5q-38 0 -62 -23.5t-24 -59.5zM168 223q0 -28 11 -53t30.5 -44t45.5 -30t55 -11q55 0 88.5 33t33.5 84q0 28 -11 53t-30.5 44t-45.5 30t-55 11 q-55 0 -88.5 -33t-33.5 -84zM442 513q0 -32 -10.5 -59t-30.5 -49q60 -28 95.5 -82.5t35.5 -125.5q0 -42 -16.5 -79.5t-46.5 -66t-70.5 -45t-88.5 -16.5q-51 0 -95 18.5t-76.5 50.5t-51.5 75.5t-19 93.5q0 45 19 83.5t53 66.5q-39 26 -62.5 66.5t-23.5 92.5q0 36 14 67.5 t39 55t59 37t74 13.5q42 0 79 -15t64 -41.5t43 -62.5t16 -78z"/>
<glyph glyph-name="nine" horiz-adv-x="583" unicode="9" d="M277 325q26 0 50.5 9t44.5 23q14 30 21 55t7 54q0 32 -11.5 59t-31.5 47t-46.5 31.5t-56.5 11.5q-28 0 -52.5 -10.5t-42.5 -28.5t-28.5 -43t-10.5 -54q0 -33 11.5 -61t32 -49t49.5 -32.5t64 -11.5zM226 0l98 241q-32 -8 -62 -8q-50 0 -94 18.5t-77 51.5t-52 78t-19 98 q0 49 18 91t49 73t73.5 49t91.5 18q57 0 102.5 -20.5t77.5 -54t49 -77t17 -89.5q0 -35 -10 -71.5t-21 -64.5l-138 -333h-103z"/>
<glyph glyph-name="colon" horiz-adv-x="340" unicode=":" d="M203 400q0 -29 -20.5 -49.5t-49.5 -20.5t-49.5 20.5t-20.5 49.5t20.5 49.5t49.5 20.5t49.5 -20.5t20.5 -49.5zM265 60q0 -29 -20.5 -49.5t-49.5 -20.5t-49.5 20.5t-20.5 49.5t20.5 49.5t49.5 20.5t49.5 -20.5t20.5 -49.5z"/>
<glyph glyph-name="semicolon" horiz-adv-x="340" unicode=";" d="M255 120l-95 -260h-65l53 260h107zM203 400q0 -29 -20.5 -49.5t-49.5 -20.5t-49.5 20.5t-20.5 49.5t20.5 49.5t49.5 20.5t49.5 -20.5t20.5 -49.5z"/>
<glyph glyph-name="less" horiz-adv-x="540" unicode="&lt;" d="M35 285l407 188l16 -92l-258 -119l301 -120l18 -105l-473 188z"/>
<glyph glyph-name="equal" horiz-adv-x="550" unicode="=" d="M53 300l-16 90h430l16 -90h-430zM85 120l-16 90h430l16 -90h-430z"/>
<glyph glyph-name="greater" horiz-adv-x="540" unicode="&gt;" d="M507 225l-407 -188l-16 92l258 119l-301 120l-18 105l473 -188z"/>
<glyph glyph-name="question" horiz-adv-x="505" unicode="?" d="M205 60q0 29 20.5 49.5t49.5 20.5t49.5 -20.5t20.5 -49.5t-20.5 -49.5t-49.5 -20.5t-49.5 20.5t-20.5 49.5zM-10 565q9 35 29 62t47 45.5t59.5 28t66.5 9.5q41 0 77.5 -14.5t63.5 -40t43 -60.5t16 -75q0 -36 -10 -63.5t-24.5 -49.5t-32 -38.5t-32 -30.5t-24.5 -27.5 t-10 -27.5q0 -17 11.5 -28.5t22.5 -19.5l-63 -66q-35 26 -50.5 55t-15.5 61q0 27 10 48t24.5 38t32 32.5t32 32.5t24.5 37t10 47q0 21 -8 39t-22 31.5t-33.5 21.5t-41.5 8q-24 0 -43.5 -7.5t-33.5 -19t-23 -26t-12 -28.5z"/>
<glyph glyph-name="at" horiz-adv-x="1000" unicode="@" d="M483 380q-53 0 -87 -33.5t-34 -86.5q0 -33 12.5 -59t33.5 -44t47.5 -27.5t54.5 -9.5q31 0 62 14t49 37l-29 163q-18 19 -46 32.5t-63 13.5zM505 35q-47 0 -89 17t-74.5 47t-51.5 71t-19 89t18.5 88t50.5 69q26 23 62 36t72 13q31 0 59.5 -8.5t46.5 -21.5l-4 20h84 l44 -253q5 -28 10 -42.5t11 -22.5q8 -9 15.5 -13t20.5 -4q35 0 57 42t22 113t-24 131.5t-68 104.5t-105.5 69t-136.5 25q-72 0 -135 -28t-110 -76t-74 -113t-27 -138q0 -74 27 -138.5t74.5 -112.5t110.5 -76t135 -28q58 0 109.5 18.5t95.5 50.5l48 -70q-52 -40 -116.5 -62 t-136.5 -22q-91 0 -170.5 34.5t-139 94.5t-93.5 140t-34 171t34 171t93.5 140t139 94.5t170.5 34.5q90 0 167.5 -31t134.5 -86t89 -131t32 -167q0 -50 -12 -93.5t-34.5 -76t-54 -51.5t-70.5 -19q-35 0 -63.5 15t-43.5 43q-9 -9 -23 -19t-33 -19t-42 -14.5t-49 -5.5z"/>
<glyph glyph-name="A" horiz-adv-x="643" unicode="A" d="M259 532l-61 -257h212zM571 0l-105 180h-290l-43 -180h-99l167 700h69l413 -700h-112z"/>
<glyph glyph-name="B" horiz-adv-x="634" unicode="B" d="M212 95h167q39 0 61 12t35 30q19 28 19 67q0 30 -13.5 56.5t-36.5 43.5q-15 12 -35.5 19t-55.5 7h-182zM284 425q29 0 44 4.5t26 13.5q13 11 20.5 28t7.5 37q0 23 -11 43.5t-29 34.5q-11 9 -27.5 14t-45.5 5h-146l32 -180h129zM268 700q38 0 63 -5.5t45 -15.5 q48 -24 77 -71.5t29 -105.5q0 -26 -7.5 -50t-20.5 -44q31 -12 57 -33.5t44.5 -49t28.5 -60t10 -67.5q0 -42 -15 -78t-42 -62.5t-63 -42t-78 -15.5h-266l-123 700h261z"/>
<glyph glyph-name="C" horiz-adv-x="705" unicode="C" d="M410 -10q-82 0 -152 30t-121.5 81.5t-80.5 120.5t-29 147q0 72 25.5 134t72 108t110 72.5t140.5 26.5q66 0 120.5 -20t105.5 -59l-56 -77q-35 29 -78 45t-89 16q-51 0 -97 -18t-80 -51t-54 -78t-20 -99q0 -58 21 -109.5t58.5 -90.5t89.5 -61.5t114 -22.5q69 0 121.5 25.5 t90.5 73.5l78 -57q-49 -68 -126 -102.5t-164 -34.5z"/>
<glyph glyph-name="D" horiz-adv-x="731" unicode="D" d="M130 0l-123 700h259q89 0 162.5 -28t125.5 -82q51 -52 80.5 -119t29.5 -141q0 -68 -23.5 -129t-68.5 -107q-46 -46 -109.5 -70t-148.5 -24h-184zM314 95q62 0 107.5 16.5t77.5 49.5t48.5 77.5t16.5 92.5q0 53 -21.5 103.5t-59.5 88.5q-39 38 -92 60t-124 22h-144l90 -510 h101z"/>
<glyph glyph-name="E" horiz-adv-x="545" unicode="E" d="M130 0l-123 700h400l17 -95h-302l32 -180h231l17 -95h-232l42 -235h311l17 -95h-410z"/>
<glyph glyph-name="F" horiz-adv-x="504" unicode="F" d="M130 0l-123 700h400l17 -95h-302l32 -180h231l17 -95h-232l59 -330h-99z"/>
<glyph glyph-name="G" horiz-adv-x="750" unicode="G" d="M647 425l53 -298q-46 -65 -117.5 -101t-162.5 -36q-82 0 -153.5 30t-125 81.5t-84 120.5t-30.5 147q0 73 26 135.5t71.5 108t108.5 71.5t137 26q70 0 126 -22.5t107 -65.5l-65 -68q-37 30 -80 45.5t-88 15.5q-53 0 -97.5 -18.5t-76.5 -51.5t-50.5 -78t-18.5 -98 q0 -58 22.5 -109.5t62 -90.5t93 -61.5t115.5 -22.5t102.5 18.5t73.5 49.5l-32 177h-200l-16 95h299z"/>
<glyph glyph-name="H" horiz-adv-x="762" unicode="H" d="M616 0l-58 330h-387l58 -330h-99l-123 700h99l49 -275h387l-49 275h99l123 -700h-99z"/>
<glyph glyph-name="I" horiz-adv-x="276" unicode="I" d="M130 0l-123 700h99l123 -700h-99z"/>
<glyph glyph-name="J" horiz-adv-x="459" unicode="J" d="M107 141q16 -24 41 -40t57 -16q38 0 61 24t23 67q0 6 -1 19t-3 20l-85 485h99l86 -490q2 -11 3 -21t1 -20q0 -41 -13.5 -74t-38 -56t-57.5 -36t-72 -13q-57 0 -105.5 25t-77.5 74z"/>
<glyph glyph-name="K" horiz-adv-x="645" unicode="K" d="M130 0l-123 700h99l52 -297l260 297h129l-273 -314l426 -386h-144l-389 351l62 -351h-99z"/>
<glyph glyph-name="L" horiz-adv-x="525" unicode="L" d="M130 0l-123 700h99l106 -605h311l17 -95h-410z"/>
<glyph glyph-name="M" horiz-adv-x="847" unicode="M" d="M701 0l-83 478l-144 -328h-69l-257 312l81 -462h-99l-123 700h69l348 -425l184 425h69l123 -700h-99z"/>
<glyph glyph-name="N" horiz-adv-x="768" unicode="N" d="M140 505l89 -505h-99l-123 700h69l512 -504l-89 504h99l123 -700h-69z"/>
<glyph glyph-name="O" horiz-adv-x="810" unicode="O" d="M405 -10q-72 0 -141.5 29t-123.5 84q-53 54 -83 123t-30 144q0 70 24 132.5t71 110.5q48 48 110 72.5t133 24.5q72 0 141.5 -29t123.5 -84q53 -54 83 -123t30 -144q0 -70 -24 -132.5t-71 -110.5q-48 -48 -110 -72.5t-133 -24.5zM366 615q-49 0 -93.5 -17t-78.5 -52 t-50.5 -80.5t-16.5 -96.5q0 -54 22 -106.5t62 -92.5q41 -40 90 -62.5t103 -22.5q49 0 93.5 17t78.5 52t50.5 80.5t16.5 96.5q0 54 -22 106.5t-62 92.5q-41 40 -90 62.5t-103 22.5z"/>
<glyph glyph-name="P" horiz-adv-x="600" unicode="P" d="M123 605l35 -200h154q32 0 49 5t28 15q14 12 22.5 30.5t8.5 41.5q0 26 -12 49t-32 38q-13 10 -31 15.5t-50 5.5h-172zM130 0l-123 700h287q41 0 67 -5.5t47 -16.5q51 -26 81.5 -75.5t30.5 -111.5q0 -47 -20.5 -85t-55.5 -63q-22 -16 -51.5 -24.5t-74.5 -8.5h-144l55 -310 h-99z"/>
<glyph glyph-name="Q" horiz-adv-x="815" unicode="Q" d="M466 350l148 -144q29 58 29 125q0 54 -22 106.5t-62 92.5q-41 40 -90 62.5t-103 22.5q-49 0 -93.5 -17t-78.5 -52t-50.5 -80.5t-16.5 -96.5q0 -54 22 -106.5t62 -92.5q41 -40 90 -62.5t103 -22.5q42 0 80.5 12.5t70.5 37.5l-151 148zM405 -10q-72 0 -141.5 29t-123.5 84 q-53 54 -83 123t-30 144q0 70 24 132.5t71 110.5q48 48 110 72.5t133 24.5q72 0 141.5 -29t123.5 -84q53 -54 83 -123t30 -144q0 -54 -14.5 -103.5t-41.5 -91.5l139 -135h-132l-68 66q-46 -38 -102 -57t-119 -19z"/>
<glyph glyph-name="R" horiz-adv-x="646" unicode="R" d="M123 605l31 -180h144q29 0 44 4.5t26 13.5q13 11 20.5 28t7.5 37q0 23 -11 43.5t-29 34.5q-11 9 -27.5 14t-45.5 5h-160zM130 0l-123 700h275q38 0 63 -5.5t45 -15.5q48 -24 77 -71t29 -106q0 -45 -19.5 -81t-52.5 -60q-25 -19 -59 -26l311 -335h-132l-308 330h-65 l58 -330h-99z"/>
<glyph glyph-name="S" horiz-adv-x="536" unicode="S" d="M118 165q30 -33 69 -56.5t91 -23.5q20 0 40.5 6.5t36.5 19.5t26 31t10 42q0 47 -28 74t-70.5 45t-92 33t-92 37.5t-70.5 58.5t-28 97q0 40 17.5 73.5t47 57.5t68 37t79.5 13q60 0 105 -21.5t70 -45.5l-61 -76q-26 25 -54.5 36.5t-59.5 11.5q-18 0 -38 -5t-36.5 -15.5 t-27 -27t-10.5 -38.5q0 -36 28 -57.5t70.5 -38t92 -33.5t92 -43t70.5 -67t28 -106q0 -42 -17 -77.5t-46 -61.5t-67.5 -40.5t-81.5 -14.5q-66 0 -124 28t-107 79z"/>
<glyph glyph-name="T" horiz-adv-x="504" unicode="T" d="M422 605h-185l106 -605h-99l-106 605h-185l-17 95h469z"/>
<glyph glyph-name="U" horiz-adv-x="726" unicode="U" d="M473 700h99l68 -390q4 -22 6.5 -41t2.5 -39q0 -52 -21 -96t-57 -76t-84 -50t-103 -18q-135 0 -214 74.5t-104 217.5l-73 418h99l73 -415q18 -103 72.5 -151.5t140.5 -48.5q36 0 67 10.5t54 30.5t36.5 48.5t13.5 65.5q0 13 -1.5 30.5t-4.5 34.5z"/>
<glyph glyph-name="V" horiz-adv-x="623" unicode="V" d="M541 700l-152 -700h-69l-398 700h111l296 -523l112 523h100z"/>
<glyph glyph-name="W" horiz-adv-x="963" unicode="W" d="M704 0l-270 516l-82 -516h-69l-343 700h109l243 -501l79 501h69l265 -504l68 504h98l-98 -700h-69z"/>
<glyph glyph-name="X" horiz-adv-x="647" unicode="X" d="M556 0l-257 307l-144 -307h-110l177 377l-270 323h129l200 -239l111 239h110l-144 -309l327 -391h-129z"/>
<glyph glyph-name="Y" horiz-adv-x="554" unicode="Y" d="M492 700l-173 -380l56 -320h-99l-53 305l-321 395h124l231 -285l129 285h106z"/>
<glyph glyph-name="Z" horiz-adv-x="588" unicode="Z" d="M-25 700h469l12 -65l-278 -540h393l17 -95h-521l-11 65l279 540h-343z"/>
<glyph glyph-name="bracketleft" horiz-adv-x="450" unicode="[" d="M85 700h251l16 -90h-155l126 -720h155l16 -90h-251z"/>
<glyph glyph-name="backslash" horiz-adv-x="565" unicode="\" d="M454 0l-449 700h106l449 -700h-106z"/>
<glyph glyph-name="bracketright" horiz-adv-x="450" unicode="]" d="M360 -200h-251l-16 90h155l-126 720h-155l-16 90h251z"/>
<glyph glyph-name="asciicircum" horiz-adv-x="590" unicode="^" d="M377 350l-147 214l-71 -214h-94l115 350h65l240 -350h-108z"/>
<glyph glyph-name="underscore" horiz-adv-x="483" unicode="_" d="M503 0l14 -80h-440l-14 80h440z"/>
<glyph glyph-name="grave" horiz-adv-x="310" unicode="`" d="M175 540l-105 150h105l65 -150h-65z"/>
<glyph glyph-name="a" d="M406 325q-23 24 -57.5 39.5t-67.5 15.5q-30 0 -55.5 -9.5t-44 -27.5t-29 -43t-10.5 -55q0 -36 14 -66.5t37.5 -52.5t54 -34t64.5 -12q36 0 70 14.5t56 40.5zM387 460h91l81 -460h-91l-9 47q-11 -9 -25 -19t-33 -18.5t-43.5 -14t-55.5 -5.5t-60.5 7t-55.5 20 q-34 17 -60 42.5t-43.5 56.5t-26.5 65t-9 69q0 46 17 86t46.5 70t69 47t84.5 17q38 0 71.5 -11t57.5 -29z" unicode="a"/>
<glyph glyph-name="b" horiz-adv-x="598" unicode="b" d="M192 135q23 -24 57.5 -39.5t67.5 -15.5q30 0 55.5 9.5t44 27.5t29 43t10.5 55q0 36 -14 66.5t-37.5 52.5t-54 34t-64.5 12q-36 0 -70 -14.5t-56 -40.5zM211 0h-91l-125 710h96l53 -293q21 18 58.5 35.5t93.5 17.5q31 0 60 -7t55 -20q34 -17 60 -43t44 -56.5t27 -65 t9 -68.5q0 -46 -17 -86t-46.5 -70t-69 -47t-84.5 -17q-38 0 -71.5 11t-57.5 29z"/>
<glyph glyph-name="c" horiz-adv-x="524" unicode="c" d="M514 89q-38 -48 -93 -73.5t-119 -25.5q-52 0 -103 19.5t-89 61.5q-29 32 -46 75.5t-17 94.5q0 49 18.5 91t50.5 73t75.5 48t94.5 17q49 0 95 -18t84 -56l-66 -68q-20 23 -49 37.5t-63 14.5q-28 0 -54 -10t-46.5 -28t-32.5 -43.5t-12 -57.5t11.5 -60t31.5 -50 q22 -24 52.5 -37.5t68.5 -13.5q45 0 78.5 19.5t57.5 50.5z"/>
<glyph glyph-name="d" d="M406 325q-23 24 -57.5 39.5t-67.5 15.5q-30 0 -55.5 -9.5t-44 -27.5t-29 -43t-10.5 -55q0 -36 14 -66.5t37.5 -52.5t54 -34t64.5 -12q36 0 70 14.5t56 40.5zM434 710l125 -710h-91l-9 47q-11 -9 -25 -19t-33 -18.5t-43.5 -14t-55.5 -5.5t-60.5 7t-55.5 20 q-34 17 -60 42.5t-43.5 56.5t-26.5 65t-9 69q0 49 19 91t52 72q32 29 71 43t79 14q32 0 63.5 -9.5t54.5 -25.5l-48 275h96z" unicode="d"/>
<glyph glyph-name="e" horiz-adv-x="543" unicode="e" d="M141 210q11 -63 55 -100t108 -37q43 0 77.5 15.5t58.5 39.5l61 -58q-36 -38 -85 -59t-112 -21q-56 0 -103.5 19t-81.5 53t-53 81.5t-19 103.5q0 48 17 89t47 71t70.5 46.5t87.5 16.5q51 0 92.5 -20t71.5 -53.5t46 -77t16 -89.5v-9.5t-1 -10.5h-353zM270 389 q-51 0 -84.5 -28t-44.5 -71h253q-11 45 -46 72t-78 27z"/>
<glyph glyph-name="f" horiz-adv-x="416" unicode="f" d="M304 627q-15 3 -37 3q-41 0 -62 -22t-21 -61q0 -8 1.5 -21t5.5 -36l5 -30h150l15 -85h-150l66 -375h-96l-66 375h-120l-15 85h120l-5 30q-7 38 -7 66q0 36 13.5 66.5t37.5 52t56 33.5t68 12q17 0 30 -1.5t25 -3.5z"/>
<glyph glyph-name="g" d="M406 325q-23 24 -57.5 39.5t-67.5 15.5q-30 0 -55.5 -9.5t-44 -27.5t-29 -43t-10.5 -55q0 -36 14 -66.5t37.5 -52.5t54 -34t64.5 -12q36 0 70 14.5t56 40.5zM454 43q-21 -18 -58.5 -35.5t-93.5 -17.5q-31 0 -60 7t-55 20q-34 17 -60 42.5t-44 56.5t-27 65t-9 69 q0 46 17 86t46.5 70t69 47t84.5 17q38 0 71.5 -11t57.5 -29l-6 30h91l77 -438q2 -14 4 -32t2 -31q0 -42 -15 -80t-43.5 -66.5t-70 -45.5t-95.5 -17q-39 0 -73 9t-61.5 22.5t-49 30t-34.5 31.5l65 68q30 -33 68.5 -52t85.5 -19q59 0 93.5 32t34.5 87q0 14 -2 28l-4 28z" unicode="g"/>
<glyph glyph-name="h" horiz-adv-x="602" unicode="h" d="M144 411q27 26 65.5 42.5t83.5 16.5q48 0 93.5 -19t79.5 -56q21 -23 37 -55.5t25 -86.5l44 -253h-96l-43 244q-7 38 -17 59.5t-25 36.5q-19 19 -44 29.5t-55 10.5q-36 0 -71 -17.5t-60 -47.5l55 -315h-96l-125 710h96z"/>
<glyph glyph-name="i" horiz-adv-x="253" unicode="i" d="M135 460l81 -460h-96l-81 460h96zM122 627q0 -26 -18 -44t-44 -18t-44.5 18t-18.5 44t18.5 44.5t44.5 18.5t44 -18.5t18 -44.5z"/>
<glyph glyph-name="j" horiz-adv-x="266" unicode="j" d="M135 627q0 -26 -18 -44t-44 -18t-44.5 18t-18.5 44t18.5 44.5t44.5 18.5t44 -18.5t18 -44.5zM25 -156q9 -2 20 -3t21 -1q41 0 59.5 22t18.5 61q0 8 -1.5 21t-5.5 36l-85 480h96l85 -480q7 -38 7 -66q0 -75 -47.5 -119.5t-128.5 -44.5q-29 0 -52 5z"/>
<glyph glyph-name="k" horiz-adv-x="551" unicode="k" d="M120 0l-125 710h96l74 -424l172 174h129l-192 -192l312 -268h-137l-274 232l41 -232h-96z"/>
<glyph glyph-name="l" horiz-adv-x="253" unicode="l" d="M120 0l-125 710h96l125 -710h-96z"/>
<glyph glyph-name="m" horiz-adv-x="946" unicode="m" d="M140 407q26 31 65.5 47t79.5 16q48 0 94 -19t83 -60q13 15 31.5 29t40.5 25t47.5 18t53.5 7q48 0 93.5 -18.5t80.5 -56.5q21 -23 37.5 -55.5t25.5 -86.5l44 -253h-96l-43 244q-7 38 -17.5 59.5t-25.5 36.5q-40 40 -100 40q-33 0 -68 -19.5t-58 -50.5q4 -13 7.5 -26.5 t6.5 -30.5l44 -253h-96l-43 244q-7 38 -17.5 59.5t-25.5 36.5q-40 40 -100 40q-35 0 -68.5 -18t-54.5 -47l55 -315h-96l-81 460h91z"/>
<glyph glyph-name="n" horiz-adv-x="602" unicode="n" d="M140 407q29 29 70 46t83 17q48 0 93.5 -19t79.5 -56q21 -23 37 -55.5t25 -86.5l44 -253h-96l-43 244q-7 38 -17 59.5t-25 36.5q-19 19 -44 29.5t-55 10.5q-36 0 -71 -17.5t-60 -47.5l55 -315h-96l-81 460h91z"/>
<glyph glyph-name="o" horiz-adv-x="584" unicode="o" d="M47 241q0 48 17.5 90t48.5 73t73.5 48.5t93.5 17.5q52 0 99 -19.5t82 -53.5t55.5 -80t20.5 -98q0 -48 -17.5 -90t-48.5 -73t-73.5 -48.5t-93.5 -17.5q-53 0 -99.5 19.5t-81.5 53.5t-55.5 79.5t-20.5 98.5zM142 241q0 -33 12.5 -62.5t34.5 -51t51.5 -34.5t63.5 -13 q30 0 55.5 10.5t44 29t28.5 44t10 55.5q0 33 -12.5 62.5t-34.5 51t-51.5 34.5t-63.5 13q-30 0 -55.5 -10.5t-44 -29t-28.5 -44t-10 -55.5z"/>
<glyph glyph-name="p" horiz-adv-x="598" unicode="p" d="M192 135q23 -24 57.5 -39.5t67.5 -15.5q30 0 55.5 9.5t44 27.5t29 43t10.5 55q0 36 -14 66.5t-37.5 52.5t-54 34t-64.5 12q-36 0 -70 -14.5t-56 -40.5zM258 -240h-96l-123 700h91l9 -47q10 9 24.5 19t33.5 18.5t43.5 14t55.5 5.5t60.5 -7t55.5 -20q34 -17 60 -43 t43.5 -56.5t26.5 -65t9 -68.5q0 -46 -17 -86t-46.5 -70t-69 -47t-84.5 -17q-33 0 -64.5 9t-57.5 26z"/>
<glyph glyph-name="q" d="M406 325q-23 24 -57.5 39.5t-67.5 15.5q-30 0 -55.5 -9.5t-44 -27.5t-29 -43t-10.5 -55q0 -36 14 -66.5t37.5 -52.5t54 -34t64.5 -12q36 0 70 14.5t56 40.5zM387 460h91l123 -700h-96l-50 284q-10 -8 -24.5 -17.5t-33.5 -17.5t-42.5 -13.5t-52.5 -5.5q-31 0 -60.5 7 t-55.5 20q-34 17 -60 42.5t-43.5 56.5t-26.5 65t-9 69q0 46 17 86t46.5 70t69 47t84.5 17q38 0 71.5 -11t57.5 -29z" unicode="q"/>
<glyph glyph-name="r" horiz-adv-x="384" unicode="r" d="M313 378q-5 1 -13 1.5t-14 0.5q-41 0 -73 -21.5t-51 -47.5l54 -311h-96l-81 460h91l11 -55q8 9 21.5 20.5t32 21t42 16.5t52.5 7q6 0 12 -0.5t18 -2.5z"/>
<glyph glyph-name="s" horiz-adv-x="464" unicode="s" d="M119 122q31 -27 64 -38t67 -11t57.5 15t23.5 41q0 25 -21 38t-53 21t-69 15.5t-69 21.5t-53 38.5t-21 67.5q0 32 15 58t40 44t58 27.5t70 9.5q42 0 79.5 -13.5t63.5 -33.5l-48 -70q-20 15 -44 24.5t-51 9.5q-37 0 -63.5 -15t-26.5 -41q0 -21 21 -31.5t53 -17.5t69 -15 t69 -23.5t53 -42t21 -71.5q0 -32 -14.5 -58t-39.5 -44t-57 -28t-66 -10q-57 0 -103 18t-81 50z"/>
<glyph glyph-name="t" horiz-adv-x="431" unicode="t" d="M421 0q-15 -5 -37 -7.5t-42 -2.5q-81 0 -131 44q-24 21 -40 51.5t-24 78.5l-37 211h-120l-15 85h120l-23 130h96l22 -130h160l15 -85h-160l33 -183q6 -33 13.5 -53t18.5 -31q25 -28 72 -28q10 0 26.5 1.5t24.5 3.5z"/>
<glyph glyph-name="u" horiz-adv-x="598" unicode="u" d="M460 53q-26 -31 -65.5 -47t-79.5 -16q-48 0 -93.5 18.5t-80.5 56.5q-21 23 -37.5 55.5t-25.5 86.5l-44 253h96l43 -244q7 -38 17.5 -59.5t25.5 -36.5q40 -40 100 -40q35 0 68.5 18t54.5 47l-55 315h96l81 -460h-91z"/>
<glyph glyph-name="v" horiz-adv-x="497" unicode="v" d="M445 460l-120 -460h-65l-278 460h105l185 -305l79 305h94z"/>
<glyph glyph-name="w" horiz-adv-x="799" unicode="w" d="M747 460l-107 -460h-65l-188 317l-73 -317h-65l-267 460h105l176 -306l71 306h65l184 -310l71 310h93z"/>
<glyph glyph-name="x" horiz-adv-x="508" unicode="x" d="M161 0h-105l140 235l-204 225h122l133 -148l86 148h106l-126 -214l223 -246h-121l-153 168z"/>
<glyph glyph-name="y" horiz-adv-x="503" unicode="y" d="M89 460l190 -299l78 299h94l-181 -700h-95l73 282l-268 418h109z"/>
<glyph glyph-name="z" horiz-adv-x="486" unicode="z" d="M273 375h-243l-15 85h370l10 -60l-202 -315h283l15 -85h-410l-11 60z"/>
<glyph glyph-name="braceleft" horiz-adv-x="450" unicode="{" d="M300 -36q7 -39 35 -56.5t67 -17.5h21l16 -89q-9 -1 -17.5 -1h-20.5q-80 0 -129.5 35t-65.5 119q-5 28 -7.5 54t-4 50.5t-4.5 47.5t-9 44q-11 38 -30.5 54t-61.5 16l-11 60q32 1 51 13t19 43q0 29 -7 58.5t-16 58.5t-16 58.5t-7 58.5q0 36 18 64.5t47 44.5q21 12 45 15.5 t47 5.5h11t11 -1l16 -89h-25q-33 0 -54 -11t-21 -37q0 -19 7 -45.5t15 -56t15 -60t7 -56.5q0 -32 -11.5 -51t-27.5 -31q30 -17 50.5 -45t29.5 -80q4 -23 5.5 -42.5t2.5 -39.5t3 -42t7 -49z"/>
<glyph glyph-name="bar" horiz-adv-x="257" unicode="|" d="M154 -200l-159 900h96l159 -900h-96z"/>
<glyph glyph-name="braceright" horiz-adv-x="450" unicode="}" d="M145 536q-7 39 -35 56.5t-67 17.5h-21l-16 89q9 1 17.5 1h20.5q79 0 129 -35t66 -119q5 -28 7.5 -54t4 -50.5t4.5 -47.5t9 -44q11 -38 30.5 -54t61.5 -16l11 -60q-32 -1 -51 -13t-19 -43q0 -29 7 -58.5t16 -58.5t16 -58.5t7 -58.5q0 -36 -18 -64.5t-47 -44.5 q-21 -12 -45 -15.5t-47 -5.5h-11t-11 1l-16 89h25q33 0 54 11t21 37q0 19 -7 45.5t-15 56t-15 60t-7 56.5q0 32 11.5 51t27.5 31q-30 17 -50.5 45t-29.5 80q-4 23 -5.5 42.5t-2.5 39.5t-3 42t-7 49z"/>
<glyph glyph-name="asciitilde" horiz-adv-x="550" unicode="~" d="M516 303q-5 -24 -17 -47.5t-29.5 -42.5t-41 -30.5t-51.5 -11.5q-35 0 -65 13.5t-56 30t-48 30.5t-41 14q-26 0 -41.5 -23t-22.5 -54l-79 35q5 24 17 47.5t29.5 42.5t40.5 30.5t52 11.5q34 0 64.5 -14t56.5 -30.5t48 -30t41 -13.5q26 0 41.5 23t22.5 54z"/>
<glyph glyph-name="uni00A0" horiz-adv-x="260" unicode=" "/>
<glyph glyph-name="exclamdown" horiz-adv-x="345" unicode="¡" d="M63 400q0 29 20.5 49.5t49.5 20.5t49.5 -20.5t20.5 -49.5t-20.5 -49.5t-49.5 -20.5t-49.5 20.5t-20.5 49.5zM129 240h66l58 -240l42 -240h-96l-42 240z"/>
<glyph glyph-name="cent" horiz-adv-x="524" unicode="¢" d="M514 89q-27 -35 -63.5 -57.5t-78.5 -32.5l20 -114h-95l-20 106q-46 5 -89.5 23.5t-77.5 56.5q-29 32 -46 75.5t-17 94.5q0 75 41 132t108 81l-21 121h95l19 -105q48 -1 93.5 -18.5t82.5 -55.5l-66 -68q-20 23 -49 37.5t-63 14.5q-28 0 -54 -10t-46.5 -28t-32.5 -43.5 t-12 -57.5t11.5 -60t31.5 -50q22 -24 52.5 -37.5t68.5 -13.5q45 0 78.5 19.5t57.5 50.5z"/>
<glyph glyph-name="sterling" horiz-adv-x="531" unicode="£" d="M525 90l16 -90h-465l-11 60q29 12 49 29.5t32.5 37.5t18 41.5t5.5 42.5q0 27 -7.5 52.5t-21.5 51.5h-101l-15 85h64q-17 29 -29 61.5t-12 70.5q0 39 15.5 71.5t41.5 56.5t60.5 37t72.5 13q32 0 58.5 -8.5t47.5 -22t36.5 -30t25.5 -31.5l-72 -56q-16 24 -39 41t-57 17 q-17 0 -34 -6t-30.5 -17t-22 -27.5t-8.5 -37.5q0 -34 18 -65.5t39 -66.5h150l15 -85h-119q8 -22 13.5 -47t5.5 -54q0 -41 -9 -69.5t-24 -54.5h293z"/>
<glyph glyph-name="currency" horiz-adv-x="560" unicode="¤" d="M154 351q0 -23 9 -43t24 -35t35 -24t43 -9t43 9t35 24t24 35t9 43t-9 43t-24 35t-35 24t-43 9t-43 -9t-35 -24t-24 -35t-9 -43zM59 351q0 31 8.5 59t23.5 52l-76 76l63 63l76 -76q24 15 52 23.5t59 8.5t59 -8.5t52 -23.5l76 76l63 -63l-76 -76q32 -49 32 -111t-32 -111 l76 -76l-63 -63l-76 76q-49 -32 -111 -32t-111 32l-76 -76l-63 63l76 76q-15 24 -23.5 52t-8.5 59z"/>
<glyph glyph-name="yen" horiz-adv-x="554" unicode="¥" d="M215 315l-57 70h-142l-15 85h88l-187 230h124l231 -285l129 285h106l-105 -230h96l15 -85h-149l-32 -70h194l15 -85h-191l40 -230h-99l-40 230h-192l-15 85h186z"/>
<glyph glyph-name="brokenbar" horiz-adv-x="299" unicode="¦" d="M208 190l69 -390h-96l-69 390h96zM91 310l-69 390h96l69 -390h-96z"/>
<glyph glyph-name="section" horiz-adv-x="584" unicode="§" d="M434 206q0 37 -23 60t-59.5 39.5t-80.5 29t-86 29.5q-23 -16 -36.5 -39t-13.5 -51q0 -37 23 -60t59.5 -39.5t80.5 -29.5t86 -29q23 15 36.5 38.5t13.5 51.5zM526 -51q0 -41 -17 -74t-46 -56t-67.5 -36t-81.5 -13q-60 0 -105 21.5t-70 45.5l61 76q52 -48 114 -48 q21 0 41 5.5t36 16.5t25.5 26.5t9.5 35.5q0 24 -13.5 39.5t-36.5 27t-53 20.5t-62 20q-40 13 -80.5 29.5t-72.5 41.5t-52.5 61t-20.5 87q0 87 62 138q-25 20 -39.5 48.5t-14.5 69.5q0 40 17 73.5t46 56.5t67.5 36t81.5 13q60 0 105 -21.5t70 -45.5l-61 -76q-53 48 -114 48 q-21 0 -41 -5.5t-36 -16.5t-25.5 -26.5t-9.5 -35.5q0 -24 13.5 -39.5t36.5 -27t53 -21t62 -19.5q40 -13 80.5 -29.5t72.5 -41.5t52.5 -61t20.5 -87q0 -44 -16.5 -78.5t-46.5 -59.5q25 -21 40 -49.5t15 -68.5z"/>
<glyph glyph-name="dieresis" horiz-adv-x="450" unicode="¨" d="M255 607q0 26 18 44.5t44 18.5t44.5 -18.5t18.5 -44.5t-18.5 -44t-44.5 -18t-44 18t-18 44zM70 607q0 26 18 44.5t44 18.5t44.5 -18.5t18.5 -44.5t-18.5 -44t-44.5 -18t-44 18t-18 44z"/>
<glyph glyph-name="copyright" horiz-adv-x="840" unicode="©" d="M115 350q0 -59 22.5 -110.5t61 -90t90 -61t110.5 -22.5t111 22.5t90.5 61t61 90t22.5 110.5t-22.5 111t-61 90.5t-90.5 61t-111 22.5t-110.5 -22.5t-90 -61t-61 -90.5t-22.5 -111zM50 350q0 72 27.5 136t75 111.5t111.5 75t136 27.5t136 -27.5t111.5 -75t75 -111.5 t27.5 -136t-27.5 -136t-75 -111.5t-111.5 -75t-136 -27.5t-136 27.5t-111.5 75t-75 111.5t-27.5 136zM497 450q-17 14 -38.5 24.5t-51.5 10.5q-52 0 -86 -37t-34 -95q0 -28 9 -52.5t25.5 -42.5t39.5 -28t52 -10q32 0 54 11t41 25l39 -52q-26 -23 -60 -37.5t-76 -14.5 q-44 0 -80 15.5t-62 42.5t-40.5 64t-14.5 79t14.5 78.5t40.5 63.5t61 42.5t77 15.5q41 0 72.5 -14.5t56.5 -37.5z"/>
<glyph glyph-name="ordfeminine" horiz-adv-x="437" unicode="ª" d="M284 700l53 -300h-80l-4 20q-8 -8 -28 -19t-58 -11q-28 0 -58 11t-55 32t-41 52t-16 71q0 36 14 65t35 49q20 19 44.5 29.5t50.5 10.5q27 0 44 -9t28 -21l-4 20h75zM220 608q-9 11 -26.5 19t-38.5 8q-32 0 -55 -21.5t-23 -57.5q0 -22 8.5 -39t22 -28.5t30.5 -17.5t34 -6 q23 0 40.5 9t28.5 20z"/>
<glyph glyph-name="guillemotleft" horiz-adv-x="611" unicode="«" d="M356 50h-125l-161 165l-8 50l103 165h106l-113 -177zM596 50h-125l-161 165l-8 50l103 165h106l-113 -177z"/>
<glyph glyph-name="logicalnot" horiz-adv-x="550" unicode="¬" d="M53 390h430l48 -270h-90l-32 180h-340z"/>
<glyph glyph-name="uni00AD" horiz-adv-x="453" unicode="­" d="M361 295l14 -80h-290l-14 80h290z"/>
<glyph glyph-name="registered" horiz-adv-x="840" unicode="®" d="M115 350q0 -59 22.5 -110.5t61 -90t90 -61t110.5 -22.5t111 22.5t90.5 61t61 90t22.5 110.5t-22.5 111t-61 90.5t-90.5 61t-111 22.5t-110.5 -22.5t-90 -61t-61 -90.5t-22.5 -111zM50 350q0 72 27.5 136t75 111.5t111.5 75t136 27.5t136 -27.5t111.5 -75t75 -111.5 t27.5 -136t-27.5 -136t-75 -111.5t-111.5 -75t-136 -27.5t-136 27.5t-111.5 75t-75 111.5t-27.5 136zM355 399h50q17 0 25.5 3t13.5 9q9 10 9 26q0 14 -9 25q-5 6 -13.5 10t-25.5 4h-50v-77zM526 438q0 -16 -5 -32t-14.5 -30t-23 -24.5t-29.5 -15.5l122 -175h-83l-119 170 h-19v-170h-72v383h128q25 0 42.5 -6t31.5 -17q41 -32 41 -83z"/>
<glyph glyph-name="macron" horiz-adv-x="440" unicode="¯" d="M370 650v-85h-300v85h300z"/>
<glyph glyph-name="degree" horiz-adv-x="400" unicode="°" d="M70 550q0 -33 23.5 -56.5t56.5 -23.5t56.5 23.5t23.5 56.5t-23.5 56.5t-56.5 23.5t-56.5 -23.5t-23.5 -56.5zM-10 550q0 33 12.5 62t34.5 51t51 34.5t62 12.5t62 -12.5t51 -34.5t34.5 -51t12.5 -62t-12.5 -62t-34.5 -51t-51 -34.5t-62 -12.5t-62 12.5t-51 34.5t-34.5 51 t-12.5 62z"/>
<glyph glyph-name="plusminus" horiz-adv-x="549" unicode="±" d="M103 10l-16 90h430l16 -90h-430zM301 355h170l16 -90h-170l23 -135h-90l-23 135h-170l-16 90h170l-23 135h90z"/>
<glyph glyph-name="twosuperior" horiz-adv-x="285" unicode="²" d="M-45 621q8 42 41.5 65.5t75.5 23.5q24 0 46.5 -8.5t40 -24t27.5 -37t10 -48.5t-11.5 -51t-24.5 -44l-56 -87h119l12 -70h-229l-7 40l99 154q23 34 23 58q0 23 -15 35.5t-33 12.5q-22 0 -34 -13t-16 -28z"/>
<glyph glyph-name="threesuperior" horiz-adv-x="279" unicode="³" d="M31 549l50 81h-119l-12 70h226l8 -40l-50 -79q45 -14 71.5 -46.5t26.5 -80.5q0 -27 -10.5 -50t-29 -39.5t-43 -25.5t-52.5 -9q-33 0 -61 12t-48 33l47 52q10 -10 24.5 -18.5t37.5 -8.5q27 0 43.5 16t16.5 38q0 32 -20.5 48t-49.5 16q-18 0 -34 -4l-15 -5z"/>
<glyph glyph-name="acute" horiz-adv-x="310" unicode="´" d="M70 540l65 150h105l-105 -150h-65z"/>
<glyph glyph-name="mu" horiz-adv-x="603" unicode="µ" d="M320 -10q-28 0 -55.5 7t-51.5 20l45 -256h-96l-123 699h96l43 -244q7 -38 17.5 -59.5t25.5 -36.5q40 -40 100 -40q35 0 68.5 18t54.5 47l-55 315h96l81 -460h-91l-10 53q-26 -31 -65.5 -47t-79.5 -16z"/>
<glyph glyph-name="paragraph" horiz-adv-x="695" unicode="¶" d="M99 494q0 -30 11 -54.5t30.5 -42t46 -27.5t58.5 -10l-44 249q-47 -3 -74.5 -35t-27.5 -80zM635 -200h-96l-144 810h-98l144 -810h-96l-84 470q-69 0 -113 17.5t-75 46.5q-69 64 -69 166q0 50 22 91t58 68q26 19 58 30t83 11h349l16 -90h-99z"/>
<glyph glyph-name="periodcentered" horiz-adv-x="340" unicode="·" d="M105 230q0 29 20.5 49.5t49.5 20.5t49.5 -20.5t20.5 -49.5t-20.5 -49.5t-49.5 -20.5t-49.5 20.5t-20.5 49.5z"/>
<glyph glyph-name="cedilla" horiz-adv-x="275" unicode="¸" d="M205 10l-30 -150h-105l70 150h65z"/>
<glyph glyph-name="onesuperior" horiz-adv-x="227" unicode="¹" d="M62 700h46l64 -360h-76l-48 271l-70 -38l-13 70z"/>
<glyph glyph-name="ordmasculine" horiz-adv-x="423" unicode="º" d="M166 390q-37 0 -68 13.5t-53.5 36.5t-35 54.5t-12.5 66.5q0 31 11.5 58t31.5 47.5t47.5 32t59.5 11.5q37 0 68 -13.5t53.5 -37t35 -54.5t12.5 -66q0 -31 -11.5 -58t-31.5 -47.5t-47.5 -32t-59.5 -11.5zM162 465q35 0 54.5 22t19.5 56q0 18 -6.5 35t-18 29.5t-27 20 t-33.5 7.5q-35 0 -54.5 -22t-19.5 -56q0 -18 6.5 -35t18 -29.5t27 -20t33.5 -7.5z"/>
<glyph glyph-name="guillemotright" horiz-adv-x="611" unicode="»" d="M15 430h125l161 -165l8 -50l-103 -165h-106l113 177zM255 430h125l161 -165l8 -50l-103 -165h-106l113 177z"/>
<glyph glyph-name="onequarter" horiz-adv-x="585" unicode="¼" d="M62 700h46l64 -360h-76l-48 271l-70 -38l-13 70zM443 228l-56 -87h72zM294 122l155 238h46l39 -219h50l11 -64h-50l14 -77h-76l-13 77h-168zM82 0l288 700h79l-288 -700h-79z"/>
<glyph glyph-name="onehalf" horiz-adv-x="599" unicode="½" d="M62 700h46l64 -360h-76l-48 271l-70 -38l-13 70zM329 281q7 41 41 65t76 24q24 0 46 -8t40 -24t28 -38t10 -48q0 -27 -12 -51t-24 -44l-56 -87h119l12 -70h-229l-7 40l99 154q23 34 23 58t-15 36t-33 12q-22 0 -34 -13t-16 -28zM82 0l288 700h79l-288 -700h-79z"/>
<glyph glyph-name="threequarters" horiz-adv-x="617" unicode="¾" d="M31 549l50 81h-119l-12 70h226l8 -40l-50 -79q46 -15 72 -47t26 -80q0 -27 -10 -50q-10 -24 -30 -40q-18 -16 -42 -25t-53 -9q-33 0 -61 12t-48 33l47 52q11 -11 25 -19t37 -8q27 0 43 16t17 38q-1 32 -21 48t-49 16q-18 0 -34 -4l-15 -5zM475 228l-56 -87h72zM326 122 l155 238h46l39 -219h50l11 -64h-50l14 -77h-76l-13 77h-168zM114 0l288 700h79l-288 -700h-79z"/>
<glyph glyph-name="questiondown" horiz-adv-x="505" unicode="¿" d="M307 400q0 -29 -20.5 -49.5t-49.5 -20.5t-49.5 20.5t-20.5 49.5t20.5 49.5t49.5 20.5t49.5 -20.5t20.5 -49.5zM522 -105q-9 -35 -29 -62t-47 -45.5t-59.5 -28t-66.5 -9.5q-41 0 -77.5 14.5t-63.5 40t-43 60t-16 75.5q0 36 10 63.5t24.5 49.5t32 38.5t32 30.5t24.5 27 t10 28q0 17 -11.5 28.5t-22.5 19.5l63 66q35 -26 50.5 -55t15.5 -61q0 -28 -10 -48.5t-24.5 -37.5t-32 -32.5t-32 -32.5t-24.5 -37t-10 -47q0 -21 8 -39t22 -31.5t33 -21.5t42 -8q24 0 43.5 7.5t33.5 19t23 26t12 28.5z"/>
<glyph glyph-name="Agrave" horiz-adv-x="643" unicode="À" d="M259 532l-61 -257h212zM571 0l-105 180h-290l-43 -180h-99l167 700h69l413 -700h-112zM193 750l-105 150h105l65 -150h-65z"/>
<glyph glyph-name="Aacute" horiz-adv-x="643" unicode="Á" d="M259 532l-61 -257h212zM571 0l-105 180h-290l-43 -180h-99l167 700h69l413 -700h-112zM194 750l65 150h105l-105 -150h-65z"/>
<glyph glyph-name="Acircumflex" horiz-adv-x="643" unicode="Â" d="M259 532l-61 -257h212zM571 0l-105 180h-290l-43 -180h-99l167 700h69l413 -700h-112zM313 750l-112 88l-58 -88h-65l68 150h110l122 -150h-65z"/>
<glyph glyph-name="Atilde" horiz-adv-x="643" unicode="Ã" d="M259 532l-61 -257h212zM571 0l-105 180h-290l-43 -180h-99l167 700h69l413 -700h-112zM55 781q1 22 8.5 42t20.5 35t31 23.5t41 8.5q19 0 37 -7t35 -15.5t33 -15.5t31 -7q17 0 25.5 11.5t12.5 33.5l65 -21q-1 -22 -8.5 -42t-20.5 -35t-31.5 -23.5t-40.5 -8.5q-19 0 -37 7 t-35 15.5t-33 15.5t-31 7q-17 0 -25.5 -11.5t-12.5 -33.5z"/>
<glyph glyph-name="Adieresis" horiz-adv-x="643" unicode="Ä" d="M259 532l-61 -257h212zM571 0l-105 180h-290l-43 -180h-99l167 700h69l413 -700h-112zM253 817q0 26 18 44.5t44 18.5t44.5 -18.5t18.5 -44.5t-18.5 -44t-44.5 -18t-44 18t-18 44zM68 817q0 26 18 44.5t44 18.5t44.5 -18.5t18.5 -44.5t-18.5 -44t-44.5 -18t-44 18t-18 44 z"/>
<glyph glyph-name="Aring" horiz-adv-x="643" unicode="Å" d="M259 532l-61 -257h212zM571 0l-105 180h-290l-43 -180h-99l167 700h69l413 -700h-112zM181 830q0 -17 11.5 -28.5t28.5 -11.5t28.5 11.5t11.5 28.5t-11.5 28.5t-28.5 11.5t-28.5 -11.5t-11.5 -28.5zM121 830q0 42 29 71t71 29t71 -29t29 -71t-29 -71t-71 -29t-71 29 t-29 71z"/>
<glyph glyph-name="AE" horiz-adv-x="930" unicode="Æ" d="M259 275h207l-61 349zM34 0l295 700h463l17 -95h-302l32 -180h231l17 -95h-232l42 -235h311l17 -95h-410l-32 180h-264l-76 -180h-109z"/>
<glyph glyph-name="Ccedilla" horiz-adv-x="705" unicode="Ç" d="M374 -8q-75 6 -139 38t-110 83t-72 116.5t-26 139.5q0 72 25.5 134t72 108t110 72.5t140.5 26.5q66 0 120.5 -20t105.5 -59l-56 -77q-35 29 -78 45t-89 16q-51 0 -97 -18t-80 -51t-54 -78t-20 -99q0 -58 21 -109.5t58.5 -90.5t89.5 -61.5t114 -22.5q69 0 121.5 25.5 t90.5 73.5l78 -57q-45 -61 -112 -95t-144 -40l-26 -132h-105z"/>
<glyph glyph-name="Egrave" horiz-adv-x="545" unicode="È" d="M130 0l-123 700h400l17 -95h-302l32 -180h231l17 -95h-232l42 -235h311l17 -95h-410zM194 749l-105 150h105l65 -150h-65z"/>
<glyph glyph-name="Eacute" horiz-adv-x="545" unicode="É" d="M130 0l-123 700h400l17 -95h-302l32 -180h231l17 -95h-232l42 -235h311l17 -95h-410zM166 749l65 150h105l-105 -150h-65z"/>
<glyph glyph-name="Ecircumflex" horiz-adv-x="545" unicode="Ê" d="M130 0l-123 700h400l17 -95h-302l32 -180h231l17 -95h-232l42 -235h311l17 -95h-410zM287 750l-112 88l-58 -88h-65l68 150h110l122 -150h-65z"/>
<glyph glyph-name="Edieresis" horiz-adv-x="545" unicode="Ë" d="M130 0l-123 700h400l17 -95h-302l32 -180h231l17 -95h-232l42 -235h311l17 -95h-410zM226 817q0 26 18 44.5t44 18.5t44.5 -18.5t18.5 -44.5t-18.5 -44t-44.5 -18t-44 18t-18 44zM41 817q0 26 18 44.5t44 18.5t44.5 -18.5t18.5 -44.5t-18.5 -44t-44.5 -18t-44 18t-18 44z "/>
<glyph glyph-name="Igrave" horiz-adv-x="276" unicode="Ì" d="M130 0l-123 700h99l123 -700h-99zM20 750l-105 150h105l65 -150h-65z"/>
<glyph glyph-name="Iacute" horiz-adv-x="276" unicode="Í" d="M130 0l-123 700h99l123 -700h-99zM12 750l65 150h105l-105 -150h-65z"/>
<glyph glyph-name="Icircumflex" horiz-adv-x="276" unicode="Î" d="M130 0l-123 700h99l123 -700h-99zM138 749l-112 88l-58 -88h-65l68 150h110l122 -150h-65z"/>
<glyph glyph-name="Idieresis" horiz-adv-x="276" unicode="Ï" d="M130 0l-123 700h99l123 -700h-99zM67 816q0 26 18 44.5t44 18.5t44.5 -18.5t18.5 -44.5t-18.5 -44t-44.5 -18t-44 18t-18 44zM-118 816q0 26 18 44.5t44 18.5t44.5 -18.5t18.5 -44.5t-18.5 -44t-44.5 -18t-44 18t-18 44z"/>
<glyph glyph-name="Eth" horiz-adv-x="731" unicode="Ð" d="M123 605l32 -180h200l16 -95h-200l42 -235h101q62 0 107.5 16.5t77.5 49.5t48.5 77.5t16.5 92.5q0 53 -21.5 103.5t-59.5 88.5q-39 38 -92 60t-124 22h-144zM266 700q89 0 162.5 -28t125.5 -82q51 -52 80.5 -119t29.5 -141q0 -68 -23.5 -129t-68.5 -107 q-46 -46 -109.5 -70t-148.5 -24h-184l-58 330h-100l-17 95h100l-48 275h259z"/>
<glyph glyph-name="Ntilde" horiz-adv-x="768" unicode="Ñ" d="M140 505l89 -505h-99l-123 700h69l512 -504l-89 504h99l123 -700h-69zM119 781q1 22 8.5 42t20.5 35t31 23.5t41 8.5q19 0 37 -7t35 -15.5t33 -15.5t31 -7q17 0 25.5 11.5t12.5 33.5l65 -21q-1 -22 -8.5 -42t-20.5 -35t-31.5 -23.5t-40.5 -8.5q-19 0 -37 7t-35 15.5 t-33 15.5t-31 7q-17 0 -25.5 -11.5t-12.5 -33.5z"/>
<glyph glyph-name="Ograve" horiz-adv-x="810" unicode="Ò" d="M405 -10q-72 0 -141.5 29t-123.5 84q-53 54 -83 123t-30 144q0 70 24 132.5t71 110.5q48 48 110 72.5t133 24.5q72 0 141.5 -29t123.5 -84q53 -54 83 -123t30 -144q0 -70 -24 -132.5t-71 -110.5q-48 -48 -110 -72.5t-133 -24.5zM366 615q-49 0 -93.5 -17t-78.5 -52 t-50.5 -80.5t-16.5 -96.5q0 -54 22 -106.5t62 -92.5q41 -40 90 -62.5t103 -22.5q49 0 93.5 17t78.5 52t50.5 80.5t16.5 96.5q0 54 -22 106.5t-62 92.5q-41 40 -90 62.5t-103 22.5zM318 750l-105 150h105l65 -150h-65z"/>
<glyph glyph-name="Oacute" horiz-adv-x="810" unicode="Ó" d="M405 -10q-72 0 -141.5 29t-123.5 84q-53 54 -83 123t-30 144q0 70 24 132.5t71 110.5q48 48 110 72.5t133 24.5q72 0 141.5 -29t123.5 -84q53 -54 83 -123t30 -144q0 -70 -24 -132.5t-71 -110.5q-48 -48 -110 -72.5t-133 -24.5zM366 615q-49 0 -93.5 -17t-78.5 -52 t-50.5 -80.5t-16.5 -96.5q0 -54 22 -106.5t62 -92.5q41 -40 90 -62.5t103 -22.5q49 0 93.5 17t78.5 52t50.5 80.5t16.5 96.5q0 54 -22 106.5t-62 92.5q-41 40 -90 62.5t-103 22.5zM289 750l65 150h105l-105 -150h-65z"/>
<glyph glyph-name="Ocircumflex" horiz-adv-x="810" unicode="Ô" d="M405 -10q-72 0 -141.5 29t-123.5 84q-53 54 -83 123t-30 144q0 70 24 132.5t71 110.5q48 48 110 72.5t133 24.5q72 0 141.5 -29t123.5 -84q53 -54 83 -123t30 -144q0 -70 -24 -132.5t-71 -110.5q-48 -48 -110 -72.5t-133 -24.5zM366 615q-49 0 -93.5 -17t-78.5 -52 t-50.5 -80.5t-16.5 -96.5q0 -54 22 -106.5t62 -92.5q41 -40 90 -62.5t103 -22.5q49 0 93.5 17t78.5 52t50.5 80.5t16.5 96.5q0 54 -22 106.5t-62 92.5q-41 40 -90 62.5t-103 22.5zM418 749l-112 88l-58 -88h-65l68 150h110l122 -150h-65z"/>
<glyph glyph-name="Otilde" horiz-adv-x="810" unicode="Õ" d="M405 -10q-72 0 -141.5 29t-123.5 84q-53 54 -83 123t-30 144q0 70 24 132.5t71 110.5q48 48 110 72.5t133 24.5q72 0 141.5 -29t123.5 -84q53 -54 83 -123t30 -144q0 -70 -24 -132.5t-71 -110.5q-48 -48 -110 -72.5t-133 -24.5zM366 615q-49 0 -93.5 -17t-78.5 -52 t-50.5 -80.5t-16.5 -96.5q0 -54 22 -106.5t62 -92.5q41 -40 90 -62.5t103 -22.5q49 0 93.5 17t78.5 52t50.5 80.5t16.5 96.5q0 54 -22 106.5t-62 92.5q-41 40 -90 62.5t-103 22.5zM149 781q1 22 8.5 42t20.5 35t31 23.5t41 8.5q19 0 37 -7t35 -15.5t33 -15.5t31 -7 q17 0 25.5 11.5t12.5 33.5l65 -21q-1 -22 -8.5 -42t-20.5 -35t-31.5 -23.5t-40.5 -8.5q-19 0 -37 7t-35 15.5t-33 15.5t-31 7q-17 0 -25.5 -11.5t-12.5 -33.5z"/>
<glyph glyph-name="Odieresis" horiz-adv-x="810" unicode="Ö" d="M405 -10q-72 0 -141.5 29t-123.5 84q-53 54 -83 123t-30 144q0 70 24 132.5t71 110.5q48 48 110 72.5t133 24.5q72 0 141.5 -29t123.5 -84q53 -54 83 -123t30 -144q0 -70 -24 -132.5t-71 -110.5q-48 -48 -110 -72.5t-133 -24.5zM366 615q-49 0 -93.5 -17t-78.5 -52 t-50.5 -80.5t-16.5 -96.5q0 -54 22 -106.5t62 -92.5q41 -40 90 -62.5t103 -22.5q49 0 93.5 17t78.5 52t50.5 80.5t16.5 96.5q0 54 -22 106.5t-62 92.5q-41 40 -90 62.5t-103 22.5zM347 817q0 26 18 44.5t44 18.5t44.5 -18.5t18.5 -44.5t-18.5 -44t-44.5 -18t-44 18t-18 44z M162 817q0 26 18 44.5t44 18.5t44.5 -18.5t18.5 -44.5t-18.5 -44t-44.5 -18t-44 18t-18 44z"/>
<glyph glyph-name="multiply" horiz-adv-x="540" unicode="×" d="M442 46l-170 145l-119 -145l-69 57l119 146l-172 146l59 69l171 -145l118 145l69 -57l-119 -146l172 -146z"/>
<glyph glyph-name="Oslash" horiz-adv-x="810" unicode="Ø" d="M366 615q-49 0 -93.5 -17t-78.5 -52t-50.5 -80.5t-16.5 -96.5q0 -54 22 -106.5t62 -92.5l13.5 -13.5t14.5 -11.5l211 455q-41 15 -84 15zM559 530q-8 7 -15 13.5t-15 12.5l-211 -456q40 -15 86 -15q49 0 93.5 17t78.5 52t50.5 80.5t16.5 96.5q0 54 -22 106.5t-62 92.5z M168 -10l29 65q-15 11 -29.5 22.5t-27.5 25.5q-53 54 -83 123t-30 144q0 70 24 132.5t71 110.5q48 48 110 72.5t133 24.5q67 0 129 -24l12 24h95l-30 -64q30 -20 59 -49q53 -54 83 -123t30 -144q0 -70 -24 -132.5t-71 -110.5q-48 -48 -110 -72.5t-133 -24.5q-34 0 -66.5 6.5 t-64.5 18.5l-11 -25h-95z"/>
<glyph glyph-name="Ugrave" horiz-adv-x="726" unicode="Ù" d="M473 700h99l68 -390q4 -22 6.5 -41t2.5 -39q0 -52 -21 -96t-57 -76t-84 -50t-103 -18q-135 0 -214 74.5t-104 217.5l-73 418h99l73 -415q18 -103 72.5 -151.5t140.5 -48.5q36 0 67 10.5t54 30.5t36.5 48.5t13.5 65.5q0 13 -1.5 30.5t-4.5 34.5zM259 750l-105 150h105 l65 -150h-65z"/>
<glyph glyph-name="Uacute" horiz-adv-x="726" unicode="Ú" d="M473 700h99l68 -390q4 -22 6.5 -41t2.5 -39q0 -52 -21 -96t-57 -76t-84 -50t-103 -18q-135 0 -214 74.5t-104 217.5l-73 418h99l73 -415q18 -103 72.5 -151.5t140.5 -48.5q36 0 67 10.5t54 30.5t36.5 48.5t13.5 65.5q0 13 -1.5 30.5t-4.5 34.5zM240 749l65 150h105 l-105 -150h-65z"/>
<glyph glyph-name="Ucircumflex" horiz-adv-x="726" unicode="Û" d="M473 700h99l68 -390q4 -22 6.5 -41t2.5 -39q0 -52 -21 -96t-57 -76t-84 -50t-103 -18q-135 0 -214 74.5t-104 217.5l-73 418h99l73 -415q18 -103 72.5 -151.5t140.5 -48.5q36 0 67 10.5t54 30.5t36.5 48.5t13.5 65.5q0 13 -1.5 30.5t-4.5 34.5zM360 750l-112 88l-58 -88 h-65l68 150h110l122 -150h-65z"/>
<glyph glyph-name="Udieresis" horiz-adv-x="726" unicode="Ü" d="M473 700h99l68 -390q4 -22 6.5 -41t2.5 -39q0 -52 -21 -96t-57 -76t-84 -50t-103 -18q-135 0 -214 74.5t-104 217.5l-73 418h99l73 -415q18 -103 72.5 -151.5t140.5 -48.5q36 0 67 10.5t54 30.5t36.5 48.5t13.5 65.5q0 13 -1.5 30.5t-4.5 34.5zM302 817q0 26 18 44.5 t44 18.5t44.5 -18.5t18.5 -44.5t-18.5 -44t-44.5 -18t-44 18t-18 44zM117 817q0 26 18 44.5t44 18.5t44.5 -18.5t18.5 -44.5t-18.5 -44t-44.5 -18t-44 18t-18 44z"/>
<glyph glyph-name="Yacute" horiz-adv-x="554" unicode="Ý" d="M492 700l-173 -380l56 -320h-99l-53 305l-321 395h124l231 -285l129 285h106zM162 750l65 150h105l-105 -150h-65z"/>
<glyph glyph-name="Thorn" horiz-adv-x="600" unicode="Þ" d="M150 450l35 -200h154q32 0 49 5t28 15q14 12 22.5 30.5t8.5 41.5q0 26 -12 49t-32 38q-13 10 -31 15.5t-50 5.5h-172zM130 0l-123 700h99l27 -155h188q41 0 67 -5.5t47 -16.5q51 -26 81.5 -75.5t30.5 -111.5q0 -47 -20.5 -85t-55.5 -63q-22 -16 -51.5 -24.5t-74.5 -8.5 h-143l27 -155h-99z"/>
<glyph glyph-name="germandbls" horiz-adv-x="590" unicode="ß" d="M543 199q0 -45 -16.5 -83t-45 -66t-67 -44t-82.5 -16q-23 0 -45 4.5t-39 11.5l29 82q10 -3 22 -5.5t28 -2.5q54 0 87.5 32.5t33.5 86.5q0 35 -15.5 65t-42.5 49q-17 12 -38.5 19.5t-58.5 7.5h-57l-16 90q57 0 82 25.5t25 65.5q0 21 -8 41t-22.5 35t-35 24t-44.5 9 q-41 0 -67 -24.5t-26 -62.5q0 -11 1 -23.5t6 -36.5l85 -483h-96l-84 477q-4 21 -5 36t-1 29q0 39 14 72t39 56.5t59.5 36.5t74.5 13q44 0 81.5 -16t65 -43t43 -63.5t15.5 -76.5q0 -33 -10 -60t-24 -46q33 -12 61.5 -33t49 -49.5t32.5 -62.5t12 -71z"/>
<glyph glyph-name="agrave" d="M406 325q-23 24 -57.5 39.5t-67.5 15.5q-30 0 -55.5 -9.5t-44 -27.5t-29 -43t-10.5 -55q0 -36 14 -66.5t37.5 -52.5t54 -34t64.5 -12q36 0 70 14.5t56 40.5zM387 460h91l81 -460h-91l-9 47q-11 -9 -25 -19t-33 -18.5t-43.5 -14t-55.5 -5.5t-60.5 7t-55.5 20 q-34 17 -60 42.5t-43.5 56.5t-26.5 65t-9 69q0 46 17 86t46.5 70t69 47t84.5 17q38 0 71.5 -11t57.5 -29zM247 540l-105 150h105l65 -150h-65z" unicode="à"/>
<glyph glyph-name="aacute" d="M406 325q-23 24 -57.5 39.5t-67.5 15.5q-30 0 -55.5 -9.5t-44 -27.5t-29 -43t-10.5 -55q0 -36 14 -66.5t37.5 -52.5t54 -34t64.5 -12q36 0 70 14.5t56 40.5zM387 460h91l81 -460h-91l-9 47q-11 -9 -25 -19t-33 -18.5t-43.5 -14t-55.5 -5.5t-60.5 7t-55.5 20 q-34 17 -60 42.5t-43.5 56.5t-26.5 65t-9 69q0 46 17 86t46.5 70t69 47t84.5 17q38 0 71.5 -11t57.5 -29zM242 540l65 150h105l-105 -150h-65z" unicode="á"/>
<glyph glyph-name="acircumflex" d="M406 325q-23 24 -57.5 39.5t-67.5 15.5q-30 0 -55.5 -9.5t-44 -27.5t-29 -43t-10.5 -55q0 -36 14 -66.5t37.5 -52.5t54 -34t64.5 -12q36 0 70 14.5t56 40.5zM387 460h91l81 -460h-91l-9 47q-11 -9 -25 -19t-33 -18.5t-43.5 -14t-55.5 -5.5t-60.5 7t-55.5 20 q-34 17 -60 42.5t-43.5 56.5t-26.5 65t-9 69q0 46 17 86t46.5 70t69 47t84.5 17q38 0 71.5 -11t57.5 -29zM362 540l-112 88l-58 -88h-65l68 150h110l122 -150h-65z" unicode="â"/>
<glyph glyph-name="atilde" d="M406 325q-23 24 -57.5 39.5t-67.5 15.5q-30 0 -55.5 -9.5t-44 -27.5t-29 -43t-10.5 -55q0 -36 14 -66.5t37.5 -52.5t54 -34t64.5 -12q36 0 70 14.5t56 40.5zM387 460h91l81 -460h-91l-9 47q-11 -9 -25 -19t-33 -18.5t-43.5 -14t-55.5 -5.5t-60.5 7t-55.5 20 q-34 17 -60 42.5t-43.5 56.5t-26.5 65t-9 69q0 46 17 86t46.5 70t69 47t84.5 17q38 0 71.5 -11t57.5 -29zM80 571q1 22 8.5 42t20.5 35t31 23.5t41 8.5q19 0 37 -7t35 -15.5t33 -15.5t31 -7q17 0 25.5 11.5t12.5 33.5l65 -21q-1 -22 -8.5 -42t-20.5 -35t-31.5 -23.5 t-40.5 -8.5q-19 0 -37 7t-35 15.5t-33 15.5t-31 7q-17 0 -25.5 -11.5t-12.5 -33.5z" unicode="ã"/>
<glyph glyph-name="adieresis" d="M406 325q-23 24 -57.5 39.5t-67.5 15.5q-30 0 -55.5 -9.5t-44 -27.5t-29 -43t-10.5 -55q0 -36 14 -66.5t37.5 -52.5t54 -34t64.5 -12q36 0 70 14.5t56 40.5zM387 460h91l81 -460h-91l-9 47q-11 -9 -25 -19t-33 -18.5t-43.5 -14t-55.5 -5.5t-60.5 7t-55.5 20 q-34 17 -60 42.5t-43.5 56.5t-26.5 65t-9 69q0 46 17 86t46.5 70t69 47t84.5 17q38 0 71.5 -11t57.5 -29zM297 607q0 26 18 44.5t44 18.5t44.5 -18.5t18.5 -44.5t-18.5 -44t-44.5 -18t-44 18t-18 44zM112 607q0 26 18 44.5t44 18.5t44.5 -18.5t18.5 -44.5t-18.5 -44 t-44.5 -18t-44 18t-18 44z" unicode="ä"/>
<glyph glyph-name="aring" d="M406 325q-23 24 -57.5 39.5t-67.5 15.5q-30 0 -55.5 -9.5t-44 -27.5t-29 -43t-10.5 -55q0 -36 14 -66.5t37.5 -52.5t54 -34t64.5 -12q36 0 70 14.5t56 40.5zM387 460h91l81 -460h-91l-9 47q-11 -9 -25 -19t-33 -18.5t-43.5 -14t-55.5 -5.5t-60.5 7t-55.5 20 q-34 17 -60 42.5t-43.5 56.5t-26.5 65t-9 69q0 46 17 86t46.5 70t69 47t84.5 17q38 0 71.5 -11t57.5 -29zM227 620q0 -17 11.5 -28.5t28.5 -11.5t28.5 11.5t11.5 28.5t-11.5 28.5t-28.5 11.5t-28.5 -11.5t-11.5 -28.5zM167 620q0 42 29 71t71 29t71 -29t29 -71t-29 -71 t-71 -29t-71 29t-29 71z" unicode="å"/>
<glyph glyph-name="ae" horiz-adv-x="927" unicode="æ" d="M778 290q-11 42 -45.5 70.5t-82.5 28.5q-51 0 -86.5 -28.5t-46.5 -70.5h261zM406 325q-23 24 -57.5 39.5t-67.5 15.5q-30 0 -55.5 -9.5t-44 -27.5t-29 -43t-10.5 -55q0 -36 14 -66.5t37.5 -52.5t54 -34t64.5 -12q36 0 70 14.5t56 40.5zM517 210q5 -31 20 -56t37 -43 t50 -28t60 -10q38 0 74 13.5t66 41.5l61 -58q-35 -38 -84.5 -59t-112.5 -21q-38 0 -74.5 10t-65.5 31l6 -31h-86l-9 47q-11 -9 -25 -19t-33 -18.5t-43.5 -14t-55.5 -5.5t-60.5 7t-55.5 20q-34 17 -60 42.5t-43.5 56.5t-26.5 65t-9 69q0 46 17 86t46.5 70t69 47t84.5 17 q38 0 71.5 -11t57.5 -29l-6 30h86l12 -67q29 35 70 56t92 21q46 0 88.5 -18.5t74 -51t50.5 -76t19 -94.5v-9.5t-1 -10.5h-361z"/>
<glyph glyph-name="ccedilla" horiz-adv-x="524" unicode="ç" d="M514 89q-30 -38 -71.5 -62.5t-90.5 -32.5l-26 -134h-105l61 131q-48 3 -92.5 22.5t-79.5 57.5q-29 32 -46 75.5t-17 94.5q0 49 18.5 91t50.5 73t75.5 48t94.5 17q49 0 95 -18t84 -56l-66 -68q-20 23 -49 37.5t-63 14.5q-28 0 -54 -10t-46.5 -28t-32.5 -43.5t-12 -57.5 t11.5 -60t31.5 -50q22 -24 52.5 -37.5t68.5 -13.5q45 0 78.5 19.5t57.5 50.5z"/>
<glyph glyph-name="egrave" horiz-adv-x="543" unicode="è" d="M141 210q11 -63 55 -100t108 -37q43 0 77.5 15.5t58.5 39.5l61 -58q-36 -38 -85 -59t-112 -21q-56 0 -103.5 19t-81.5 53t-53 81.5t-19 103.5q0 48 17 89t47 71t70.5 46.5t87.5 16.5q51 0 92.5 -20t71.5 -53.5t46 -77t16 -89.5v-9.5t-1 -10.5h-353zM270 389 q-51 0 -84.5 -28t-44.5 -71h253q-11 45 -46 72t-78 27zM221 540l-105 150h105l65 -150h-65z"/>
<glyph glyph-name="eacute" horiz-adv-x="543" unicode="é" d="M141 210q11 -63 55 -100t108 -37q43 0 77.5 15.5t58.5 39.5l61 -58q-36 -38 -85 -59t-112 -21q-56 0 -103.5 19t-81.5 53t-53 81.5t-19 103.5q0 48 17 89t47 71t70.5 46.5t87.5 16.5q51 0 92.5 -20t71.5 -53.5t46 -77t16 -89.5v-9.5t-1 -10.5h-353zM270 389 q-51 0 -84.5 -28t-44.5 -71h253q-11 45 -46 72t-78 27zM206 540l65 150h105l-105 -150h-65z"/>
<glyph glyph-name="ecircumflex" horiz-adv-x="543" unicode="ê" d="M141 210q11 -63 55 -100t108 -37q43 0 77.5 15.5t58.5 39.5l61 -58q-36 -38 -85 -59t-112 -21q-56 0 -103.5 19t-81.5 53t-53 81.5t-19 103.5q0 48 17 89t47 71t70.5 46.5t87.5 16.5q51 0 92.5 -20t71.5 -53.5t46 -77t16 -89.5v-9.5t-1 -10.5h-353zM270 389 q-51 0 -84.5 -28t-44.5 -71h253q-11 45 -46 72t-78 27zM320 540l-112 88l-58 -88h-65l68 150h110l122 -150h-65z"/>
<glyph glyph-name="edieresis" horiz-adv-x="543" unicode="ë" d="M141 210q11 -63 55 -100t108 -37q43 0 77.5 15.5t58.5 39.5l61 -58q-36 -38 -85 -59t-112 -21q-56 0 -103.5 19t-81.5 53t-53 81.5t-19 103.5q0 48 17 89t47 71t70.5 46.5t87.5 16.5q51 0 92.5 -20t71.5 -53.5t46 -77t16 -89.5v-9.5t-1 -10.5h-353zM270 389 q-51 0 -84.5 -28t-44.5 -71h253q-11 45 -46 72t-78 27zM261 607q0 26 18 44.5t44 18.5t44.5 -18.5t18.5 -44.5t-18.5 -44t-44.5 -18t-44 18t-18 44zM76 607q0 26 18 44.5t44 18.5t44.5 -18.5t18.5 -44.5t-18.5 -44t-44.5 -18t-44 18t-18 44z"/>
<glyph glyph-name="igrave" horiz-adv-x="253" unicode="ì" d="M135 460l81 -460h-96l-81 460h96zM45 540l-105 150h105l65 -150h-65z"/>
<glyph glyph-name="iacute" horiz-adv-x="253" unicode="í" d="M135 460l81 -460h-96l-81 460h96zM36 540l65 150h105l-105 -150h-65z"/>
<glyph glyph-name="icircumflex" horiz-adv-x="253" unicode="î" d="M135 460l81 -460h-96l-81 460h96zM164 540l-112 88l-58 -88h-65l68 150h110l122 -150h-65z"/>
<glyph glyph-name="idieresis" horiz-adv-x="253" unicode="ï" d="M135 460l81 -460h-96l-81 460h96zM89 607q0 26 18 44.5t44 18.5t44.5 -18.5t18.5 -44.5t-18.5 -44t-44.5 -18t-44 18t-18 44zM-96 607q0 26 18 44.5t44 18.5t44.5 -18.5t18.5 -44.5t-18.5 -44t-44.5 -18t-44 18t-18 44z"/>
<glyph glyph-name="eth" horiz-adv-x="584" unicode="ð" d="M285 380q-31 0 -57 -10t-45 -28.5t-30 -44t-11 -56.5q0 -32 12 -61.5t33 -51.5t50 -35t62 -13q30 0 56.5 10.5t45.5 29t30 44t11 55.5q0 23 -7 44t-17.5 39t-23 33.5t-24.5 29.5q-20 7 -41.5 11t-43.5 4zM215 710l37 -47l85 56l44 -68l-78 -52l147 -185q41 -51 64 -96 t23 -99q0 -48 -18 -90t-49.5 -73t-74.5 -48.5t-94 -17.5q-52 0 -98.5 19t-81 53t-54.5 79.5t-20 99.5q0 48 18 90t49.5 73t74 48.5t90.5 17.5h6l-62 77l-86 -58l-46 71l82 52l-77 98h119z"/>
<glyph glyph-name="ntilde" horiz-adv-x="602" unicode="ñ" d="M140 407q29 29 70 46t83 17q48 0 93.5 -19t79.5 -56q21 -23 37 -55.5t25 -86.5l44 -253h-96l-43 244q-7 38 -17 59.5t-25 36.5q-19 19 -44 29.5t-55 10.5q-36 0 -71 -17.5t-60 -47.5l55 -315h-96l-81 460h91zM93 571q1 22 8.5 42t20.5 35t31 23.5t41 8.5q19 0 37 -7 t35 -15.5t33 -15.5t31 -7q17 0 25.5 11.5t12.5 33.5l65 -21q-1 -22 -8.5 -42t-20.5 -35t-31.5 -23.5t-40.5 -8.5q-19 0 -37 7t-35 15.5t-33 15.5t-31 7q-17 0 -25.5 -11.5t-12.5 -33.5z"/>
<glyph glyph-name="ograve" horiz-adv-x="584" unicode="ò" d="M47 241q0 48 17.5 90t48.5 73t73.5 48.5t93.5 17.5q52 0 99 -19.5t82 -53.5t55.5 -80t20.5 -98q0 -48 -17.5 -90t-48.5 -73t-73.5 -48.5t-93.5 -17.5q-53 0 -99.5 19.5t-81.5 53.5t-55.5 79.5t-20.5 98.5zM142 241q0 -33 12.5 -62.5t34.5 -51t51.5 -34.5t63.5 -13 q30 0 55.5 10.5t44 29t28.5 44t10 55.5q0 33 -12.5 62.5t-34.5 51t-51.5 34.5t-63.5 13q-30 0 -55.5 -10.5t-44 -29t-28.5 -44t-10 -55.5zM225 540l-105 150h105l65 -150h-65z"/>
<glyph glyph-name="oacute" horiz-adv-x="584" unicode="ó" d="M47 241q0 48 17.5 90t48.5 73t73.5 48.5t93.5 17.5q52 0 99 -19.5t82 -53.5t55.5 -80t20.5 -98q0 -48 -17.5 -90t-48.5 -73t-73.5 -48.5t-93.5 -17.5q-53 0 -99.5 19.5t-81.5 53.5t-55.5 79.5t-20.5 98.5zM142 241q0 -33 12.5 -62.5t34.5 -51t51.5 -34.5t63.5 -13 q30 0 55.5 10.5t44 29t28.5 44t10 55.5q0 33 -12.5 62.5t-34.5 51t-51.5 34.5t-63.5 13q-30 0 -55.5 -10.5t-44 -29t-28.5 -44t-10 -55.5zM209 540l65 150h105l-105 -150h-65z"/>
<glyph glyph-name="ocircumflex" horiz-adv-x="584" unicode="ô" d="M47 241q0 48 17.5 90t48.5 73t73.5 48.5t93.5 17.5q52 0 99 -19.5t82 -53.5t55.5 -80t20.5 -98q0 -48 -17.5 -90t-48.5 -73t-73.5 -48.5t-93.5 -17.5q-53 0 -99.5 19.5t-81.5 53.5t-55.5 79.5t-20.5 98.5zM142 241q0 -33 12.5 -62.5t34.5 -51t51.5 -34.5t63.5 -13 q30 0 55.5 10.5t44 29t28.5 44t10 55.5q0 33 -12.5 62.5t-34.5 51t-51.5 34.5t-63.5 13q-30 0 -55.5 -10.5t-44 -29t-28.5 -44t-10 -55.5zM331 540l-112 88l-58 -88h-65l68 150h110l122 -150h-65z"/>
<glyph glyph-name="otilde" horiz-adv-x="584" unicode="õ" d="M47 241q0 48 17.5 90t48.5 73t73.5 48.5t93.5 17.5q52 0 99 -19.5t82 -53.5t55.5 -80t20.5 -98q0 -48 -17.5 -90t-48.5 -73t-73.5 -48.5t-93.5 -17.5q-53 0 -99.5 19.5t-81.5 53.5t-55.5 79.5t-20.5 98.5zM142 241q0 -33 12.5 -62.5t34.5 -51t51.5 -34.5t63.5 -13 q30 0 55.5 10.5t44 29t28.5 44t10 55.5q0 33 -12.5 62.5t-34.5 51t-51.5 34.5t-63.5 13q-30 0 -55.5 -10.5t-44 -29t-28.5 -44t-10 -55.5zM61 571q1 22 8.5 42t20.5 35t31 23.5t41 8.5q19 0 37 -7t35 -15.5t33 -15.5t31 -7q17 0 25.5 11.5t12.5 33.5l65 -21q-1 -22 -8.5 -42 t-20.5 -35t-31.5 -23.5t-40.5 -8.5q-19 0 -37 7t-35 15.5t-33 15.5t-31 7q-17 0 -25.5 -11.5t-12.5 -33.5z"/>
<glyph glyph-name="odieresis" horiz-adv-x="584" unicode="ö" d="M47 241q0 48 17.5 90t48.5 73t73.5 48.5t93.5 17.5q52 0 99 -19.5t82 -53.5t55.5 -80t20.5 -98q0 -48 -17.5 -90t-48.5 -73t-73.5 -48.5t-93.5 -17.5q-53 0 -99.5 19.5t-81.5 53.5t-55.5 79.5t-20.5 98.5zM142 241q0 -33 12.5 -62.5t34.5 -51t51.5 -34.5t63.5 -13 q30 0 55.5 10.5t44 29t28.5 44t10 55.5q0 33 -12.5 62.5t-34.5 51t-51.5 34.5t-63.5 13q-30 0 -55.5 -10.5t-44 -29t-28.5 -44t-10 -55.5zM261 607q0 26 18 44.5t44 18.5t44.5 -18.5t18.5 -44.5t-18.5 -44t-44.5 -18t-44 18t-18 44zM76 607q0 26 18 44.5t44 18.5t44.5 -18.5 t18.5 -44.5t-18.5 -44t-44.5 -18t-44 18t-18 44z"/>
<glyph glyph-name="divide" horiz-adv-x="550" unicode="÷" d="M317 415q0 -29 -20.5 -49.5t-49.5 -20.5t-49.5 20.5t-20.5 49.5t20.5 49.5t49.5 20.5t49.5 -20.5t20.5 -49.5zM374 95q0 -29 -20.5 -49.5t-49.5 -20.5t-49.5 20.5t-20.5 49.5t20.5 49.5t49.5 20.5t49.5 -20.5t20.5 -49.5zM69 210l-16 90h430l16 -90h-430z"/>
<glyph glyph-name="oslash" horiz-adv-x="584" unicode="ø" d="M142 241q0 -35 14 -66t39 -54l117 256q-17 3 -32 3q-30 0 -55.5 -10.5t-44 -29t-28.5 -44t-10 -55.5zM442 219q0 35 -14.5 66t-39.5 54l-117 -256q15 -3 33 -3q30 0 55.5 10.5t44 29t28.5 44t10 55.5zM47 241q0 48 17.5 90t48.5 73t73.5 48.5t93.5 17.5q19 0 37 -2.5 t35 -7.5l5 10h91l-21 -46q50 -34 80 -87.5t30 -117.5q0 -48 -17.5 -90t-48.5 -73t-73.5 -48.5t-93.5 -17.5q-19 0 -37.5 2.5t-35.5 7.5l-4 -10h-92l21 46q-50 34 -79.5 87t-29.5 118z"/>
<glyph glyph-name="ugrave" horiz-adv-x="598" unicode="ù" d="M460 53q-26 -31 -65.5 -47t-79.5 -16q-48 0 -93.5 18.5t-80.5 56.5q-21 23 -37.5 55.5t-25.5 86.5l-44 253h96l43 -244q7 -38 17.5 -59.5t25.5 -36.5q40 -40 100 -40q35 0 68.5 18t54.5 47l-55 315h96l81 -460h-91zM235 540l-105 150h105l65 -150h-65z"/>
<glyph glyph-name="uacute" horiz-adv-x="598" unicode="ú" d="M460 53q-26 -31 -65.5 -47t-79.5 -16q-48 0 -93.5 18.5t-80.5 56.5q-21 23 -37.5 55.5t-25.5 86.5l-44 253h96l43 -244q7 -38 17.5 -59.5t25.5 -36.5q40 -40 100 -40q35 0 68.5 18t54.5 47l-55 315h96l81 -460h-91zM219 540l65 150h105l-105 -150h-65z"/>
<glyph glyph-name="ucircumflex" horiz-adv-x="598" unicode="û" d="M460 53q-26 -31 -65.5 -47t-79.5 -16q-48 0 -93.5 18.5t-80.5 56.5q-21 23 -37.5 55.5t-25.5 86.5l-44 253h96l43 -244q7 -38 17.5 -59.5t25.5 -36.5q40 -40 100 -40q35 0 68.5 18t54.5 47l-55 315h96l81 -460h-91zM340 540l-112 88l-58 -88h-65l68 150h110l122 -150h-65 z"/>
<glyph glyph-name="udieresis" horiz-adv-x="598" unicode="ü" d="M460 53q-26 -31 -65.5 -47t-79.5 -16q-48 0 -93.5 18.5t-80.5 56.5q-21 23 -37.5 55.5t-25.5 86.5l-44 253h96l43 -244q7 -38 17.5 -59.5t25.5 -36.5q40 -40 100 -40q35 0 68.5 18t54.5 47l-55 315h96l81 -460h-91zM284 627q0 26 18 44.5t44 18.5t44.5 -18.5t18.5 -44.5 t-18.5 -44t-44.5 -18t-44 18t-18 44zM99 627q0 26 18 44.5t44 18.5t44.5 -18.5t18.5 -44.5t-18.5 -44t-44.5 -18t-44 18t-18 44z"/>
<glyph glyph-name="yacute" horiz-adv-x="503" unicode="ý" d="M89 460l190 -299l78 299h94l-181 -700h-95l73 282l-268 418h109zM178 540l65 150h105l-105 -150h-65z"/>
<glyph glyph-name="thorn" horiz-adv-x="598" unicode="þ" d="M192 135q23 -24 57.5 -39.5t67.5 -15.5q30 0 55.5 9.5t44 27.5t29 43t10.5 55q0 36 -14 66.5t-37.5 52.5t-54 34t-64.5 12q-36 0 -70 -14.5t-56 -40.5zM91 710l53 -293q21 18 58.5 35.5t93.5 17.5q31 0 60 -7t55 -20q34 -17 60 -43t44 -56.5t27 -65t9 -68.5 q0 -46 -17 -86t-46.5 -70t-69 -47t-84.5 -17q-33 0 -64.5 9t-57.5 26l46 -265h-96l-167 950h96z"/>
<glyph glyph-name="ydieresis" horiz-adv-x="503" unicode="ÿ" d="M89 460l190 -299l78 299h94l-181 -700h-95l73 282l-268 418h109zM241 607q0 26 18 44.5t44 18.5t44.5 -18.5t18.5 -44.5t-18.5 -44t-44.5 -18t-44 18t-18 44zM56 607q0 26 18 44.5t44 18.5t44.5 -18.5t18.5 -44.5t-18.5 -44t-44.5 -18t-44 18t-18 44z"/>
<glyph glyph-name="dotlessi" horiz-adv-x="253" unicode="ı" d="M135 460l81 -460h-96l-81 460h96z"/>
<glyph glyph-name="OE" horiz-adv-x="1120" unicode="Œ" d="M366 615q-49 0 -93.5 -17t-78.5 -52t-50.5 -80.5t-16.5 -96.5q0 -54 22 -106.5t62 -92.5q41 -40 90 -62.5t103 -22.5q49 0 93.5 17t78.5 52t50.5 80.5t16.5 96.5q0 54 -22 106.5t-62 92.5q-41 40 -90 62.5t-103 22.5zM405 -10q-72 0 -141.5 29t-123.5 84q-53 54 -83 123 t-30 144q0 70 24 132.5t71 110.5q48 48 110 72.5t133 24.5q63 0 121 -22t109 -64l-13 76h400l17 -95h-302l32 -180h231l17 -95h-232l42 -235h311l17 -95h-410l-23 131q-8 -12 -16 -23t-18 -21q-48 -48 -110 -72.5t-133 -24.5z"/>
<glyph glyph-name="oe" horiz-adv-x="937" unicode="œ" d="M698 -10q-67 0 -119.5 27.5t-84.5 75.5q-29 -48 -77 -75.5t-113 -27.5q-53 0 -99.5 19.5t-81.5 53.5t-55.5 79.5t-20.5 98.5q0 48 17.5 90t48.5 73t73.5 48.5t93.5 17.5q63 0 115.5 -27.5t85.5 -75.5q26 48 73 75.5t109 27.5q51 0 92.5 -20t71.5 -53.5t46 -77t16 -89.5 v-9.5t-1 -10.5h-353q11 -63 55 -100t108 -37q43 0 77.5 15.5t58.5 39.5l61 -58q-36 -38 -85 -59t-112 -21zM664 389q-51 0 -84.5 -28t-44.5 -71h253q-11 45 -46 72t-78 27zM142 241q0 -33 12.5 -62.5t34.5 -51t51.5 -34.5t63.5 -13q30 0 55.5 10.5t44 29t28.5 44t10 55.5 q0 33 -12.5 62.5t-34.5 51t-51.5 34.5t-63.5 13q-30 0 -55.5 -10.5t-44 -29t-28.5 -44t-10 -55.5z"/>
<glyph glyph-name="Scaron" horiz-adv-x="536" unicode="Š" d="M118 165q30 -33 69 -56.5t91 -23.5q20 0 40.5 6.5t36.5 19.5t26 31t10 42q0 47 -28 74t-70.5 45t-92 33t-92 37.5t-70.5 58.5t-28 97q0 40 17.5 73.5t47 57.5t68 37t79.5 13q60 0 105 -21.5t70 -45.5l-61 -76q-26 25 -54.5 36.5t-59.5 11.5q-18 0 -38 -5t-36.5 -15.5 t-27 -27t-10.5 -38.5q0 -36 28 -57.5t70.5 -38t92 -33.5t92 -43t70.5 -67t28 -106q0 -42 -17 -77.5t-46 -61.5t-67.5 -40.5t-81.5 -14.5q-66 0 -124 28t-107 79zM78 900l112 -88l58 88h65l-68 -150h-110l-122 150h65z"/>
<glyph glyph-name="scaron" horiz-adv-x="464" unicode="š" d="M119 122q31 -27 64 -38t67 -11t57.5 15t23.5 41q0 25 -21 38t-53 21t-69 15.5t-69 21.5t-53 38.5t-21 67.5q0 32 15 58t40 44t58 27.5t70 9.5q42 0 79.5 -13.5t63.5 -33.5l-48 -70q-20 15 -44 24.5t-51 9.5q-37 0 -63.5 -15t-26.5 -41q0 -21 21 -31.5t53 -17.5t69 -15 t69 -23.5t53 -42t21 -71.5q0 -32 -14.5 -58t-39.5 -44t-57 -28t-66 -10q-57 0 -103 18t-81 50zM92 690l112 -88l58 88h65l-68 -150h-110l-122 150h65z"/>
<glyph glyph-name="Ydieresis" horiz-adv-x="554" unicode="Ÿ" d="M492 700l-173 -380l56 -320h-99l-53 305l-321 395h124l231 -285l129 285h106zM225 817q0 26 18 44.5t44 18.5t44.5 -18.5t18.5 -44.5t-18.5 -44t-44.5 -18t-44 18t-18 44zM40 817q0 26 18 44.5t44 18.5t44.5 -18.5t18.5 -44.5t-18.5 -44t-44.5 -18t-44 18t-18 44z"/>
<glyph glyph-name="Zcaron" horiz-adv-x="588" unicode="Ž" d="M-25 700h469l12 -65l-278 -540h393l17 -95h-521l-11 65l279 540h-343zM105 900l112 -88l58 88h65l-68 -150h-110l-122 150h65z"/>
<glyph glyph-name="zcaron" horiz-adv-x="486" unicode="ž" d="M273 375h-243l-15 85h370l10 -60l-202 -315h283l15 -85h-410l-11 60zM89 690l112 -88l58 88h65l-68 -150h-110l-122 150h65z"/>
<glyph glyph-name="florin" horiz-adv-x="550" unicode="ƒ" d="M131 -44q8 28 14 69t10.5 88.5t8 99t8.5 102.5h-142l-15 85h165q4 34 8.5 64t11.5 55q9 36 23.5 69t37.5 58q28 31 66.5 47.5t87.5 16.5q18 0 37 -3t38 -11l-26 -83q-11 3 -22.5 5t-26.5 2q-52 0 -83 -35q-25 -30 -39 -81q-6 -20 -10.5 -46.5t-8.5 -57.5h157l15 -85h-181 q-4 -49 -8 -101t-8.5 -101.5t-10 -93.5t-14.5 -78q-9 -36 -23.5 -69t-37.5 -58q-28 -31 -66.5 -47.5t-87.5 -16.5q-18 0 -37 3t-38 11l26 83q11 -3 22.5 -5t26.5 -2q52 0 83 35q25 30 39 81z"/>
<glyph glyph-name="uni0237" horiz-adv-x="266" unicode="ȷ" d="M25 -156q9 -2 20 -3t21 -1q41 0 59.5 22t18.5 61q0 8 -1.5 21t-5.5 36l-85 480h96l85 -480q7 -38 7 -66q0 -75 -47.5 -119.5t-128.5 -44.5q-29 0 -52 5z"/>
<glyph glyph-name="circumflex" horiz-adv-x="440" unicode="ˆ" d="M305 540l-112 88l-58 -88h-65l68 150h110l122 -150h-65z"/>
<glyph glyph-name="caron" horiz-adv-x="440" unicode="ˇ" d="M135 690l112 -88l58 88h65l-68 -150h-110l-122 150h65z"/>
<glyph glyph-name="uni02C9" horiz-adv-x="500" unicode="ˉ" d="M370 650v-85h-300v85h300z"/>
<glyph glyph-name="breve" horiz-adv-x="420" unicode="˘" d="M350 690q0 -29 -11 -54.5t-30 -44.5t-44.5 -30t-54.5 -11t-54.5 11t-44.5 30t-30 44.5t-11 54.5h85q0 -23 16 -39t39 -16t39 16t16 39h85z"/>
<glyph glyph-name="dotaccent" horiz-adv-x="265" unicode="˙" d="M70 627q0 26 18 44.5t44 18.5t44.5 -18.5t18.5 -44.5t-18.5 -44t-44.5 -18t-44 18t-18 44z"/>
<glyph glyph-name="ring" horiz-adv-x="340" unicode="˚" d="M130 620q0 -17 11.5 -28.5t28.5 -11.5t28.5 11.5t11.5 28.5t-11.5 28.5t-28.5 11.5t-28.5 -11.5t-11.5 -28.5zM70 620q0 42 29 71t71 29t71 -29t29 -71t-29 -71t-71 -29t-71 29t-29 71z"/>
<glyph glyph-name="ogonek" horiz-adv-x="320" unicode="˛" d="M203 10q-5 -7 -11.5 -18t-12.5 -24t-10 -27t-4 -27q0 -22 13.5 -33t33.5 -11q8 0 13.5 1t9.5 3l15 -85q-5 -2 -19 -5.5t-36 -3.5q-27 0 -50 9.5t-39.5 25.5t-26 38t-9.5 47q0 38 13.5 67t24.5 43h95z"/>
<glyph glyph-name="tilde" horiz-adv-x="480" unicode="˜" d="M70 571q1 22 8.5 42t20.5 35t31 23.5t41 8.5q19 0 37 -7t35 -15.5t33 -15.5t31 -7q17 0 25.5 11.5t12.5 33.5l65 -21q-1 -22 -8.5 -42t-20.5 -35t-31.5 -23.5t-40.5 -8.5q-19 0 -37 7t-35 15.5t-33 15.5t-31 7q-17 0 -25.5 -11.5t-12.5 -33.5z"/>
<glyph glyph-name="hungarumlaut" horiz-adv-x="495" unicode="˝" d="M255 540l65 150h105l-105 -150h-65zM70 540l65 150h105l-105 -150h-65z"/>
<glyph glyph-name="endash" horiz-adv-x="483" unicode="–" d="M451 295l14 -80h-440l-14 80h440z"/>
<glyph glyph-name="emdash" horiz-adv-x="783" unicode="—" d="M751 295l14 -80h-740l-14 80h740z"/>
<glyph glyph-name="quoteleft" horiz-adv-x="300" unicode="‘" d="M0 450l95 260h65l-53 -260h-107z"/>
<glyph glyph-name="quoteright" horiz-adv-x="300" unicode="’" d="M180 710l-95 -260h-65l53 260h107z"/>
<glyph glyph-name="quotesinglbase" horiz-adv-x="300" unicode="‚" d="M265 120l-95 -260h-65l53 260h107z"/>
<glyph glyph-name="quotedblleft" horiz-adv-x="510" unicode="“" d="M0 450l95 260h65l-53 -260h-107zM210 450l95 260h65l-53 -260h-107z"/>
<glyph glyph-name="quotedblright" horiz-adv-x="510" unicode="”" d="M390 710l-95 -260h-65l53 260h107zM180 710l-95 -260h-65l53 260h107z"/>
<glyph glyph-name="quotedblbase" horiz-adv-x="510" unicode="„" d="M475 120l-95 -260h-65l53 260h107zM265 120l-95 -260h-65l53 260h107z"/>
<glyph glyph-name="dagger" horiz-adv-x="520" unicode="†" d="M439 450l16 -90h-165l99 -560h-96l-99 560h-165l-16 90h165l-44 250h96l44 -250h165z"/>
<glyph glyph-name="daggerdbl" horiz-adv-x="520" unicode="‡" d="M439 450l16 -90h-165l24 -140h166l16 -90h-165l58 -330h-96l-58 330h-165l-16 90h165l-25 140h-165l-16 90h165l-44 250h96l44 -250h165z"/>
<glyph glyph-name="bullet" horiz-adv-x="560" unicode="•" d="M80 230q0 41 16 77.5t43 63.5t63.5 43t77.5 16t77.5 -16t63.5 -43t43 -63.5t16 -77.5t-16 -77.5t-43 -63.5t-63.5 -43t-77.5 -16t-77.5 16t-63.5 43t-43 63.5t-16 77.5z"/>
<glyph glyph-name="ellipsis" horiz-adv-x="930" unicode="…" d="M715 60q0 29 20.5 49.5t49.5 20.5t49.5 -20.5t20.5 -49.5t-20.5 -49.5t-49.5 -20.5t-49.5 20.5t-20.5 49.5zM420 60q0 29 20.5 49.5t49.5 20.5t49.5 -20.5t20.5 -49.5t-20.5 -49.5t-49.5 -20.5t-49.5 20.5t-20.5 49.5zM125 60q0 29 20.5 49.5t49.5 20.5t49.5 -20.5 t20.5 -49.5t-20.5 -49.5t-49.5 -20.5t-49.5 20.5t-20.5 49.5z"/>
<glyph glyph-name="perthousand" horiz-adv-x="1142" unicode="‰" d="M228 0l288 700h79l-288 -700h-79zM183 340q-41 0 -76.5 15t-61.5 41t-40.5 62.5t-14.5 79.5q0 36 13.5 67.5t37.5 54.5t56 36.5t69 13.5q41 0 76.5 -15t61.5 -41t40.5 -62.5t14.5 -79.5q0 -36 -13.5 -67.5t-37.5 -54.5t-56 -36.5t-69 -13.5zM269 517q0 24 -8 43.5t-22 34 t-32.5 22.5t-39.5 8q-39 0 -63 -26t-24 -66q0 -24 8 -43.5t22 -34t32.5 -22.5t39.5 -8q39 0 63 26t24 66zM1022 167q0 24 -8 43.5t-22 34t-32.5 22.5t-39.5 8q-39 0 -63 -26t-24 -66q0 -24 8 -43.5t22 -34t32.5 -22.5t39.5 -8q39 0 63 26t24 66zM743 167q0 24 -8 43.5 t-22 34t-32.5 22.5t-39.5 8q-39 0 -63 -26t-24 -66q0 -24 8 -43.5t22 -34t32.5 -22.5t39.5 -8q39 0 63 26t24 66zM657 -10q-41 0 -76.5 15t-61.5 41t-40.5 62.5t-14.5 79.5q0 36 13.5 67.5t37.5 54.5t56 36.5t69 13.5q47 0 83.5 -18.5t60.5 -50.5q22 32 56.5 50.5t78.5 18.5 q41 0 76.5 -15t61.5 -41t40.5 -62.5t14.5 -79.5q0 -36 -13.5 -67.5t-37.5 -54.5t-56 -36.5t-69 -13.5q-46 0 -82.5 18.5t-60.5 50.5q-22 -32 -56.5 -50.5t-79.5 -18.5z"/>
<glyph glyph-name="guilsinglleft" horiz-adv-x="371" unicode="‹" d="M356 50h-125l-161 165l-8 50l103 165h106l-113 -177z"/>
<glyph glyph-name="guilsinglright" horiz-adv-x="371" unicode="›" d="M15 430h125l161 -165l8 -50l-103 -165h-106l113 177z"/>
<glyph glyph-name="Euro" horiz-adv-x="654" unicode="€" d="M3 230l-15 85h70q-3 27 -3 54v16h-80l-15 85h108q14 53 42 97.5t67.5 76t88 49t104.5 17.5q63 0 111 -23.5t90 -64.5l-65 -68q-60 61 -136 61q-69 0 -121 -39.5t-77 -105.5h228l15 -85h-260v-16q0 -14 1 -27t3 -27h269l15 -85h-259q29 -63 83 -104t130 -41q60 0 103.5 25 t75.5 74l78 -57q-42 -67 -107.5 -102t-149.5 -35q-60 0 -111 18t-91.5 50.5t-70.5 76.5t-47 95h-74z"/>
<glyph glyph-name="trademark" horiz-adv-x="925" unicode="™" d="M322 700v-68h-100v-315h-72v315h-100v68h272zM423 700l143 -216l144 216h45v-383h-72v222l-95 -141h-44l-94 141v-222h-73v383h46z"/>
<glyph glyph-name="fi" horiz-adv-x="659" unicode="ﬁ" d="M528 627q0 -26 -18 -44t-44 -18t-44.5 18t-18.5 44t18.5 44.5t44.5 18.5t44 -18.5t18 -44.5zM304 627q-15 3 -37 3q-41 0 -62 -22t-21 -61q0 -8 1.5 -21t5.5 -36l5 -30h345l81 -460h-96l-66 375h-249l66 -375h-96l-66 375h-120l-15 85h120l-5 30q-7 38 -7 66 q0 36 13.5 66.5t37.5 52t56 33.5t68 12q17 0 30 -1.5t25 -3.5z"/>
<glyph glyph-name="fl" horiz-adv-x="659" unicode="ﬂ" d="M526 0l-66 375h-249l66 -375h-96l-66 375h-120l-15 85h120l-5 30q-7 38 -7 66q0 36 13.5 66.5t37.5 52t56 33.5t68 12q17 0 30 -1.5t25 -3.5l-14 -88q-15 3 -37 3q-41 0 -62 -22t-21 -61q0 -8 1.5 -21t5.5 -36l5 -30h249l-44 250h96l125 -710h-96z"/>
<glyph glyph-name="uniFB03" horiz-adv-x="1009" unicode="ﬃ" d="M878 627q0 -26 -18 -44t-44 -18t-44.5 18t-18.5 44t18.5 44.5t44.5 18.5t44 -18.5t18 -44.5zM654 627q-15 3 -37 3q-41 0 -62 -22t-21 -61q0 -8 1.5 -21t5.5 -36l5 -30h345l81 -460h-96l-66 375h-249l66 -375h-96l-66 375h-254l66 -375h-96l-66 375h-120l-15 85h120 l-5 30q-7 38 -7 66q0 36 13.5 66.5t37.5 52t56 33.5t68 12q17 0 30 -1.5t25 -3.5l-14 -88q-15 3 -37 3q-41 0 -62 -22t-21 -61q0 -8 1.5 -21t5.5 -36l5 -30h254l-5 30q-7 38 -7 66q0 36 13.5 66.5t37.5 52t56 33.5t68 12q17 0 30 -1.5t25 -3.5z"/>
<glyph glyph-name="uniFB04" horiz-adv-x="1009" unicode="ﬄ" d="M654 627q-15 3 -37 3q-41 0 -62 -22t-21 -61q0 -8 1.5 -21t5.5 -36l5 -30h249l-44 250h96l125 -710h-96l-66 375h-249l66 -375h-96l-66 375h-254l66 -375h-96l-66 375h-120l-15 85h120l-5 30q-7 38 -7 66q0 36 13.5 66.5t37.5 52t56 33.5t68 12q17 0 30 -1.5t25 -3.5 l-14 -88q-15 3 -37 3q-41 0 -62 -22t-21 -61q0 -8 1.5 -21t5.5 -36l5 -30h254l-5 30q-7 38 -7 66q0 36 13.5 66.5t37.5 52t56 33.5t68 12q17 0 30 -1.5t25 -3.5z"/>
</font>
</defs>
</svg>
